<svg xmlns="http://www.w3.org/2000/svg" width="330" height="330" fill="none"><path fill="#313640" fill-rule="evenodd" d="M51 0a12 12 0 0 0-12 12v306a12 12 0 0 0 12 12h228a12 12 0 0 0 12-12V56L235 0H51Z" clip-rule="evenodd" style="fill:#313640;fill:color(display-p3 .1917 .2129 .25);fill-opacity:1"/><path fill="#fff" d="m235 8 48 48h-38a10 10 0 0 1-10-10V8Z" style="fill:#fff;fill-opacity:1"/><rect width="7.5" height="7.5" x="67" y="219" fill="#7E8590" rx="3" style="fill:#7e8590;fill:color(display-p3 .4941 .5216 .5647);fill-opacity:1"/><rect width="7.5" height="7.5" x="128.3" y="219" fill="#FF6490" rx="3.8" style="fill:#ff6490;fill:color(display-p3 1 .3922 .5647);fill-opacity:1"/><rect width="23.6" height="7.5" x="99" y="68" fill="#FF6490" rx="3.8" style="fill:#ff6490;fill:color(display-p3 1 .3922 .5647);fill-opacity:1"/><rect width="33" height="7.5" x="127.3" y="68" fill="#7DFF86" rx="3.8" style="fill:#7dff86;fill:color(display-p3 .4902 1 .5255);fill-opacity:1"/><rect width="7.5" height="7.5" x="166.9" y="68" fill="#fff" rx="3.8" style="fill:#fff;fill-opacity:1"/><rect width="7.5" height="7.5" x="67" y="68" fill="#7E8590" rx="3" style="fill:#7e8590;fill:color(display-p3 .4941 .5216 .5647);fill-opacity:1"/><rect width="7.5" height="7.5" x="84" y="68" fill="#fff" rx="3" style="fill:#fff;fill-opacity:1"/><rect width="50.9" height="7.5" x="181" y="68" fill="#FFEB5C" rx="3.8" style="fill:#ffeb5c;fill:color(display-p3 1 .9216 .3608);fill-opacity:1"/><rect width="12.3" height="7.5" x="238.5" y="68" fill="#fff" rx="3.8" style="fill:#fff;fill-opacity:1"/><rect width="7.5" height="7.5" x="67" y="200" fill="#7E8590" rx="3" style="fill:#7e8590;fill:color(display-p3 .4941 .5216 .5647);fill-opacity:1"/><rect width="7.5" height="7.5" x="128.3" y="200" fill="#fff" rx="3.8" style="fill:#fff;fill-opacity:1"/><rect width="29.2" height="7.5" x="142.4" y="200" fill="#76D8FF" rx="3.8" style="fill:#76d8ff;fill:color(display-p3 .4627 .8471 1);fill-opacity:1"/><rect width="14.1" height="7.5" x="178.2" y="200" fill="#fff" rx="3.8" style="fill:#fff;fill-opacity:1"/><rect width="7.5" height="7.5" x="67" y="162" fill="#7E8590" rx="3" style="fill:#7e8590;fill:color(display-p3 .4941 .5216 .5647);fill-opacity:1"/><rect width="7.5" height="7.5" x="100" y="162" fill="#fff" rx="3.8" style="fill:#fff;fill-opacity:1"/><rect width="7.5" height="7.5" x="142.4" y="162" fill="#7DFF86" rx="3.8" style="fill:#7dff86;fill:color(display-p3 .4902 1 .5255);fill-opacity:1"/><rect width="22.6" height="7.5" x="113.2" y="162" fill="#FF6490" rx="3.8" style="fill:#ff6490;fill:color(display-p3 1 .3922 .5647);fill-opacity:1"/><rect width="32" height="7.5" x="156.5" y="162" fill="#FFEB5C" rx="3.8" style="fill:#ffeb5c;fill:color(display-p3 1 .9216 .3608);fill-opacity:1"/><rect width="17.9" height="7.5" x="196.1" y="162" fill="#7DFF86" rx="3.8" style="fill:#7dff86;fill:color(display-p3 .4902 1 .5255);fill-opacity:1"/><rect width="43.3" height="7.5" x="220.6" y="162" fill="#FFEB5C" rx="3.8" style="fill:#ffeb5c;fill:color(display-p3 1 .9216 .3608);fill-opacity:1"/><rect width="7.5" height="7.5" x="67" y="181" fill="#7E8590" rx="3" style="fill:#7e8590;fill:color(display-p3 .4941 .5216 .5647);fill-opacity:1"/><rect width="7.5" height="7.5" x="142.4" y="181" fill="#FF6490" rx="3.8" style="fill:#ff6490;fill:color(display-p3 1 .3922 .5647);fill-opacity:1"/><rect width="7.5" height="7.5" x="206.5" y="181" fill="#FF6490" rx="3.8" style="fill:#ff6490;fill:color(display-p3 1 .3922 .5647);fill-opacity:1"/><rect width="15.1" height="7.5" x="120.7" y="181" fill="#fff" rx="3.8" style="fill:#fff;fill-opacity:1"/><rect width="43.3" height="7.5" x="156.5" y="181" fill="#fff" rx="3.8" style="fill:#fff;fill-opacity:1"/><rect width="43.3" height="7.5" x="220.6" y="181" fill="#fff" rx="3.8" style="fill:#fff;fill-opacity:1"/><rect width="7.5" height="7.5" x="67" y="124" fill="#7E8590" rx="3" style="fill:#7e8590;fill:color(display-p3 .4941 .5216 .5647);fill-opacity:1"/><rect width="7.5" height="7.5" x="84" y="124" fill="#fff" rx="3" style="fill:#fff;fill-opacity:1"/><rect width="7.5" height="7.5" x="134.8" y="124" fill="#fff" rx="3.8" style="fill:#fff;fill-opacity:1"/><rect width="30.2" height="7.5" x="99" y="124" fill="#fff" rx="3.8" style="fill:#fff;fill-opacity:1"/><rect width="7.5" height="7.5" x="67" y="143" fill="#7E8590" rx="3" style="fill:#7e8590;fill:color(display-p3 .4941 .5216 .5647);fill-opacity:1"/><rect width="7.5" height="7.5" x="84" y="143" fill="#fff" rx="3" style="fill:#fff;fill-opacity:1"/><rect width="30.2" height="7.5" x="99" y="143" fill="#FF6490" rx="3.8" style="fill:#ff6490;fill:color(display-p3 1 .3922 .5647);fill-opacity:1"/><rect width="43.3" height="7.5" x="134.8" y="143" fill="#fff" rx="3.8" style="fill:#fff;fill-opacity:1"/><rect width="7.5" height="7.5" x="67" y="87" fill="#7E8590" rx="3" style="fill:#7e8590;fill:color(display-p3 .4941 .5216 .5647);fill-opacity:1"/><rect width="7.5" height="7.5" x="84" y="87" fill="#fff" rx="3" style="fill:#fff;fill-opacity:1"/><rect width="7.5" height="7.5" x="164.1" y="87" fill="#FFEB5C" rx="3.8" style="fill:#ffeb5c;fill:color(display-p3 1 .9216 .3608);fill-opacity:1"/><rect width="7.5" height="7.5" x="238.5" y="87" fill="#fff" rx="3.8" style="fill:#fff;fill-opacity:1"/><rect width="16" height="7.5" x="99" y="87" fill="#FF6490" rx="3.8" style="fill:#ff6490;fill:color(display-p3 1 .3922 .5647);fill-opacity:1"/><rect width="36.8" height="7.5" x="120.7" y="87" fill="#fff" rx="3.8" style="fill:#fff;fill-opacity:1"/><rect width="29.2" height="7.5" x="177.3" y="87" fill="#C8D1DD" rx="3.8" style="fill:#c8d1dd;fill:color(display-p3 .7843 .8196 .8667);fill-opacity:1"/><rect width="19.8" height="7.5" x="212.1" y="87" fill="#FFEB5C" rx="3.8" style="fill:#ffeb5c;fill:color(display-p3 1 .9216 .3608);fill-opacity:1"/><rect width="16" height="7.5" x="99" y="49" fill="#FF6490" rx="3.8" style="fill:#ff6490;fill:color(display-p3 1 .3922 .5647);fill-opacity:1"/><rect width="7.5" height="7.5" x="67" y="49" fill="#7E8590" rx="3" style="fill:#7e8590;fill:color(display-p3 .4941 .5216 .5647);fill-opacity:1"/><rect width="7.5" height="7.5" x="84" y="49" fill="#fff" rx="3" style="fill:#fff;fill-opacity:1"/><rect width="16" height="7.5" x="120.7" y="49" fill="#fff" rx="3.8" style="fill:#fff;fill-opacity:1"/><rect width="29.2" height="7.5" x="142.4" y="49" fill="#fff" rx="3.8" style="fill:#fff;fill-opacity:1"/><rect width="18.8" height="7.5" x="177.3" y="49" fill="#fff" rx="3.8" style="fill:#fff;fill-opacity:1"/><rect width="7.5" height="7.5" x="67" y="106" fill="#7E8590" rx="3" style="fill:#7e8590;fill:color(display-p3 .4941 .5216 .5647);fill-opacity:1"/><rect width="7.5" height="7.5" x="84" y="106" fill="#fff" rx="3" style="fill:#fff;fill-opacity:1"/><rect width="7.5" height="7.5" x="120.7" y="106" fill="#fff" rx="3.8" style="fill:#fff;fill-opacity:1"/><rect width="16" height="7.5" x="99" y="106" fill="#FF6490" rx="3.8" style="fill:#ff6490;fill:color(display-p3 1 .3922 .5647);fill-opacity:1"/><rect width="14.1" height="7.5" x="134.8" y="106" fill="#FF6490" rx="3.8" style="fill:#ff6490;fill:color(display-p3 1 .3922 .5647);fill-opacity:1"/><rect width="162" height="56" x="112.5" y="244.5" stroke="#FCFCFC" stroke-width="3" rx="4.5" style="stroke:#fcfcfc;stroke:color(display-p3 .9882 .9882 .9882);stroke-opacity:1"/><path fill="#fff" d="m137.3 265.2-13 8 13 7.7-2 3.1-14.7-9v-3.8l14.7-9 2 3Zm25.4 10.8c0 2.8-.8 5-2.4 6.8-1.6 1.8-4 2.7-7.2 2.7-2.8 0-5.2-.8-7.4-2.4l1.7-2.8 2.8 1.4 2.7.3c1.7 0 3-.5 4-1.6.9-1 1.4-2.5 1.4-4.5v-13.7h-7.9v-3.4h12.3V276Zm27.4 1.6c0 1.6-.4 3-1.3 4.1-.7 1.2-1.9 2.1-3.4 2.8-1.5.7-3.3 1-5.4 1-4 0-7.2-1.2-9.6-3.5l2.4-2.7c2 1.8 4.4 2.7 7.2 2.7 1.6 0 2.9-.3 3.9-1 1-.8 1.6-1.8 1.6-3.2 0-.8-.2-1.4-.5-2-.3-.5-.9-1-1.6-1.4l-3.3-1.3c-3-.8-5-1.8-6.4-3a6 6 0 0 1-2-4.7c0-1.4.3-2.7 1-3.7.9-1.1 2-2 3.3-2.5a12.6 12.6 0 0 1 13.4 2.2l-2.3 2.6a9.2 9.2 0 0 0-6.2-2.3c-1.4 0-2.6.3-3.5.9-.8.6-1.3 1.4-1.3 2.5 0 .7.2 1.3.6 1.7.4.5 1 1 1.8 1.4l3.8 1.3a15 15 0 0 1 5.7 2.9c1.4 1.2 2 3 2 5.2Zm11.3-18.8 5 9.4 5.2-9.4h4.6l-7.2 12 8 14.2h-4.8l-5.9-11.1-5.8 11.1h-4.7l8-14-7.3-12.2h4.9Zm21.1 28.7 16.1-33.4 3.4 1.6-16.1 33.3-3.4-1.5Zm44-16.3v3.7l-14.7 9.1-2-3 13-7.9-13-7.8 2-3.1 14.6 9Z" style="fill:#fff;fill-opacity:1"/></svg>