<svg xmlns="http://www.w3.org/2000/svg" width="1em" height="1em" viewBox="0 0 128 128"><path d="M87.4 43.8v-.3H87v.3h.4zm3 7v.2h.3a1.2 1.2 0 0 1 0-.4v-.3l-.3.6zm-11.5 9a14 14 0 0 0-2.4-3c0-.3.6-.8 1.6-1.4l3.2-2.7a7.8 7.8 0 0 0 1.2-4.4V48c-.1-1.4-1.1-2.5-3-3.4q-1.7-1-6-1.2a35.6 35.6 0 0 0-9.5 2.6 38.6 38.6 0 0 1-3.6 2.3v.3a.9.9 0 0 0 .3-.2.2.2 0 0 1 .3.2l.2-.1h.1a12.8 12.8 0 0 1-2.5 2l.1.3h-.7v.2l.3.3a1 1 0 0 1-.4 0 1.9 1.9 0 0 0-1.2.6l.2-.7a56.3 56.3 0 0 0 1.1-6.5v-.1a4.7 4.7 0 0 1-1-1 3.7 3.7 0 0 0 0-.6H57q-1.8 2.7-7.1 9.4-4 4.7-4.1 5.3c-1.1 1-1.7 1.8-1.6 2-.3.1-.4.3-.4.5a.1.1 0 0 1-.1 0 3.2 3.2 0 0 1-2.1 1.4l-1 .2a.2.2 0 0 0-.2.3v.1h.4l-.9.4-1.4.3h-.8c0 .1.6 0 .4 0l-1 .3c-.6.1-1 0-1-.2H36a.6.6 0 0 1 0 .3V63l-.7.2q0-.5-3-3.9c0-.4.6-1 2-1.8l4.1-3.6q1.4-1.8 1.6-5.7v-.6c-.2-1.8-1.5-3.3-4-4.4-1.5-1-4.1-1.5-8-1.6A47.8 47.8 0 0 0 15.8 45a47.4 47.4 0 0 1-4.8 3v.3a1.3 1.3 0 0 0 .5-.2.3.3 0 0 1 .3.3l.4-.2h.1v.2A18.6 18.6 0 0 1 9 51l.2.2h-.5l-.5.1v.2l.4.4a1.4 1.4 0 0 1-.6-.1 3.2 3.2 0 0 0-2 1.6l.1.2a4.5 4.5 0 0 1 1-.8v.5a1.5 1.5 0 0 0-.4.1l.4.6a12.6 12.6 0 0 1 2.4-2c.5.1.7.3.7.4h.3a26 26 0 0 1 7.2-3.9v.4q-.7 1-.9 1a1 1 0 0 0 .2.6q0 .6-3.2 8Q6.4 76 1.3 84.3a1 1 0 0 0 .2.5 4.2 4.2 0 0 0 1.6-.6h.2v.3h.3l.3-.2.4.1v.3a2.8 2.8 0 0 1-.5 1.4 7.4 7.4 0 0 0-1.1 2.4v.1H3a19.5 19.5 0 0 0 3-4.4 48.8 48.8 0 0 0 9-3.3 8.4 8.4 0 0 0 4.8-1.7V79l-.8.2h-.2V79a7 7 0 0 0 3.2-1q4.5-3.4 6.7-4.8 4.7-3.5 6.1-6.7l.5-.2a6.8 6.8 0 0 0 .8 0v-.1h.9l1.2-.3H38h.2-.1.2-.1a1.1 1.1 0 0 0 .4 0l.1.4-5.4 8.3-1.2 1.5-.6 1.9h.1l.6-.2-.2.7v.2l.2.2V79.2h.2q.5-.5.5-.9a2.2 2.2 0 0 0 .7 0v.2c-.2 0-.3.2-.4.5v.2h.2c2-2.2 6.7-9.4 10.5-14.3q-.2-.8 6-2.2h.1q.2 1-1 4.6a12.6 12.6 0 0 0-.7 2.5 18.7 18.7 0 0 0-1 3.2L46 77.8a43.5 43.5 0 0 0-2.1 7.7 1 1 0 0 1 .4 0l.2-.2a.1.1 0 0 0 .1 0V85h.7c.2 0 .3-.3.4-.7 0-.6.1-1 .4-1a10.3 10.3 0 0 1 .8-2.4 10.3 10.3 0 0 1 .8-2.6c.5-2 1-3 1.2-3v.2l-.4 1a50.7 50.7 0 0 1-2 7.3l.1 1h.2q2.6-5.7 7.4-22.2a2.9 2.9 0 0 1 1.4-2.3l-.2-.2a1.3 1.3 0 0 0 .8-.5l-1-.4 1.6-7a2.4 2.4 0 0 1 .7-.4v.3a.9.9 0 0 0-.4.2l.3.4a10 10 0 0 1 1.8-1.6c.4.1.5.2.6.4h.2a19.8 19.8 0 0 1 5.4-3v.3l-.6.7a1 1 0 0 0 .1.5 42.4 42.4 0 0 1-2.4 6.1A167.4 167.4 0 0 1 53 75.7a.9.9 0 0 0 .1.3 3 3 0 0 0 1.2-.4h.1v.2h.3l.2-.1h.3v.3a2.1 2.1 0 0 1-.4 1A5.3 5.3 0 0 0 54 79v.1h.2a14.7 14.7 0 0 0 2.4-3.4 37.5 37.5 0 0 0 6.8-2.5 6.4 6.4 0 0 0 3.6-1.2v-.2l-.6.2h-.2v-.1a5.4 5.4 0 0 0 2.4-.8c2.3-1.7 4-3 5.2-3.7 3.6-2.6 5.2-5.1 5-7.5zm-.6.2v.9c0 .2-.2.3-.3.3l-.1-1.6.4.3zM7.7 52.3h-.1V52l.6-.1v.1a1.2 1.2 0 0 0-.5.2zM4.6 83.8a2 2 0 0 0-1-.2V83c0-.2 0-.3.3-.3s.3.1.3.4a6.8 6.8 0 0 1 1-1l.3.1c-.1 1-.4 1.5-.9 1.5zM38 48.7l-.9-1.5V47c.3 0 .6.5 1 1.5v.3zm-.4-3.5-.1.3-4.6-1.9q4.6.2 4.7 1.6zM18.5 61.7h-.7v-.2h.7v.2zm-.6-9.9h.2v.5l-.6.6v-.3c.3-.3.5-.6.4-.8zM16.6 55v.6h-.1V55zm-.7 1.1h.3c0 .5-.2.8-.4.8h-.2a1.5 1.5 0 0 0 .3-.7zm-.6 1.6h.2v.2l-.3.4H15v-.1a.4.4 0 0 0 .4-.5zm-.5 1.4v.8h-.2l-.1-.7h.3zM9.6 74c-.2 1-.4 1.6-.7 1.6v-.2a1.7 1.7 0 0 1 .7-1.4zm-1 2v.2a.3.3 0 0 1-.3.4v-.2q0-.3.3-.3zm-.3 4.4h.5v.2a1.3 1.3 0 0 0-.5.2H8c0-.2 0-.3.3-.4zM22.1 76a25.6 25.6 0 0 0-4.8 2.8q-4.4 1.5-4.3 1.9A48 48 0 0 0 7.8 83a1.9 1.9 0 0 1-.8-.2 1.4 1.4 0 0 1 .7-1.3 2.8 2.8 0 0 1 1.3.2 12.8 12.8 0 0 1 2.5-.8v-.4l-1 .1a13.2 13.2 0 0 1 2.8-1.3h.5v.2c-.8 0-1.3.3-1.4.7 0 .2.1.3.3.3l1-.7q1.7-.4 9.8-5.2v.3c0 .2-.5.6-1.4 1.2zm-8.2 2.7a3.2 3.2 0 0 0 2-.9c.2 0 .3 0 .3.3a7.2 7.2 0 0 0-2.2 1H14v-.4zm13.3-10.2L23 72a42 42 0 0 1-5 3q-7.2 4-9 4.2h-.2q.2-.8 6.5-13.3a35.5 35.5 0 0 0 8.7-2.6l1-.1a5.6 5.6 0 0 1 4.5 1.2v.6q-1 3.2-2.4 3.7zm-8-4.5h.7v.1h-.7zm9.3-1.5h.5l.7.5v.2a1.4 1.4 0 0 1-1.2-.7zm1.3-7.5a19 19 0 0 1-3.5 2.6c-.7 0-3 1-7.1 2.8a1.3 1.3 0 0 0-.7-.2v-.2a3.8 3.8 0 0 1 .8-2.3c.4-1.6.7-2.6 1-2.8l3.4-7.7q0-.7 2.2-1h.5v.4l2.7-.4c2.7-.2 4.1.3 4.2 1.6h.4l-.1-.8.4-.1a2.1 2.1 0 0 1 1.3 1.6 2.5 2.5 0 0 1-.7 1.6c-.2 0-.3-.1-.3-.4h-.4v.9q-2.1 3-3 3.1l-1 1.2zm2 5.3a1.2 1.2 0 0 0-.6-.2v-.5h.3l.7.4a.3.3 0 0 1-.3.4zM34 63c.3.1.5.3.5.4h-.2l-.3.1V63zm.2 1.3v-.1l.4-.1v.1h-.4zm1 1 1.3-.2v.1l-1.4.3a1.8 1.8 0 0 0 0-.2zm1.3.6a6 6 0 0 0-1.4.2l1.2-.5.6-.1v.2c-.2 0 0 0-.3.2zm1.3-.3a.3.3 0 0 1-.3-.2h.3a.2.2 0 0 1 .3.2h-.3zm3.4-3.6v-.2l.6-.1v.2h-.6zm3.6 22.3a1 1 0 0 0 0-.4h.2a.2.2 0 0 1 .3.2v.1l-.5.1zm2.6-21.4h-.3a7.4 7.4 0 0 1-1 .4h-.3a.2.2 0 0 1-.3-.1l1.7-.4.6-.3.2.2a1.2 1.2 0 0 0-.6.3zm1.3-.4v-.1a.7.7 0 0 0 .3-.2l1.2-.3v.1a9.4 9.4 0 0 0-1.5.5zM49 60a1 1 0 0 0-.3.2H48c-.1-.2.8-.6 2.6-1h.3v.2L49 60zm3.3-3.5c-.2 1.5-.7 2.3-1.6 2.5v-.1l-.8.3h-.4a1 1 0 0 1-.5 0l-.1-.2a49.3 49.3 0 0 1 3.6-5h.2a5 5 0 0 1-.4 2.5zm5.7-5v-.2h.4v.1a1.6 1.6 0 0 0-.4.2zm-2.4 24a1.5 1.5 0 0 0-.7-.2v-.4q0-.2.2-.2c.2 0 .3 0 .3.3a4 4 0 0 1 .7-.8l.2.1c0 .8-.3 1.1-.6 1.2zM81 48.7l-.7-1.1v-.3c.2 0 .5.4.7 1.1v.3zm-.3-2.7-.2.3-3.4-1.5c2.3.1 3.5.5 3.6 1.2zM66 58.7h-.5v-.3h.5v.3zm-.4-7.6h.1v.4q-.2 0-.5.5v-.2a1 1 0 0 0 .4-.7zm-1 2.5v.4h-.2v-.4zm-.6.8h.3q0 .6-.4.6a1.3 1.3 0 0 0 .1-.6zm-.4 1.2h.1v.1l-.2.4h-.2V56c.2 0 .3-.1.3-.4zm-.4 1v.7H63v-.6h.3zm-4 11.4q-.2 1.2-.5 1.2V69a1.3 1.3 0 0 1 .5-1.1zm-.7 1.6a.2.2 0 0 1-.2.3q0-.3.2-.3zm-.2 3.2h.4v.2a1 1 0 0 0-.4.1h-.2q0-.2.2-.3zm10.4-3.2a21.8 21.8 0 0 0-3.6 2c-2.2.8-3.3 1.3-3.3 1.5A35.3 35.3 0 0 0 58 75a1.4 1.4 0 0 1-.6-.2 1 1 0 0 1 .5-1 2.1 2.1 0 0 1 1 .1 10.8 10.8 0 0 1 2-.6V73H60a10 10 0 0 1 2.1-1h.4v.1c-.7.1-1 .3-1 .6a.2.2 0 0 0 .2.2l.7-.5q1.3-.2 7.4-3.9v.2l-1 1zm-6.2 2a2.5 2.5 0 0 0 1.6-.7.2.2 0 0 1 .2.2 6 6 0 0 0-1.6.7h-.2v-.2zM72.7 64l-3.1 2.5a30.1 30.1 0 0 1-3.8 2.3q-5.5 3-6.9 3.2 0-.6 4.9-10.1a27.3 27.3 0 0 0 6.6-2h.7a4.2 4.2 0 0 1 3.4.8v.5c-.5 1.6-1.2 2.5-1.8 2.8zm-6-3.4h.4v.1h-.5v-.1zm7-1.2h.3l.6.4v.1a1 1 0 0 1-1-.5zm1-5.7a14.3 14.3 0 0 1-2.7 2 35.6 35.6 0 0 0-5.4 2.1 1.2 1.2 0 0 0-.5 0v-.3a3 3 0 0 1 .6-1.7c.3-1.3.5-2 .8-2.2l2.6-5.8c0-.3.5-.6 1.7-.8h.3v.3l2.1-.3c2-.1 3.1.3 3.2 1.3h.2v-.6h.3a1.6 1.6 0 0 1 1 1.2 2 2 0 0 1-.6 1.2c-.2 0-.3 0-.3-.3h-.2v.7c-1 1.5-1.9 2.3-2.4 2.4-.4.5-.6.8-.8.8zm1 4v-.4h.3l.5.3a.2.2 0 0 1-.2.2 1 1 0 0 0-.5-.2zM32.4 80H32l-.2.3a.2.2 0 0 0 .3.1c.2 0 .2 0 .2-.2V80zm-1-1.8v.1c.2 0 .3-.1.2-.3a.2.2 0 0 0-.2.2zM38 62.7h.3v-.3h-.4l.1.3zm84.5 7a15.7 15.7 0 0 1-3.7.7v.2h.4l.3-.1c2.8-.3 3.1-.2 3-.5v-.2zm-15.2 2v.3-.2zm-1.8-6-.2-.1a4.2 4.2 0 0 0-.3 1c.2 0 .4-.3.5-1zm17.6 4v.2l.4.1v-.2h-.4zm-19.3 2.4h-.6l-.1.2 3.8-.2v-.3l-3 .3zm-1.7-8.3H101.8l.1.3c.2 0 .3-.1.2-.3zM125 68h.2l.1-.2v-.3a3 3 0 0 0-1.5.4v-.1h-.8c0-.2 0-.3-.2-.3h-.4c-.5 0-.7 0-1 .2h-1.7v.2h.6a.5.5 0 0 0 .4.1h.2a19 19 0 0 1-2.4.5.4.4 0 0 0-.3-.1.2.2 0 0 1-.2-.2l.5-.1a3.3 3.3 0 0 0 .4 0l.6-.2v-.3a15.2 15.2 0 0 1-2.6.3h-.1v-.2l2.3-.4.1.1a.5.5 0 0 1 .3-.1h.2a8.5 8.5 0 0 0 2.7-.4v.1l.2-.1h.3c0-.2.3-.3.4-.3v-.2c-2.8.5-3.5.4-4.3.6v-.1a3.4 3.4 0 0 1-1 0 .5.5 0 0 0-.2.2h-.1l-2.4.3s0-.1-.1 0a12.2 12.2 0 0 1-2.6.4.8.8 0 0 0-.3.1s0-.1-.1 0h-1l-.7.2-.1-.1a5.4 5.4 0 0 1-1 .2c-.2 0 0 0 0-.1h-1.4l-1.8.3h-.6l-.1.2c-.8-.1-1.2-.3-1.2-.4q.1-1.1.5-1.1h.2l-.2.2h.2l.3-.3v-.3h-.2v-.2a.8.8 0 0 1 0-.5l.6-.9v.2h.3v-.2l-.2-.2a1 1 0 0 1 .5-.3h-.4v-.4a10 10 0 0 0 1-2.6h.3c.1 0 .2 0 .2-.2h-.2a.9.9 0 0 1 0-.6 1.6 1.6 0 0 0 .6-1.2v.1c.4-.2.7-.7.8-1.5a46.9 46.9 0 0 0 2.3-6.2c2-5.5 2-6.1 2.3-7.4h-.3a.8.8 0 0 1 0 .5 1 1 0 0 0-.5-.1v-.1a2.8 2.8 0 0 1 .7-1.7l.2.8h.3a7.3 7.3 0 0 1 .1-1c0-.2 0-.2-.2-.2l-.3.1v-1.3h-.1a1 1 0 0 1-.3-.5l-1.3.1a1.2 1.2 0 0 0-.2-.4l.9-.3h.7l.2-.1h.2v-.2h-1.4l-.2.2v-.2l-10.7.9h-1.3s0 .2-.3.2l-.2-.1-1 .2a6 6 0 0 1-1 0 1 1 0 0 1-.5.2l2.6-.2a1.2 1.2 0 0 1-.6.2.9.9 0 0 1-.5 0 15.1 15.1 0 0 1-2 .4l-.3-.1-4.4.7a1 1 0 0 0-.6-.1 7.3 7.3 0 0 0-1.1.2l-2.1 1 .1.2a1.2 1.2 0 0 0 .5-.2h.7v.8a1.9 1.9 0 0 0-1.3 1.3c-1 .5-1.5.8-1.5 1v.1h.1l.3-.1.3.4v.5q0 .3-5.2 11c-3 7-4.6 10.7-4.7 11.4-1 .3-1.6.7-1.8 1.2 0 .2.3.3.9.4v.2l-.3.5v.5q0 .5 2.3.7l.1-.2a8.1 8.1 0 0 1-.3 2h.2a3.5 3.5 0 0 0 1-2h.1c.2 0 .3.3.5.6q-.3.1-2 4.5l.2.2h.2q2-5.2 2.6-5.7l9.3-1 .3-.2a.1.1 0 0 0 .2.1h.2l.3-.1a.1.1 0 0 0 .2 0l3.4-.2c.8 0 1.3-.3 1.2-.8 0-.1.5-.3 1.6-.4a1.3 1.3 0 0 1 .4 0l1.6-.2c0-.6.2-.9.5-.9V69a4.6 4.6 0 0 0-1 .3 6.3 6.3 0 0 1-1.3-.2 1.2 1.2 0 0 1-.4.2h-2.3l-.3.2-.2-.1h-.1l-.3.1-.8-.2-.3.2h-.5v-.1q4.5-.5 4.4-1.2a.3.3 0 0 1 .3.2l.9-.2v-.3l-7.2.2-.1.2h-.9a1 1 0 0 0-.6.1l-.3-.1a10 10 0 0 0-2 .3 12.7 12.7 0 0 0-2 0l-1.6.2-.8-.1c0-.5 1-2.8 2.8-7a6.1 6.1 0 0 1 1.6-2.6 1 1 0 0 1 .4 0l1.2-.3h.6a13.4 13.4 0 0 0 3.4-.8 1.6 1.6 0 0 1 .8 0l.9-.1 2.6-.2a17.3 17.3 0 0 0 3.6-.8v-.3c-.5 0-.8 0-.8-.2 0-.3-.3-.5-1-.4v-.3l.7-.2 1.9-.2V55h-1.2v-.2l.7-.1c.2 0 .3-.1.3-.3-1 0-1.5 0-1.5-.2q-10.2.5-10.2.2a1.2 1.2 0 0 0-.5.2l-.1-.3q2.7-5.7 3.1-5.8a1.6 1.6 0 0 1-.2.8h.3c.7-1.6 1.3-2.5 1.8-2.6 2.2-.2-.3-.3 4.3-1a.9.9 0 0 0 .4.1q2.7-.5 7.5-1.1v-.3l-1.7.2v-.3a1 1 0 0 0 .5-.2v.2a1 1 0 0 0 .4-.2 1.2 1.2 0 0 1 .7 0 10 10 0 0 1 1.4-.2l1.1-.1c.3-.2.4-.3.4-.5v-.1a3.4 3.4 0 0 1-1 0 .3.3 0 0 1 .3-.4l2-.2.9-.2.1.2a1 1 0 0 0 .4-.2h.2a7.4 7.4 0 0 0-.4 1h-.3a1.1 1.1 0 0 0-.1-.4h-.2c-2.4 6.7-3.5 9.9-5.7 15-.4 1.4-.8 2.1-1 2.3a.2.2 0 0 0 .2.2 3.3 3.3 0 0 1-.5 1.9c-1 3-1.7 4.6-2 5l.2 1.3a.2.2 0 0 1-.2.3h-.3c0-.4-.1-.6-.4-.6h-.1a5.5 5.5 0 0 0-.7 1.7h.2a.8.8 0 0 0 .4-.7h.8a1.5 1.5 0 0 0-.3 1l.1.2-.3.7v.1a1.5 1.5 0 0 1 1 .3 1.6 1.6 0 0 0 .7-.3h3l1-.3a21 21 0 0 0 1.9-.1h.4l.2-.1a6.1 6.1 0 0 1 1.9.1v.1h-.5v.3a.8.8 0 0 0 .4-.2c.1 0 .2 0 .2.2a3.3 3.3 0 0 0-.7.2l-.3-.1-.5.2-.4-.1h-.1a.2.2 0 0 0 .2.3h.4l2-.2.8-.1.5-.1h.7l1.7-.3V71a17.2 17.2 0 0 0 2.4-.4c.5 0 .2 0 .3-.1v.1h.4v-.2h-.8a3.6 3.6 0 0 1-.8 0l-1.7.1v-.1l1-.1h.4l.2-.2v.1c1.3 0 1.8.3 8-1 .3 0 .3-.4.5-1a.6.6 0 0 1-.3 0 9.7 9.7 0 0 1-1.8.2c-.1 0-.2 0-.2-.2h1a2.4 2.4 0 0 0 1-.4s-.2.1 0 .1zm-45.9.8h-.4a8.3 8.3 0 0 1 .7-2h.3a7.6 7.6 0 0 1-.6 2zm.5-2.2c0-.2.1-.3.3-.4v.1c0 .2 0 .3-.3.3zm5.9 4.5v.2h-.8l.7-.2zm-1 0c0 .1-.1.3-.6.5l-1-.1h-.2v-.3l1.9-.2zm6-27.1H90v-.1c0-.2 0-.3.3-.3h.4a.3.3 0 0 1-.3.4zm6.7-1.3h.1v.3h-.4a.3.3 0 0 1 .2-.3zm-1.7.6h-.7V43a7.2 7.2 0 0 0 1.7-.3l.3.1v.3h-.3a.9.9 0 0 1-.5-.1 1.1 1.1 0 0 1-.5.2zm.8 2.4v-.1l1-.1v.1l-1 .1zm1.2-1h.5-.5zm0-1.8v-.2l1.3-.2v.2a7.2 7.2 0 0 0-1.2.2zm.7 2.6v-.3h.5q.3 0 .3.3H98zm3.2-4.3-.7.2h-.1a6.8 6.8 0 0 1-1.3 0l2-.2zm-.8 3v.1l-.9.1v-.1h1zm1.5.7s-.1-.2-.5-.2l-1 .3h-.6l-.3-.3h.8l1.9-.3h1v.2a5.3 5.3 0 0 0-1.3.2zm9.5-2.4h.2a3.6 3.6 0 0 1 1.1-.8 6.5 6.5 0 0 1-1.5 3.3l-.5-.3a17 17 0 0 0 .7-2.2zm-1.6 2.7h.2c-.2.4-.4.5-.5.6v-.4a.8.8 0 0 0 .4-.2zm-1 2.5a3.5 3.5 0 0 1 .8-1.7c-.2 1-.4 1.4-.7 1.5v.6a1.3 1.3 0 0 0-.3.7h-.1V48l.3-.4zm-.4 1.3a3.4 3.4 0 0 1-.2 1h-.2v-.3c.2-.4.4-.6.5-.6zM101 70.8v-.1h.2v.3s-.2 0-.2-.2zm10.7.3V71h-.7v-.1l1.4-.1v.1a1.3 1.3 0 0 0-.7.2zm-.7-.3zm0-1.7h-.7V69h.7l.6-.2.2.1 1-.2.2.2-2 .2zm2.9-.2a3.2 3.2 0 0 0-.8-.1v-.1h.7s.2 0 0 .2zm0-.2h.4-.4zm1 0v-.1a.7.7 0 0 0 .2-.2.3.3 0 0 1 .3.3zm1-.2v-.1h.5v.1h-.5zm.7 0c0-.2 0-.3.2-.3l.1.2.2.1h-.5zm-7 3v-.3.3zm16.4-4.3-.1-.1c-.1-.1 0 .1-.1.1v.1h.1-.1l-.2.3.4-.2v-.2zm.6.6v.2h.5c0-.2-.3-.2-.5-.2zm-.8-.5z"/><path fill="#f9dc3e" d="M90 50.1v.2h.3a1.2 1.2 0 0 1 .1-.4v-.3c-.1 0-.3.2-.4.6zM87 43v-.3h-.4v.3h.4zm-8.5 16a14 14 0 0 0-2.4-3c0-.3.5-.8 1.6-1.4l3.1-2.6a7.8 7.8 0 0 0 1.3-4.3v-.5c-.1-1.4-1.1-2.5-3-3.3q-1.7-1.1-6-1.3a35.6 35.6 0 0 0-9.4 2.6 38.6 38.6 0 0 1-3.7 2.3v.2a.9.9 0 0 0 .4-.1.2.2 0 0 1 .3.2l.2-.1a12.8 12.8 0 0 1-2.4 2l.1.3h-.7v.2l.2.3a1 1 0 0 1-.4 0 1.9 1.9 0 0 0-1.1.6l.2-.7a56.3 56.3 0 0 0 1.1-6.5v-.2a4.7 4.7 0 0 1-1.1-1 3.7 3.7 0 0 0 0-.5v-.1h-.1q-1.9 2.8-7.1 9.5-4 4.7-4.2 5.2c-1 1.2-1.6 1.8-1.5 2-.3.2-.5.4-.4.6a.1.1 0 0 1-.2 0 3.2 3.2 0 0 1-2 1.4l-1 .2a.2.2 0 0 0-.2.3h.3v.1l-.8.3-1.4.4h-.8.3l-1 .3c-.6 0-.9 0-1-.2a.5.5 0 0 1 0 .2l-.1-.2-.8.2q0-.5-3-3.9c0-.4.6-1 2-1.8L38 53q1.4-1.7 1.6-5.6v-.6c-.2-1.8-1.5-3.3-4-4.5-1.5-1-4.2-1.5-8-1.6a47.8 47.8 0 0 0-12.3 3.4 47.4 47.4 0 0 1-4.8 3v.3a1.3 1.3 0 0 0 .5-.2.3.3 0 0 1 .3.3l.3-.2h.2v.2a18.6 18.6 0 0 1-3.4 2.6l.2.2h-.5l-.4.1v.2l.3.4a1.4 1.4 0 0 1-.5-.1 3.2 3.2 0 0 0-2 1.6v.2a4.5 4.5 0 0 1 1.2-.8v.5a1.5 1.5 0 0 0-.5.2l.4.5a12.6 12.6 0 0 1 2.4-2c.4.1.7.3.7.4h.3a26 26 0 0 1 7.1-3.8v.3q-.6 1-.8 1a1 1 0 0 0 .2.6q0 .6-3.2 8Q6 75.2.9 83.6a1 1 0 0 0 .2.4 4.2 4.2 0 0 0 1.6-.6h.2v.3h.3l.3-.1h.3v.4a2.8 2.8 0 0 1-.5 1.4 7.4 7.4 0 0 0-1 2.4v.2h.2a19.6 19.6 0 0 0 3.1-4.4 48.9 48.9 0 0 0 9-3.4 8.4 8.4 0 0 0 4.7-1.6v-.2l-.7.2h-.2v-.2a7 7 0 0 0 3.2-1q4.4-3.4 6.7-4.8 4.7-3.5 6-6.7l.6-.1a6.8 6.8 0 0 0 .7 0l.1-.2h.8l1.2-.5h.2-.1a1.1 1.1 0 0 0 .4 0l.1.4-5.3 8.4-1.2 1.5-.6 2h.2l.5-.3-.2.8.1.2.2.2-.1.1v.2h.2q.5-.5.5-1a2.2 2.2 0 0 0 .7.1v.2c-.2 0-.3.2-.3.5v.1c2-2 6.8-9.3 10.6-14.2q-.2-.8 6-2.3h.1q.2 1-1 4.7a12.6 12.6 0 0 0-.6 2.4 18.7 18.7 0 0 0-1 3.2L45.8 77a43.5 43.5 0 0 0-2.2 7.7 1 1 0 0 1 .4 0l.2-.2a.1.1 0 0 0 .2.1v-.3h.6c.1 0 .3-.3.4-.7 0-.7.1-1 .4-1a10.3 10.3 0 0 1 .7-2.4 10.3 10.3 0 0 1 .8-2.6c.6-2 1-3 1.3-3v.2l-.4 1A50.7 50.7 0 0 1 46 83l.2 1h.1q2.6-5.7 7.5-22.2a2.9 2.9 0 0 1 1.4-2.3l-.2-.2a1.3 1.3 0 0 0 .8-.5l-1-.4 1.6-7a2.4 2.4 0 0 1 .6-.4v.3a.9.9 0 0 0-.3.2l.3.4a10 10 0 0 1 1.8-1.6c.4.1.5.2.6.4h.2a19.8 19.8 0 0 1 5.4-3v.3q-.5.7-.7.7a1 1 0 0 0 .2.5 42.5 42.5 0 0 1-2.4 6.1A167.4 167.4 0 0 1 52.7 75a.9.9 0 0 0 .1.3A3 3 0 0 0 54 75h.1v.2h.3l.2-.1h.2v.3a2.1 2.1 0 0 1-.4 1 5.3 5.3 0 0 0-.8 1.9v.1h.2a14.7 14.7 0 0 0 2.4-3.3 37.5 37.5 0 0 0 6.8-2.6 6.4 6.4 0 0 0 3.6-1.3V71l-.6.2H66V71a5.4 5.4 0 0 0 2.4-.8l5.1-3.7c3.6-2.6 5.3-5.1 5-7.6zm-.6.2v.9c0 .2-.2.3-.3.4l-.1-1.6c.2 0 .3.1.4.3zM7.3 51.6h-.1v-.3h.6v.1a1.2 1.2 0 0 0-.5.2zM4.2 83a2 2 0 0 0-1-.2v-.5c0-.1 0-.3.3-.3s.3.1.3.4a6.8 6.8 0 0 1 1-1l.3.2c-.2.9-.4 1.4-1 1.4zm33.5-35.1c-.1 0-.5-.5-1-1.4v-.3c.4 0 .7.4 1 1.4v.3zm-.4-3.5-.2.3-4.5-1.9q4.5.2 4.7 1.6zM18 61h-.6v-.2h.6v.2zm-.5-10h.1v.5l-.6.7v-.3c.3-.4.5-.6.5-.8zM16 54.4v.6l-.1-.7zm-.7 1.1h.3c0 .5-.1.8-.4.8h-.2a1.5 1.5 0 0 0 .3-.8zM15 57h.2v.1l-.3.5h-.3v-.1a.4.4 0 0 0 .4-.5zm-.5 1.4v.8H14v-.8h.3zM9.2 73.3c-.2 1-.5 1.5-.7 1.5v-.1a1.7 1.7 0 0 1 .7-1.5zm-1 2v.2a.3.3 0 0 1-.3.3v-.1q0-.3.3-.4zm-.3 4.3h.5v.2a1.3 1.3 0 0 0-.5.2h-.3c0-.2 0-.3.3-.3zm13.8-4.2a25.6 25.6 0 0 0-4.8 2.7q-4.4 1.6-4.3 1.9a48 48 0 0 0-5.2 2.3 1.9 1.9 0 0 1-.9-.2 1.4 1.4 0 0 1 .7-1.3 2.8 2.8 0 0 1 1.3.2 12.8 12.8 0 0 1 2.6-.8v-.4l-1 .1a13.2 13.2 0 0 1 2.8-1.3h.5v.2c-.9 0-1.3.3-1.4.7 0 .2.1.3.3.3l1-.7Q15 78.8 23 74v.3l-1.3 1.2zM13.5 78a3.2 3.2 0 0 0 2-1c.2 0 .3.1.3.3a7.2 7.2 0 0 0-2.2 1h-.1v-.3zm13.3-10.2-4.1 3.3a40.7 40.7 0 0 1-5 3q-7.3 4-9 4.1h-.2q.2-.8 6.5-13.3a35.5 35.5 0 0 0 8.7-2.6h1a5.6 5.6 0 0 1 4.5 1.1v.6c-.7 2.2-1.5 3.4-2.4 3.8zm-8-4.5h.6l-.6.1v-.1zm9.2-1.6h.5c.4.2.7.4.7.6v.1a1.4 1.4 0 0 1-1.2-.7zm1.3-7.5a19 19 0 0 1-3.5 2.7c-.6 0-3 1-7 2.7a1.3 1.3 0 0 0-.7-.1v-.3a3.8 3.8 0 0 1 .8-2.2c.3-1.7.6-2.7 1-2.9l3.4-7.6q-.1-.7 2.1-1.1h.5v.4l2.7-.4c2.7-.2 4.2.4 4.3 1.7h.3v-.8h.2a2.1 2.1 0 0 1 1.3 1.6 2.5 2.5 0 0 1-.7 1.6c-.2 0-.3-.2-.3-.5h-.3l-.1 1q-2 3-3 3.1l-1 1.2zm2.1 5.4a1.2 1.2 0 0 0-.7-.3V59h.3l.7.4a.3.3 0 0 1-.3.3zm2.2 2.5.5.4h-.3l-.2.2v-.6zm.2 1.3.4-.2v.2h-.4zm.9 1 1.3-.2v.2l-1.4.3a1.9 1.9 0 0 0 0-.2zm1.4.7a6 6 0 0 0-1.4.2v-.1l1.2-.4.5-.1v.2c-.2 0 0 0-.3.2zm1.2-.3a.3.3 0 0 1-.3-.2h.4a.2.2 0 0 1 .3.1h-.4zm3.5-3.7v-.1l.5-.1.1.2h-.6zm3.6 22.4a1 1 0 0 0 0-.4h.1a.2.2 0 0 1 .3.2l-.5.2zM47 62.2h-.3a7.4 7.4 0 0 1-1 .3h-.3a.2.2 0 0 1-.3-.1l1.7-.4.6-.3.2.2a1.3 1.3 0 0 0-.6.3zm1.3-.5a.7.7 0 0 0 .3-.3l1.2-.3v.1a9.4 9.4 0 0 0-1.5.5zm.2-2.4a1 1 0 0 0-.3.2h-.5c-.1-.2.8-.6 2.6-1h.3v.2l-2.1.6zm3.3-3.5c-.2 1.4-.7 2.3-1.6 2.5v-.1l-.8.3H49a1 1 0 0 1-.5 0v-.3a49.3 49.3 0 0 1 3.5-4.9h.3a5 5 0 0 1-.5 2.4zm5.7-5v-.2h.4v.1a1.6 1.6 0 0 0-.4.2zm-2.4 23.9a1.5 1.5 0 0 0-.7-.2v-.3q0-.2.2-.3c.2 0 .3.1.3.4a4 4 0 0 1 .6-.8h.3c-.1.8-.3 1.2-.6 1.2zM80.6 48l-.7-1.1v-.2c.2 0 .5.3.7 1v.3zm-.3-2.7-.2.3-3.4-1.5c2.3.1 3.5.5 3.6 1.2zM65.7 58h-.5v-.2h.4v.2zm-.4-7.5v.3l-.4.5V51a1 1 0 0 0 .3-.6zm-1 2.4v.5H64v-.5zm-.6.9h.2q0 .6-.3.6h-.1a1.3 1.3 0 0 0 .2-.6zm-.4 1.2h.1v.1l-.2.4H63v-.2c.2 0 .3-.1.3-.3zM63 56v.6h-.2V56h.2zm-4 11.3q-.2 1.2-.5 1.2v-.1a1.3 1.3 0 0 1 .5-1.1zm-.7 1.6a.2.2 0 0 1-.3.3q0-.3.3-.3zM58 72h.4v.1a1 1 0 0 0-.4.2h-.2q0-.2.2-.3zM68.5 69a21.8 21.8 0 0 0-3.7 2c-2.2.8-3.3 1.3-3.3 1.5a35.3 35.3 0 0 0-4 1.7 1.4 1.4 0 0 1-.6-.2 1 1 0 0 1 .6-1 2.1 2.1 0 0 1 1 .2 10.8 10.8 0 0 1 2-.6v-.3l-.8.1a10 10 0 0 1 2.1-1h.4v.1c-.7 0-1 .2-1 .6a.2.2 0 0 0 .2.2l.7-.5q1.3-.3 7.4-4v.3l-1 .9zm-6.3 2a2.5 2.5 0 0 0 1.6-.7c.1 0 .2 0 .2.2a6 6 0 0 0-1.6.7h-.2v-.2zM72.3 63l-3.1 2.5a30.2 30.2 0 0 1-3.8 2.4q-5.5 3-6.9 3.2h-.1q.2-.7 5-10.1a27.3 27.3 0 0 0 6.5-2l.8-.1a4.2 4.2 0 0 1 3.4.9v.4c-.5 1.7-1.1 2.6-1.8 2.9zm-6-3.4h.4v.1h-.5zm7-1.2h.3l.6.4v.1a1 1 0 0 1-1-.5zm1-5.7a14.3 14.3 0 0 1-2.7 2 35.7 35.7 0 0 0-5.4 2.2 1.2 1.2 0 0 0-.5 0v-.3a3 3 0 0 1 .6-1.7c.2-1.3.5-2 .8-2.2l2.6-5.8c0-.3.5-.6 1.6-.8h.4v.3l2-.3c2-.2 3.2.2 3.3 1.2h.2V47h.2a1.6 1.6 0 0 1 1 1.2 2 2 0 0 1-.5 1.2c-.1 0-.2-.1-.2-.4h-.3v.7C76.2 51.2 75.5 52 75 52l-.8.9zm1 4v-.4h.3l.5.3a.2.2 0 0 1-.2.2 1 1 0 0 0-.5-.2zM32 79.3h-.2l-.2.2a.2.2 0 0 0 .3.2c.1 0 .2-.1.2-.3v-.1zm-.9-1.9v.2c.2 0 .2-.2.2-.3v-.1a.2.2 0 0 0-.2.2zm6.6-12.3.2-.2h-.1a.1.1 0 0 0 0 .2zm0-3.3h.3v-.3l-.4.1.1.2zm65.8 9.5-.6-.1v.4l3.7-.4v-.2l-3 .3zm3.5-.3v.2-.2zm15.8-2.1v.2l.4.1v-.2l-.4-.1zm-.6 0a15.7 15.7 0 0 1-3.8.6v.2h.4l.4-.1c2.8-.3 3-.2 3-.5V69zm-17-4.1-.2-.1a4.2 4.2 0 0 0-.3 1v.1c.2 0 .3-.3.5-1zm-3.4-1.9h-.1l-.2.1v.3c.3 0 .3-.1.3-.3zm7.4 7.7v-.2h-.1v.2zm15.4-3.5h.2l.1-.2v-.2a3 3 0 0 0-1.5.3h-.8l-.2-.4h-.4c-.5 0-.7 0-1 .2H120l-.2.1h-.7v.2l.3.1h.3a.5.5 0 0 0 .3 0h.3a19 19 0 0 1-2.5.5.4.4 0 0 0-.2 0 .2.2 0 0 1-.2-.3h.5a3.2 3.2 0 0 0 .4 0l.6-.3V67a15.2 15.2 0 0 1-2.6.2h-.1V67l2.3-.3a.5.5 0 0 1 .4 0h.2a8.5 8.5 0 0 0 2.7-.4h.5c0-.3.3-.3.4-.3v-.3c-2.8.6-3.5.4-4.3.6a3.4 3.4 0 0 1-1 0 .5.5 0 0 0-.2.2l-.1-.1-2.4.3h-.1a12.2 12.2 0 0 1-2.6.4.8.8 0 0 0-.3.1h-1.1l-.7.2h-.1a5.4 5.4 0 0 1-1 .1c-.2 0 0 0 0 0h-1.4l-1.8.3h-.7v.1c-.8-.1-1.2-.2-1.2-.4q.1-1 .5-1h.1v.2l.4-.4V66h-.2v-.2a.8.8 0 0 1 0-.5l.6-.8v.2h.2v-.2l-.1-.3a1 1 0 0 1 .5-.2v-.1h-.4v-.4a10 10 0 0 0 1-2.6l.3.1c.1 0 .2 0 .2-.2h-.3v-.1a.9.9 0 0 1 .1-.5 1.6 1.6 0 0 0 .5-1.2h.2c.3-.1.5-.6.7-1.4a46.9 46.9 0 0 0 2.5-6.3c2-5.5 2-6 2.2-7.4h-.2a.8.8 0 0 1 0 .5 1 1 0 0 0-.5-.1v-.1a2.8 2.8 0 0 1 .6-1.7h.1l.3.8h.2a7.3 7.3 0 0 1 .2-1c0-.1-.1-.2-.3-.2l-.2.1V41h-.2a1 1 0 0 1-.3-.5l-1.3.1a1.2 1.2 0 0 0-.2-.4s.3-.2 1-.3h.6l.3-.1.1.1h.1v-.3h-1.4l-.3.2v-.2l-10.6 1h-1.3l-.3.1-.3-.1-.9.2a6 6 0 0 1-1 0 1 1 0 0 1-.6.2l2.7-.1a1.2 1.2 0 0 1-.7.2.9.9 0 0 1-.5-.1 15.2 15.2 0 0 1-2 .4h-.3l-4.3.6a1 1 0 0 0-.6 0 7.2 7.2 0 0 0-1.2.2l-2 .9v.2a1.2 1.2 0 0 0 .5-.2l.8.1-.1.7a1.9 1.9 0 0 0-1.5 1.2c-1 .5-1.5.8-1.5 1v.1h.1l.3-.1.4.4v.5q0 .3-5.3 11c-3 6.9-4.6 10.7-4.7 11.3-1 .3-1.6.8-1.8 1.3 0 .2.3.3 1 .4v.2l-.4.5v.5q0 .4 2.3.7l.1-.2a8.2 8.2 0 0 1-.2 2h.1a3.5 3.5 0 0 0 .9-1.7h.1c.2 0 .3.1.5.5q-.3.1-2 4.4l.2.3h.1q2-5.2 2.6-5.7l9.3-1 .3-.2a.1.1 0 0 0 .2.1h.3l.3-.2a.1.1 0 0 0 .1.2l3.5-.4c.9-.1 1.3-.4 1.3-.8 0-.2.5-.3 1.5-.4a1.3 1.3 0 0 1 .5 0l1.6-.2c0-.6.2-.9.5-1v-.2a4.6 4.6 0 0 0-1 .2 6.3 6.3 0 0 1-1.3-.1 1.2 1.2 0 0 1-.5.2h-2.3l-.3.2-.1-.1h-.2l-.3.1-.7-.2-.3.2h-.6v-.1q4.5-.5 4.4-1.2a.3.3 0 0 1 .4.3l.8-.3v-.2l-7.1.2-.2.1h-.9a1 1 0 0 0-.5.2l-.3-.2a10 10 0 0 0-2 .4 12.7 12.7 0 0 0-2 0l-1.7.1-.8-.1c0-.5.9-2.8 2.8-7a6.1 6.1 0 0 1 1.5-2.6 1 1 0 0 1 .5 0l1.1-.3h.6a13.4 13.4 0 0 0 3.5-.8 1.6 1.6 0 0 1 .7 0l1-.1L96 57a17.3 17.3 0 0 0 3.6-.7V56c-.5 0-.7 0-.7-.2 0-.4-.4-.5-1.1-.5V55l.7-.2 1.9-.1v-.3h-1.2V54h.8c.2 0 .2-.2.2-.4l-1.5-.1q-10.2.5-10.2.2a1.2 1.2 0 0 0-.4.2l-.2-.3q2.7-5.8 3.2-5.8a1.7 1.7 0 0 1-.3.7v.1h.3c.7-1.7 1.3-2.6 1.9-2.6 2.1-.2-.3-.3 4.2-1a.9.9 0 0 0 .5 0q2.7-.5 7.5-1v-.3l-1.7.1v-.2a1 1 0 0 0 .5-.2v.1a1 1 0 0 0 .4-.2 1.2 1.2 0 0 1 .6.1 10 10 0 0 1 1.5-.3h1c.3-.2.4-.4.4-.5v-.2a3.4 3.4 0 0 1-1 0 .3.3 0 0 1 .3-.3l2-.2 1-.2v.1a1 1 0 0 0 .5-.2h.1a7.5 7.5 0 0 0-.4 1.1h-.3a1.1 1.1 0 0 0-.1-.5h-.1c-2.5 6.8-3.5 10-5.8 15-.4 1.4-.7 2.2-1 2.3a.2.2 0 0 0 .2.2 3.3 3.3 0 0 1-.4 2c-1 3-1.7 4.6-2.1 4.9l.1 1.3a.2.2 0 0 1-.2.3h-.3c0-.4-.1-.6-.4-.6h-.1a5.5 5.5 0 0 0-.7 1.7h.2a.8.8 0 0 0 .5-.7h.7a1.5 1.5 0 0 0-.3 1l.1.1-.3.8v.1a1.5 1.5 0 0 1 1 .3 1.6 1.6 0 0 0 .7-.3h3l1-.3a20.9 20.9 0 0 0 2.2-.1h.4l.2-.1a6.1 6.1 0 0 1 1.9.1v.2h-.6v.2a.8.8 0 0 0 .4-.2c.2 0 .3 0 .3.3a3.3 3.3 0 0 0-.8.1H108.7v.1a.2.2 0 0 0 .2.2h.4l2-.1.7-.2h.5l.7-.1c.6 0 .5-.1 1.7-.3v-.1.1a17.2 17.2 0 0 0 2.5-.5c.5 0 .2 0 .3-.1l.1.1h.4v-.2h-.9a3.6 3.6 0 0 1-.7 0l-1.8.1v-.1l1-.1h.4l.2-.2v.1c1.3 0 1.8.3 8-1 .3 0 .3-.4.5-1a.6.6 0 0 1-.3 0 9.7 9.7 0 0 1-1.8.2l-.2-.2h1a2.4 2.4 0 0 0 1-.4s-.2.1 0 .1zm-45.9.8h-.4a8.3 8.3 0 0 1 .7-2h.3a7.6 7.6 0 0 1-.6 2zm.5-2.1v-.1c0-.2.1-.3.3-.3 0 .3 0 .4-.3.4zm5.9 4.5v.1h-.7l.7-.1zm-.9 0s-.2.3-.7.4h-1.2v-.3l2-.2zM90 43.1h-.4v-.1c0-.2 0-.3.2-.3h.5a.3.3 0 0 1-.3.4zm6.7-1.3h.1v.3h-.4a.3.3 0 0 1 .2-.3zm-1.7.6h-.7v-.2A7.2 7.2 0 0 0 96 42l.3.1v.3H96a.9.9 0 0 1-.5-.1 1.1 1.1 0 0 1-.5.2zm.8 2.4v-.1l1.1-.1v.1l-1 .1zM97 44v-.1h.6v.1h-.6zm.2-1.8h-.2l.1-.3 1.2-.1v.1a7.2 7.2 0 0 0-1.1.3zm.6 2.5v-.2h.5q.3 0 .3.2h-.8zm3.1-4.3-.6.2h-.2a6.8 6.8 0 0 1-1.2 0l2-.1zm-.7 3v.2h-1l1-.2zm1.5.8-.5-.3-1 .3h-.7l-.2-.2h.8l1.9-.3h.9v.1a5.3 5.3 0 0 0-1.2.3zm9.5-2.5h.2a3.6 3.6 0 0 1 1.1-.7 6.5 6.5 0 0 1-1.5 3.2l-.6-.3a17 17 0 0 0 .8-2.2zm-1.6 2.8h.1c-.1.3-.3.5-.4.5v-.4a.8.8 0 0 0 .3-.1zm-1 2.4a3.5 3.5 0 0 1 .7-1.7v.1c-.1 1-.3 1.5-.6 1.5v.6a1.3 1.3 0 0 0-.3.7h-.1l-.1-.8c.2 0 .3-.1.4-.4zm-.4 1.4a3.4 3.4 0 0 1-.3 1v-.4c0-.4.2-.6.3-.6zM100.6 70V70h.2v.3c-.1 0-.2 0-.2-.2zm10.7.3c0-.1 0-.2-.1-.1h-.6v-.1l1.4-.2v.1a1.3 1.3 0 0 0-.8.2zm-.7-.3zm0-1.7h-.7v-.1h.7l.6-.2h.2l1-.1s.2 0 .2.2l-2 .1zm2.9-.3a3.2 3.2 0 0 0-.8 0V68h.7s.2 0 0 .1zm0 0v-.2h.4v.1h-.4zm1-.1v-.1a.7.7 0 0 0 .2-.2.3.3 0 0 1 .3.3zm1-.2v-.1h.5v.1h-.5zm.7 0 .1-.3.2.2.2.1h-.5zm9.1-1.1zm.2-.1s.1-.1 0-.2 0 .2-.1.2l-.2.3.3-.1v-.3zm.7.5v.2h.5l-.5-.2z"/></svg>