<svg xmlns="http://www.w3.org/2000/svg" width="1.1em" height="1em" viewBox="0 0 256 235"><path fill="#009577" d="M233.8 104.9c0-13-15.4-24.6-39-31.7 5.7-24 3.2-43-8-49.5a18 18 0 0 0-9.1-2.3c-10.6 0-24 7.4-37.4 20.1-13.5-12.6-26.7-20-37.3-20a18 18 0 0 0-9.2 2.3c-11.2 6.5-13.6 25.5-8 49.4-23.5 7-38.7 18.5-38.8 31.5 0 13 15.4 24.6 39 31.6-5.7 24-3.2 43.1 8.1 49.6a17.8 17.8 0 0 0 9 2.2c10.6 0 24-7.3 37.4-20 13.5 12.6 26.8 20 37.3 20a18.2 18.2 0 0 0 9.2-2.4c11.3-6.5 13.6-25.4 8-49.2 23.5-7.2 38.8-18.6 38.8-31.6ZM149 45.8c15.5-13.9 25.2-15.4 28.6-15.4a9 9 0 0 1 4.6 1.1c5.4 3.1 7.6 14 5.9 28.4a107.4 107.4 0 0 1-2 11 185 185 0 0 0-23.7-4 186.5 186.5 0 0 0-15.7-19 47.5 47.5 0 0 1 2.3-2.1Zm-47 69.8a255.4 255.4 0 0 0 4.7 8.6c1.6 2.8 3.3 5.7 5.2 8.6a178.3 178.3 0 0 1-14.8-2.8c1.3-4.8 3-9.5 5-14.4Zm-5.2-36a166.6 166.6 0 0 1 15-2.8c-1.9 2.8-3.5 5.7-5.2 8.7l-4.7 8.6a222.9 222.9 0 0 1-5.1-14.5Zm9.9 25.2a226.5 226.5 0 0 1 7.7-14.8 220.3 220.3 0 0 1 9-14.5 216.4 216.4 0 0 1 34 0 246.4 246.4 0 0 1 16.7 29.2 214 214 0 0 1-7.7 14.9c-2.8 4.9-5.9 9.8-9 14.4-5.6.4-11.2.6-17 .6a209.9 209.9 0 0 1-17-.6 212.5 212.5 0 0 1-9-14.3c-2.8-5-5.3-10-7.7-14.9Zm62.2-28c5.1.8 10.1 1.7 14.8 2.8a169.8 169.8 0 0 1-5 14.3 256.2 256.2 0 0 0-4.7-8.5 402 402 0 0 0-5-8.5h-.1Zm5.2 47.3a250 250 0 0 0 4.7-8.6c1.9 5 3.8 9.8 5 14.5-4.7 1.1-9.7 2-15 2.7a172.4 172.4 0 0 0 5.4-8.6Zm-33.8-69.8a166.2 166.2 0 0 1 10 11.8 242.1 242.1 0 0 0-9.8-.2c-3.4 0-6.8 0-10.1.2 3.2-4.2 6.5-8.2 10-11.8Zm-42-22.7a9.1 9.1 0 0 1 4.7-1c3.4 0 6.8 1 9.8 2.4a74 74 0 0 1 19 12.8l2.2 2a186.5 186.5 0 0 0-15.5 19 187.3 187.3 0 0 0-24 4c-.7-3.8-1.4-7.4-1.8-10.8-2-14.3.3-25.2 5.6-28.3v-.1Zm-10 96a111.3 111.3 0 0 1-10.5-3.8c-13.4-5.7-21.7-13-21.7-19.2 0-6.2 8.3-13.5 21.8-19a109.1 109.1 0 0 1 10.3-3.7 185.5 185.5 0 0 0 8.6 23 187 187 0 0 0-8.5 22.7Zm43.6 36.2c-15.5 13.9-25.2 15.3-28.7 15.3a8.9 8.9 0 0 1-4.6-1c-5.4-3.2-7.5-14-5.8-28.5.4-3.7 1-7.3 1.9-11a188.4 188.4 0 0 0 23.8 4 184 184 0 0 0 15.6 19l-2.2 2.2Zm8.6-8.6c-3.4-3.6-6.7-7.5-10-11.8 3.2.2 6.6.3 9.9.3 3.4 0 6.8 0 10.1-.2-3.3 4.2-6.6 8.1-10 11.7Zm42 22.8a9.1 9.1 0 0 1-4.7 1c-3.4 0-13.2-1.4-28.7-15.3l-2.2-2a186.4 186.4 0 0 0 15.5-19 183.7 183.7 0 0 0 24-3.8 101 101 0 0 1 1.8 10.7c1.9 14.3-.3 25.2-5.7 28.3ZM203 124a114.8 114.8 0 0 1-10.3 3.7 186.6 186.6 0 0 0-8.7-23 185.8 185.8 0 0 0 8.5-22.8 111.3 111.3 0 0 1 10.5 3.8c13.5 5.7 21.8 13 21.8 19.2 0 6.3-8.4 13.4-21.8 19v.1Zm-62.7-2a17.4 17.4 0 1 0-17.3-17.3 17.4 17.4 0 0 0 17.3 17.4ZM24.8 0v209.5H256V0H24.8ZM247 200.5H33.9V9h213v191.5ZM86 136.3c-5.7 24-3.2 43.1 8.1 49.6a17.8 17.8 0 0 0 9 2.2c10.6 0 24-7.3 37.4-20 13.5 12.6 26.8 20 37.3 20a18.2 18.2 0 0 0 9.2-2.4c11.3-6.5 13.6-25.4 8-49.2 23.5-7 38.8-18.6 38.8-31.5 0-13-15.4-24.6-39-31.7 5.7-24 3.2-43-8-49.6a18 18 0 0 0-9.2-2.2c-10.5 0-23.8 7.3-37.3 20C126.8 29 113.5 21.7 103 21.7a18 18 0 0 0-9.2 2.3c-11.3 6.5-13.6 25.5-8 49.4-23.5 7-38.8 18.5-38.8 31.4 0 13 15.4 24.6 39 31.6Zm45.8 27.5c-15.5 13.9-25.2 15.3-28.6 15.3a8.9 8.9 0 0 1-4.6-1c-5.4-3.2-7.6-14-5.9-28.5.5-3.7 1.1-7.3 2-11a188.4 188.4 0 0 0 23.8 4 184 184 0 0 0 15.6 19l-2.3 2.2Zm47-69.9a256.2 256.2 0 0 0-4.7-8.5l-5.2-8.5c5.2.7 10.2 1.6 14.9 2.7a163 163 0 0 1-5 14.3Zm5.1 36c-4.7 1.1-9.7 2-15 2.7a219 219 0 0 0 5.3-8.6 209.2 209.2 0 0 0 4.6-8.6c2 5 3.7 9.8 5.1 14.6v-.1Zm-9.8-25.3a214 214 0 0 1-7.8 14.9 215 215 0 0 1-9 14.4c-5.5.4-11.2.7-17 .7a210 210 0 0 1-16.9-.7 212.5 212.5 0 0 1-9-14.3 223.4 223.4 0 0 1-7.8-14.9 226.5 226.5 0 0 1 7.8-14.8 220.3 220.3 0 0 1 9-14.5 216.4 216.4 0 0 1 17-.6c5.9 0 11.4.2 16.9.7a246 246 0 0 1 16.8 29.2Zm-62.2 28.2a178.3 178.3 0 0 1-14.8-2.8 172.5 172.5 0 0 1 5-14.3 255.4 255.4 0 0 0 4.7 8.6c1.6 2.8 3.2 5.6 5.1 8.5Zm-5.2-47.4A171.5 171.5 0 0 0 102 94a190.6 190.6 0 0 1-5.2-14.4 166.6 166.6 0 0 1 15-2.8c-1.8 2.8-3.4 5.7-5.1 8.6Zm33.8 69.8c-3.4-3.6-6.7-7.5-10-11.8 3.2.2 6.5.3 9.9.3 3.3 0 6.8 0 10-.2a175 175 0 0 1-9.9 11.7Zm42 22.8a9.1 9.1 0 0 1-4.7 1c-3.4 0-13.2-1.4-28.7-15.3l-2.2-2a186.4 186.4 0 0 0 15.4-19 183.7 183.7 0 0 0 24-3.8 101 101 0 0 1 1.9 10.7c1.9 14.3-.3 25.2-5.7 28.3Zm10-96a111.2 111.2 0 0 1 10.5 3.8c13.4 5.7 21.8 13 21.8 19.2 0 6.2-8.4 13.6-21.8 19.2a114.8 114.8 0 0 1-10.3 3.6 186.6 186.6 0 0 0-8.7-23 185.8 185.8 0 0 0 8.5-22.9v.1ZM149 46c15.5-14 25.2-15.4 28.6-15.4a9 9 0 0 1 4.6 1c5.4 3.2 7.6 14 5.9 28.5a107.4 107.4 0 0 1-2 11 185 185 0 0 0-23.8-4 186.5 186.5 0 0 0-15.6-19 30.2 30.2 0 0 1 2.3-2.2Zm-8.7 8.4a166.2 166.2 0 0 1 10 11.8 242.1 242.1 0 0 0-9.8-.2c-3.4 0-6.8 0-10.1.2 3.2-4.2 6.5-8.2 10-11.8Zm-42-22.7a9.1 9.1 0 0 1 4.7-1c3.4 0 6.8 1 9.8 2.4a74 74 0 0 1 19 12.8l2.2 2a186.5 186.5 0 0 0-15.5 19 187.3 187.3 0 0 0-24 4c-.7-3.8-1.4-7.4-1.8-10.8-2-14.3.3-25.2 5.6-28.3v-.1ZM78 85.6a109.1 109.1 0 0 1 10.3-3.7 185.5 185.5 0 0 0 8.6 23 187 187 0 0 0-8.5 22.7 111.3 111.3 0 0 1-10.5-3.8c-13.5-5.7-21.8-13-21.8-19.2 0-6.2 8.4-13.5 21.9-19Zm62.4 1.8a17.4 17.4 0 1 0 17.4 17.4 17.4 17.4 0 0 0-17.4-17.5v.1Zm0 0a17.4 17.4 0 1 0 17.4 17.4 17.4 17.4 0 0 0-17.4-17.5v.1Zm0 0a17.4 17.4 0 1 0 17.4 17.4 17.4 17.4 0 0 0-17.4-17.5v.1Zm93.5 17.5c0-13-15.4-24.6-39-31.6 5.7-24 3.2-43.1-8-49.6a18 18 0 0 0-9.1-2.3c-10.6 0-24 7.4-37.4 20.1-13.5-12.6-26.8-20-37.3-20a18 18 0 0 0-9.2 2.4c-11.2 6.5-13.6 25.4-8 49.3-23.5 7-38.7 18.5-38.8 31.5 0 13 15.4 24.6 39 31.7-5.7 24-3.2 43 8.1 49.5a17.8 17.8 0 0 0 9 2.3c10.6 0 24-7.4 37.4-20.1 13.5 12.6 26.8 20 37.3 20a18.2 18.2 0 0 0 9.2-2.4c11.3-6.4 13.6-25.4 8-49.2 23.5-7.2 38.8-18.6 38.8-31.6ZM149 45.8c15.5-13.9 25.2-15.4 28.6-15.4a9 9 0 0 1 4.6 1.1c5.4 3.1 7.6 14 5.9 28.4a107.4 107.4 0 0 1-2 11 185 185 0 0 0-23.7-4 186.5 186.5 0 0 0-15.7-19 47.5 47.5 0 0 1 2.3-2.1Zm-47 69.8a255.4 255.4 0 0 0 4.7 8.6c1.6 2.8 3.3 5.7 5.2 8.6a178.3 178.3 0 0 1-14.8-2.8c1.3-4.8 3-9.5 5-14.4Zm-5.2-36a166.6 166.6 0 0 1 15-2.8c-1.9 2.8-3.5 5.7-5.2 8.7l-4.7 8.6a222.9 222.9 0 0 1-5.1-14.5Zm9.9 25.2a226.5 226.5 0 0 1 7.7-14.8 220.3 220.3 0 0 1 9-14.5 216.4 216.4 0 0 1 34 0 246.4 246.4 0 0 1 16.7 29.2 214 214 0 0 1-7.7 14.9c-2.8 4.9-5.9 9.8-9 14.4-5.6.4-11.2.6-17 .6a209.9 209.9 0 0 1-17-.6 212.5 212.5 0 0 1-9-14.3c-2.8-5-5.3-10-7.7-14.9Zm62.2-28c5.1.8 10.1 1.7 14.8 2.8a169.8 169.8 0 0 1-5 14.3 256.2 256.2 0 0 0-4.7-8.5 402 402 0 0 0-5-8.5h-.1Zm5.2 47.3a250 250 0 0 0 4.7-8.6c1.9 5 3.8 9.8 5 14.5-4.7 1.1-9.7 2-15 2.7a172.4 172.4 0 0 0 5.4-8.6Zm-33.8-69.8a166.2 166.2 0 0 1 10 11.8 242.1 242.1 0 0 0-9.8-.2c-3.4 0-6.8 0-10.1.2 3.2-4.2 6.5-8.2 10-11.8Zm-42-22.7a9.1 9.1 0 0 1 4.7-1c3.4 0 6.8 1 9.8 2.4a74 74 0 0 1 19 12.8l2.2 2a186.5 186.5 0 0 0-15.5 19 187.3 187.3 0 0 0-24 4c-.7-3.8-1.4-7.4-1.8-10.8-2-14.3.3-25.2 5.6-28.3v-.1Zm-10 96a111.3 111.3 0 0 1-10.5-3.8c-13.4-5.7-21.7-13-21.7-19.2 0-6.2 8.3-13.5 21.8-19a109.1 109.1 0 0 1 10.3-3.7 185.5 185.5 0 0 0 8.6 23 187 187 0 0 0-8.5 22.7Zm43.6 36.2c-15.5 13.9-25.2 15.3-28.7 15.3a8.9 8.9 0 0 1-4.6-1c-5.4-3.2-7.5-14-5.8-28.5.4-3.7 1-7.3 1.9-11a188.4 188.4 0 0 0 23.8 4 184 184 0 0 0 15.6 19l-2.2 2.2Zm8.6-8.6c-3.4-3.6-6.7-7.5-10-11.8 3.2.2 6.6.3 9.9.3 3.4 0 6.8 0 10.1-.2-3.3 4.2-6.6 8.1-10 11.7Zm42 22.8a9.1 9.1 0 0 1-4.7 1c-3.4 0-13.2-1.4-28.7-15.3l-2.2-2a186.4 186.4 0 0 0 15.5-19 183.7 183.7 0 0 0 24-3.8 101 101 0 0 1 1.8 10.7c1.9 14.3-.3 25.2-5.7 28.3ZM203 124a114.8 114.8 0 0 1-10.3 3.7 186.6 186.6 0 0 0-8.7-23 185.8 185.8 0 0 0 8.5-22.8 111.3 111.3 0 0 1 10.5 3.8c13.5 5.7 21.8 13 21.8 19.2 0 6.3-8.4 13.4-21.8 19v.1Zm-62.7-2a17.4 17.4 0 1 0-17.3-17.3 17.4 17.4 0 0 0 17.3 17.4ZM9.1 225.5V15.8l-9.1 9v209.6h231.1l9-9H9.2Z"/></svg>
