<svg xmlns="http://www.w3.org/2000/svg" viewBox="2 0 156 160"><g fill="none" stroke-width="2"><path stroke="#156cf1" d="M119.3 106.39c-17.99 5.68-34.16 6.88-52.28.3q-11.67-4.24-22.2-11.07" vector-effect="non-scaling-stroke"/><path stroke="#35bbf6" d="M39.21 91.75q-13.04-6.84-25.66-14.42c-2.49-1.49-2.86-3.14-3.3-5.79" vector-effect="non-scaling-stroke"/></g><path fill="#1b73ff" d="M119.3 106.39c-17.99 5.68-34.16 6.88-52.28.3q-11.67-4.24-22.2-11.07-.55-21.44-.05-43.19.01-.49.43-.75 8.31-5.11 15.07-8.39c21.48-10.44 47.11-9.42 67.97 2.14q.75.42-.01.81c-2.95 1.54-11.48 4.52-8.6 10q.21.41.61.64l38.43 21.99a.28.28 0 0 1 0 .48q-19.19 10.91-38.37 21.95-2.31 1.33-1 5.09Z"/><path fill="#4ac8ff" d="M39.21 91.75q-13.04-6.84-25.66-14.42c-2.49-1.49-2.86-3.14-3.3-5.79l28.34-16.33q.56-.33.56.33l.06 36.21Z"/><path fill="#20aeec" d="M10.25 71.54c.44 2.65.81 4.3 3.3 5.79q12.62 7.58 25.66 14.42l.02 10.65a.45.45 0 0 1-.67.39Q21.78 93.23 5.08 83.66c-9.95-5.7.96-9.66 5.17-12.12Z"/><path fill="#0e64e2" d="M44.82 95.62q10.53 6.83 22.2 11.07c18.12 6.58 34.29 5.38 52.28-.3l9.25 5.53a.58.58 0 0 1-.03 1.01q-31.89 16.7-65.47 3.52-4.92-1.93-17.9-9.84-.41-.25-.46-.72-.57-5.01.13-10.27Z"/></svg>
