<svg viewBox="0 0 24 24" fill="none" xmlns="http://www.w3.org/2000/svg">
<g clip-path="url(#clip0_948_30627)">
<mask id="mask0_948_30627" style="mask-type:alpha" maskUnits="userSpaceOnUse" x="0" y="0" width="24" height="24">
<path d="M12 24C18.6274 24 24 18.6274 24 12C24 5.37258 18.6274 0 12 0C5.37258 0 0 5.37258 0 12C0 18.6274 5.37258 24 12 24Z" fill="black"/>
</mask>
<g mask="url(#mask0_948_30627)">
<path d="M11.9994 23.6C18.4059 23.6 23.5994 18.4065 23.5994 12C23.5994 5.59352 18.4059 0.400024 11.9994 0.400024C5.59291 0.400024 0.399414 5.59352 0.399414 12C0.399414 18.4065 5.59291 23.6 11.9994 23.6Z" fill="black" stroke="white" stroke-width="0.8"/>
<path d="M19.9336 21.0027L9.21815 7.20007H7.19922V16.7961H8.81437V9.25122L18.6658 21.9794C19.1103 21.6819 19.5338 21.3554 19.9336 21.0027Z" fill="url(#paint0_linear_948_30627)"/>
<path d="M16.933 7.20007H15.333V16.8001H16.933V7.20007Z" fill="url(#paint1_linear_948_30627)"/>
</g>
</g>
<defs>
<linearGradient id="paint0_linear_948_30627" x1="14.5326" y1="15.5334" x2="19.2659" y2="21.4001" gradientUnits="userSpaceOnUse">
<stop stop-color="white"/>
<stop offset="1" stop-color="white" stop-opacity="0"/>
</linearGradient>
<linearGradient id="paint1_linear_948_30627" x1="16.133" y1="7.20007" x2="16.1062" y2="14.2501" gradientUnits="userSpaceOnUse">
<stop stop-color="white"/>
<stop offset="1" stop-color="white" stop-opacity="0"/>
</linearGradient>
<clipPath id="clip0_948_30627">
<rect width="24" height="24" fill="white"/>
</clipPath>
</defs>
</svg>
