<svg xmlns="http://www.w3.org/2000/svg" width="2.9em" height="1em" viewBox="0 0 512 180"><defs><linearGradient id="a" x1="0%" x2="100%" y1="50%" y2="50%"><stop offset="0%" stop-color="#FFA588"/><stop offset="27.1%" stop-color="#FCB371"/><stop offset="83.6%" stop-color="#F4D837"/><stop offset="100%" stop-color="#F1E425"/></linearGradient></defs><path fill="url(#a)" d="M461 179.2a51.3 51.3 0 0 1-36.6-15l-76-76A51.2 51.2 0 0 1 334 60.5a51.1 51.1 0 0 1 .2-18.4h-22.5A9 9 0 0 0 303 48a9 9 0 0 0 2 10.3L338 91a51.2 51.2 0 0 1 11.1 56.3 51.3 51.3 0 0 1-47.7 31.8h-1a51.3 51.3 0 0 1-36.5-15l-7.2-7.4a50.6 50.6 0 0 1-42.6 22.4 51.3 51.3 0 0 1-36.5-15.1L58.4 44.9a9.3 9.3 0 0 0-6.6-2.8 9 9 0 0 0-8.7 5.8 9 9 0 0 0 2 10.3l33 32.9a51.2 51.2 0 0 1 11.1 56.2 51.3 51.3 0 0 1-47.7 31.8h-15a21 21 0 1 1 0-42h14.9a9 9 0 0 0 8.7-5.9A9 9 0 0 0 48 121L15.2 88.1A51.2 51.2 0 0 1 4 32a51.5 51.5 0 0 1 84.2-16.7l119.1 119.1a9.3 9.3 0 0 0 6.7 2.8 9 9 0 0 0 8.7-5.8 9 9 0 0 0-2-10.3l-85-85a21.1 21.1 0 0 1 29.8-29.8l85 85 43.2 43.1a9.3 9.3 0 0 0 6.6 2.8h1a9 9 0 0 0 8.8-5.8 9 9 0 0 0-2-10.3L275.1 88A51.2 51.2 0 0 1 264 32 51.5 51.5 0 0 1 311.7 0h85.9a21 21 0 1 1 0 42.1h-12.7a9 9 0 0 0-8.7 5.8 9 9 0 0 0 2.1 10.3l76 76a9.3 9.3 0 0 0 6.6 2.7c4.8 0 8.7-3.9 8.7-8.7a21 21 0 1 1 42.2 0 51 51 0 0 1-50.9 51Z"/><path fill="#FFF" d="M461 160.8a33 33 0 0 1-23.5-9.7l-76-76a33.3 33.3 0 0 1 5.3-51.3h-55.1A27.5 27.5 0 0 0 285.9 41a27.4 27.4 0 0 0 6 30.4l33 32.8a32.7 32.7 0 0 1 7.1 36.1 32.7 32.7 0 0 1-30.6 20.5h-1a33 33 0 0 1-23.6-9.7l-30.3-30.3a33 33 0 0 1-1.9 19.5 32.7 32.7 0 0 1-30.6 20.5 33 33 0 0 1-23.5-9.7L71.4 31.9a27.7 27.7 0 0 0-19.8-8.2A27.5 27.5 0 0 0 26 41a27.5 27.5 0 0 0 6 30.4l32.9 32.9a32.7 32.7 0 0 1 7.1 36 32.7 32.7 0 0 1-30.6 20.5H26.5a2.6 2.6 0 0 1-2.6-2.6 2.6 2.6 0 0 1 2.6-2.6h14.9c11.5 0 21.3-6.6 25.7-17.2 4.5-10.6 2.1-22.3-6-30.4L28.2 75.1A32.6 32.6 0 0 1 21.1 39a32.6 32.6 0 0 1 30.6-20.5 33 33 0 0 1 23.5 9.7l119.1 119.1a27.7 27.7 0 0 0 19.7 8.2c11.5 0 21.4-6.6 25.8-17.2a27.4 27.4 0 0 0-6-30.3l-85-85a2.6 2.6 0 0 1 0-3.7 2.6 2.6 0 0 1 3.7 0l85 85 43 43a27.7 27.7 0 0 0 19.8 8.2h1c11.6 0 21.4-6.6 25.8-17.2 4.4-10.6 2.1-22.2-6-30.3L288.2 75a32.7 32.7 0 0 1-7.1-36.1 32.7 32.7 0 0 1 30.6-20.5h85.9a2.6 2.6 0 0 1 2.6 2.7 2.6 2.6 0 0 1-2.6 2.6h-12.7A27.5 27.5 0 0 0 359.2 41a27.5 27.5 0 0 0 6 30.4l76 76a27.7 27.7 0 0 0 19.7 8.1c15 0 27.2-12.2 27.2-27.1a2.6 2.6 0 0 1 2.6-2.7 2.6 2.6 0 0 1 2.7 2.7 32.4 32.4 0 0 1-32.5 32.4Z"/></svg>