<svg xmlns="http://www.w3.org/2000/svg" width="695" height="506" fill="none"><g filter="url(#a)"><g clip-path="url(#b)"><path fill="#fff" d="M50 93h595v353H50z" style="fill:#fff;fill-opacity:1"/><g filter="url(#c)"><path fill="#fff" d="M50 50a10 10 0 0 1 10-10h575a10 10 0 0 1 10 10v43H50V50Z" style="fill:#fff;fill-opacity:1"/><g filter="url(#d)"><path fill="#EE6A5F" fill-rule="evenodd" d="M77 72a6 6 0 1 0 0-12 6 6 0 0 0 0 12Z" clip-rule="evenodd" style="fill:#ee6a5f;fill:color(display-p3 .9333 .4157 .3725);fill-opacity:1"/></g><path stroke="#CE5347" stroke-width=".5" d="M82.8 66a5.8 5.8 0 1 1-11.6 0 5.8 5.8 0 0 1 11.5 0Z" style="stroke:#ce5347;stroke:color(display-p3 .8078 .3255 .2784);stroke-opacity:1"/><g filter="url(#e)"><path fill="#F5BD4F" fill-rule="evenodd" d="M97 72a6 6 0 1 0 0-12 6 6 0 0 0 0 12Z" clip-rule="evenodd" style="fill:#f5bd4f;fill:color(display-p3 .9608 .7412 .3098);fill-opacity:1"/></g><path stroke="#D6A243" stroke-width=".5" d="M102.8 66a5.7 5.7 0 1 1-11.5 0 5.7 5.7 0 0 1 11.5 0Z" style="stroke:#d6a243;stroke:color(display-p3 .8392 .6353 .2627);stroke-opacity:1"/><g filter="url(#f)"><path fill="#61C454" fill-rule="evenodd" d="M117 72a6 6 0 1 0 0-12 6 6 0 0 0 0 12Z" clip-rule="evenodd" style="fill:#61c454;fill:color(display-p3 .3804 .7686 .3294);fill-opacity:1"/></g><path stroke="#58A942" stroke-width=".5" d="M122.8 66a5.7 5.7 0 1 1-11.5 0 5.7 5.7 0 0 1 11.5 0Z" style="stroke:#58a942;stroke:color(display-p3 .3451 .6627 .2588);stroke-opacity:1"/><rect width="219" height="22" x="238" y="55" fill="#000" fill-opacity=".1" rx="11" style="fill:#000;fill-opacity:.05"/></g><rect width="175" height="24" x="129" y="214" fill="#F2F2F2" rx="12" style="fill:#f2f2f2;fill:color(display-p3 .949 .949 .949);fill-opacity:1"/><rect width="175" height="23" x="129" y="277" fill="#F2F2F2" rx="11.5" style="fill:#f2f2f2;fill:color(display-p3 .949 .949 .949);fill-opacity:1"/><rect width="175" height="23" x="129" y="339" fill="#F2F2F2" rx="11.5" style="fill:#f2f2f2;fill:color(display-p3 .949 .949 .949);fill-opacity:1"/><rect width="84" height="23" x="220" y="152" fill="#F2F2F2" rx="11.5" style="fill:#f2f2f2;fill:color(display-p3 .949 .949 .949);fill-opacity:1"/><path fill="#4DC800" fill-opacity=".3" d="M371 152h191v174H371z" style="fill:#4dc800;fill:color(display-p3 .302 .7843 0);fill-opacity:.3"/><path fill="#fff" d="M393.1 170h146.7v139.2H393.1z" style="fill:#fff;fill-opacity:1"/><path fill="#78AAD2" fill-opacity=".7" d="M393.1 170h146.7v139.2H393.1z" style="fill:#78aad2;fill:color(display-p3 .4706 .6667 .8235);fill-opacity:.7"/><path fill="#fff" stroke="#fff" d="M445.6 223.8h.1a2 2 0 0 1 1.4-.6 2 2 0 0 1 1.4.6l7.3 7.5a2.1 2.1 0 0 1 .6 1.5 2.2 2.2 0 0 1-.6 1.6 2 2 0 0 1-1.5.6 2 2 0 0 1-1.4-.7l-7.3-7.4a2.2 2.2 0 0 1 0-3Zm39.2 3-7.2 7.5a2 2 0 0 1-2.3.5 2 2 0 0 1-1.1-1.1 2.2 2.2 0 0 1 .4-2.4l7.3-7.5a2 2 0 0 1 3 0v.2a2.1 2.1 0 0 1 .5 1.4 2.2 2.2 0 0 1-.6 1.5Zm-19.6-11.3c.6 0 1 .2 1.5.6.4.4.6 1 .6 1.5v10.6a2 2 0 0 1-.6 1.5 2 2 0 0 1-3 0c-.3-.4-.5-1-.5-1.5v-10.6c0-.5.2-1 .6-1.5a2 2 0 0 1 1.4-.6ZM437.5 244c0-.6.2-1.1.6-1.5a2 2 0 0 1 1.5-.6h10.2c.6 0 1 .2 1.5.6a2.2 2.2 0 0 1 0 3 2 2 0 0 1-1.5.7h-10.2a2 2 0 0 1-1.5-.7c-.4-.4-.6-1-.6-1.5Z" style="fill:#fff;fill-opacity:1;stroke:#fff;stroke-opacity:1"/><g filter="url(#g)"><path fill="#fff" d="M489.4 283.6c.5 1 0 5.3-2.4 6.3-2.5 1-5.6 0-5.6 0l-5.8-11.4-9.8 9.8v-44.5L496 274h-11.3l4.7 9.6Z" style="fill:#fff;fill-opacity:1"/><path fill="#000" fill-rule="evenodd" d="M468.4 250.2v31.7l8-7.9 6.6 13.2s1.8.6 2.6 0c.9-.5 1.7-1.7 1.4-2.6-1.9-4.4-6.7-13.2-6.7-13.2h9.3l-21.2-21.2Z" clip-rule="evenodd" style="fill:#000;fill-opacity:1"/></g><path fill="#377DA0" d="M162.2 163.5a5 5 0 0 1-1.5 3.6 5.3 5.3 0 0 1-7.4 0 5 5 0 0 1 0-7.2 5.3 5.3 0 0 1 7.4 0 5 5 0 0 1 1.5 3.6Zm6.2-24.5c-3.2 0-7.3 2.2-11.4 6-4.2-3.8-8.3-6-11.4-6-1 0-1.9.3-2.6.7-3.2 1.8-4 7.5-2.3 14.6-7 2.1-11.7 5.6-11.7 9.2 0 3.7 4.6 7.1 11.8 9.2-1.7 7.2-1 12.9 2.3 14.7a5 5 0 0 0 2.5.6c3.2 0 7.3-2.2 11.4-6 4.2 3.8 8.3 6 11.5 6 1 0 1.8-.3 2.5-.7 3.2-1.8 4-7.5 2.3-14.6 7-2.1 11.7-5.6 11.7-9.2 0-3.6-4.6-7-11.8-9.2 1.7-7.2 1-12.8-2.3-14.7-.8-.4-1.6-.6-2.5-.6Zm0 2.5c.5 0 1 .1 1.3.3 1.5.9 2.2 4.2 1.7 8.5a34 34 0 0 1-.6 3.3c-2.4-.6-4.8-1-7.3-1.2a55 55 0 0 0-4.7-5.6c3.7-3.4 7.2-5.3 9.6-5.3Zm-22.8 0c2.3 0 5.8 1.9 9.6 5.3a52.8 52.8 0 0 0-4.8 5.6 45 45 0 0 0-7.2 1.2c-.3-1-.5-2.2-.6-3.3-.5-4.2.1-7.6 1.7-8.5.4-.2.9-.2 1.3-.3Zm11.4 7 3.1 3.6a70 70 0 0 0-6.3 0c1-1.3 2.1-2.5 3.2-3.6Zm0 6 5.1.3a60.3 60.3 0 0 1 5.2 8.7 62.2 62.2 0 0 1-5.1 8.8c-3.5.2-7 .3-10.3 0a60.8 60.8 0 0 1-5.2-8.8 57.3 57.3 0 0 1 5.1-8.7 60 60 0 0 1 5.2-.2Zm-8.5.6a57.6 57.6 0 0 0-3.1 5.4 47 47 0 0 1-1.6-4.5l4.7-.9Zm17 0 4.6 1-1.5 4.4-3.1-5.4Zm7.1 1.6 3.2 1.1c4 1.7 6.7 4 6.7 5.7 0 1.8-2.7 4-6.7 5.7-1 .4-2 .8-3.2 1.1-.7-2.3-1.5-4.6-2.5-6.8a57 57 0 0 0 2.5-6.8Zm-31.3 0a53 53 0 0 0 2.6 6.8c-1 2.2-1.8 4.5-2.5 6.8l-3.2-1.1c-4-1.7-6.7-4-6.7-5.7 0-1.8 2.6-4 6.7-5.7 1-.4 2-.8 3.2-1.1Zm27.3 9.8 1.6 4.5-4.7.9c1.1-1.8 2.2-3.6 3.1-5.4Zm-23.2 0a52.8 52.8 0 0 0 3.1 5.4 52 52 0 0 1-4.6-1c.4-1.4.9-2.9 1.5-4.3Zm25.4 6.9.6 3.3c.5 4.2-.1 7.6-1.7 8.5-.3.2-.7.3-1.3.3-2.3 0-5.8-1.9-9.6-5.3a53 53 0 0 0 4.8-5.6c2.5-.2 5-.7 7.2-1.2Zm-27.6 0c2.3.6 4.7 1 7.3 1.2 1.5 2.1 3.1 4 4.7 5.6-3.7 3.4-7.2 5.3-9.6 5.3-.4 0-.9 0-1.3-.3-1.5-.9-2.2-4.2-1.7-8.5l.6-3.3ZM154 175a70.1 70.1 0 0 0 6.3 0c-1 1.3-2.1 2.5-3.2 3.6l-3.2-3.6Z" style="fill:#377da0;fill:color(display-p3 .2157 .4902 .6275);fill-opacity:1"/><g clip-path="url(#h)"><path fill="#fff" d="M0 0h230.1v33H0z" style="fill:#fff;fill-opacity:1" transform="translate(371 329)"/><rect width="230.1" height="33" x="371" y="329" fill="#34373F" rx="3.7" style="fill:#34373f;fill:color(display-p3 .2039 .2157 .2471);fill-opacity:1"/><path fill="#D7D7D7" d="M554.8 348.4c-.3 0-.7 0-1-.2l-.6-.5-.2-.8a1.4 1.4 0 0 1 .5-1c.2-.2.3-.3.5-.3a1 1 0 0 1-.6-.5l-.2-.8c0-.2 0-.5.2-.7.1-.2.3-.4.6-.5l.8-.2c.3 0 .6 0 .8.2.3.1.5.3.6.5.2.2.2.5.2.7 0 .3 0 .6-.2.8a1 1 0 0 1-.6.4l.5.3.4.5.1.6c0 .3 0 .6-.2.8l-.6.5-1 .2Zm0-.6h.6l.4-.4.2-.5c0-.2 0-.4-.2-.5a1 1 0 0 0-.4-.4l-.6-.1h-.6a1 1 0 0 0-.4.5 1 1 0 0 0-.2.5c0 .2 0 .3.2.5l.4.3.6.1Zm0-2.5.5-.1a.9.9 0 0 0 .5-.8l-.1-.5-.4-.3-.5-.1-.5.1c-.2 0-.3.2-.4.3v1l.4.3.5.1Zm4.6 3.1c-.4 0-.8-.1-1-.3a2 2 0 0 1-.7-1l-.2-1.4c0-.6 0-1.1.2-1.5l.7-1c.2-.2.6-.3 1-.3.3 0 .7.1 1 .4l.6.9.2 1.5c0 .5 0 1-.2 1.5a2 2 0 0 1-.6.9c-.3.2-.6.3-1 .3Zm0-.6c.3 0 .7-.2.9-.5.2-.4.3-1 .3-1.6 0-.5 0-.9-.2-1.2 0-.3-.2-.6-.4-.8a1 1 0 0 0-.6-.2c-.4 0-.7.2-1 .6-.2.3-.3.9-.3 1.6 0 .4 0 .8.2 1.1 0 .4.2.6.4.8l.7.2Zm2.8 2v-5.5h.6v.7l.3-.3a1.1 1.1 0 0 1 1-.4 1.6 1.6 0 0 1 1.4 1c.2.3.2.6.2 1 0 .5 0 .8-.2 1.1-.1.4-.3.6-.6.8l-.9.2-.6-.1-.3-.3-.2-.3v2.1h-.7Zm.6-3.5c0 .3 0 .6.2.8 0 .3.2.4.3.6l.7.2.6-.2.4-.6.1-.8-.1-.7c0-.3-.2-.4-.4-.6a1 1 0 0 0-.6-.2 1 1 0 0 0-1 .7l-.2.8Zm4.2-2 1 1.7.9-1.7h.7l-1.3 2 1.3 2h-.7l-1-1.5-1 1.5h-.6l1.2-2-1.2-2h.7Zm6 0 1 1.7 1-1.7h.6l-1.3 2 1.3 2h-.7l-1-1.5-.9 1.5h-.7l1.3-2-1.3-2h.7Zm7.3 4.1c-.4 0-.7 0-1-.2a1 1 0 0 1-.6-.5c-.2-.2-.3-.5-.3-.8a1.4 1.4 0 0 1 .6-1c.1-.2.3-.3.5-.3a1 1 0 0 1-.6-.5c-.2-.2-.3-.5-.3-.8 0-.2.1-.5.3-.7 0-.2.3-.4.5-.5l.9-.2c.3 0 .5 0 .8.2l.6.5.2.7c0 .3-.1.6-.3.8a1 1 0 0 1-.6.4l.6.3.3.5.2.6c0 .3-.1.6-.3.8a1 1 0 0 1-.6.5l-1 .2Zm0-.6h.6l.4-.4.1-.5-.1-.5a1 1 0 0 0-.4-.4l-.6-.1h-.6a1 1 0 0 0-.5.5 1 1 0 0 0-.1.5l.1.5.4.3.7.1Zm0-2.5.5-.1a.9.9 0 0 0 .5-.8c0-.2 0-.4-.2-.5l-.3-.3-.5-.1-.6.1-.3.3-.1.5v.5l.4.3.6.1Zm4.5 3.1c-.4 0-.7-.1-1-.3a2 2 0 0 1-.6-1c-.2-.4-.2-.9-.2-1.4 0-.6 0-1.1.2-1.5.1-.4.3-.7.6-1 .3-.2.6-.3 1-.3s.7.1 1 .4c.3.2.5.5.6.9a4.4 4.4 0 0 1 0 3 2 2 0 0 1-.6.9c-.3.2-.6.3-1 .3Zm0-.6c.4 0 .7-.2 1-.5l.2-1.6-.1-1.2-.4-.8a1 1 0 0 0-.7-.2c-.4 0-.7.2-.9.6-.2.3-.3.9-.3 1.6l.1 1.1.4.8.7.2Zm2.9 2v-5.5h.6v.7l.2-.3.4-.3.6-.1a1.6 1.6 0 0 1 1.5 1l.2 1c0 .5 0 .8-.2 1.1l-.6.8-.9.2-.6-.1-.4-.3a4 4 0 0 1-.2-.3v2.1h-.6Zm.6-3.5.1.8c0 .3.2.4.4.6l.6.2.7-.2.3-.6.2-.8-.1-.7-.4-.6a1 1 0 0 0-.7-.2 1 1 0 0 0-.6.2l-.4.5-.1.8Zm4.1-2 1 1.7 1-1.7h.7l-1.3 2 1.3 2h-.8l-1-1.5-.9 1.5h-.7l1.3-2-1.3-2h.7Z" style="fill:#d7d7d7;fill:color(display-p3 .8431 .8431 .8431);fill-opacity:1"/><path fill="#DF80E0" d="M386 337.1v6.8h-1.3l-.1-.5c-.2.2-.3.4-.6.5l-.8.2c-.5 0-1-.3-1.3-.7-.3-.5-.4-1.1-.4-2 0-.4 0-.9.2-1.3.1-.4.4-.7.7-.9.3-.2.6-.3 1-.3s.8.1 1 .4V337l1.5.1Zm-2.2 2.8c-.3 0-.5.2-.6.4-.2.3-.3.7-.3 1.2l.2 1.2.6.3c.3 0 .6-.2.8-.6v-2l-.3-.4a.7.7 0 0 0-.4 0Zm5.5-3.4c.3 0 .5 0 .6.2l.3.6c0 .3-.1.5-.3.6-.1.2-.3.2-.6.2-.2 0-.4 0-.6-.2a.8.8 0 0 1-.2-.6c0-.2 0-.4.2-.6l.6-.2Zm.9 6.4h1.2v1h-4v-1h1.3V340h-1.3v-1h2.8v4Zm5.5 1H394l-1.7-4.9h1.6l1 3.8 1-3.8h1.4l-1.6 5Zm10.1-7.4c.3 0 .5 0 .6.2l.3.6c0 .3-.1.5-.3.6-.1.2-.3.2-.6.2-.2 0-.4 0-.6-.2a.8.8 0 0 1-.3-.6l.3-.6.6-.2Zm.9 6.4h1.2v1h-4v-1h1.3V340H404v-1h2.8v4Zm2.5-3.9h1.3v.6l.8-.5c.2-.2.5-.2.8-.2.4 0 .7.1 1 .4.2.2.3.6.3 1v3.6H412v-3.1l-.1-.7-.4-.1-.4.1a2 2 0 0 0-.4.4v3.4h-1.5V339Zm15.2.3-3 1.7 3 1.7-.6 1-3.6-2.1v-1l3.6-2.3.6 1Zm4-1.9c.4 0 .8 0 1 .2.4 0 .7.3 1 .5l-.8.9a2 2 0 0 0-1.2-.5c-.5 0-.8.2-1 .6-.3.3-.5.9-.5 1.6 0 .8.2 1.3.4 1.7.3.3.6.5 1.1.5l.7-.1.7-.5.7 1c-.6.5-1.3.8-2.2.8a3 3 0 0 1-1.5-.4c-.5-.3-.8-.6-1-1.1a4 4 0 0 1-.4-1.9c0-.7.1-1.3.4-1.8.2-.5.6-.8 1-1.1a3 3 0 0 1 1.5-.4Zm4.9 1.5c.7 0 1.3.2 1.7.7.5.5.7 1 .7 1.9 0 .8-.2 1.4-.7 1.9a2.4 2.4 0 0 1-3.4 0c-.5-.5-.7-1.1-.7-2 0-.4.1-.9.3-1.3.2-.4.5-.7.8-.9.4-.2.8-.3 1.3-.3Zm0 1c-.3 0-.5.2-.7.4l-.2 1.2.2 1.2c.2.2.4.3.7.3.3 0 .5-.1.7-.4l.2-1.1-.2-1.2a.7.7 0 0 0-.7-.3Zm7-1c.3 0 .6.1.8.3l.2 1.1v3.6h-1.2v-3.8h-.3c-.1 0-.3 0-.5.2v3.6h-1v-3.8h-.2c-.2 0-.4 0-.5.2v3.6h-1.3V339h1l.1.5.5-.5.6-.1.4.1c.2.1.3.3.3.5.3-.4.7-.6 1-.6Zm4.6 0c.6 0 1 .2 1.3.7.3.4.5 1 .5 1.9 0 .5-.1 1-.3 1.3a2 2 0 0 1-.6 1c-.3.2-.6.3-1 .3-.5 0-.9-.2-1.2-.5v2.2l-1.4.2v-7h1.3v.6l.7-.5c.2-.2.4-.2.7-.2Zm-.5 1c-.3 0-.5.2-.8.6v2l.4.4.3.1c.3 0 .5-.1.7-.3l.2-1.2-.2-1.2a.6.6 0 0 0-.6-.3Zm5.4-1c.7 0 1.3.2 1.7.7a3 3 0 0 1 0 3.8c-.4.4-1 .7-1.7.7-.8 0-1.3-.3-1.8-.7a3 3 0 0 1-.6-2c0-.4.1-.9.3-1.3.2-.4.5-.7.8-.9.4-.2.8-.3 1.3-.3Zm0 1c-.3 0-.5.2-.7.4l-.2 1.2c0 .5 0 1 .2 1.2.2.2.4.3.7.3.3 0 .5-.1.6-.4.2-.2.3-.6.3-1.1 0-.6-.1-1-.3-1.2a.7.7 0 0 0-.6-.3Zm3.4-.9h1.2l.1.6.7-.5c.3-.2.6-.2.9-.2.4 0 .7.1 1 .4.2.2.3.6.3 1v3.6h-1.5v-3.8l-.4-.1-.5.1a2 2 0 0 0-.4.4v3.4h-1.4V339Zm6.7 3c.1.6.5 1 1.2 1 .4 0 .8-.1 1.3-.4l.5.8-.8.5-1.1.2c-.6 0-1-.1-1.4-.3-.4-.3-.7-.6-.9-1a3 3 0 0 1-.2-1.3c0-.5 0-1 .2-1.3a2.2 2.2 0 0 1 2.1-1.3c.5 0 .9 0 1.2.3.4.2.6.5.8.8.2.4.3.9.3 1.4v.5h-3.2Zm1-2.1c-.3 0-.5 0-.7.2-.2.2-.3.5-.3 1h1.8c0-.9-.3-1.2-.9-1.2Zm3.3-.9h1.2l.1.6.7-.5c.3-.2.5-.2.9-.2s.7.1 1 .4c.2.2.3.6.3 1v3.6h-1.5v-3.8l-.4-.1-.5.1a2 2 0 0 0-.4.4v3.4h-1.4V339Zm9.8 4.6c-.4.3-1 .5-1.5.5-.7 0-1.1-.2-1.5-.5-.3-.3-.4-.8-.4-1.3V340h-1v-1h1v-1l1.4-.2v1.2h1.6l-.2 1H472v2.3c0 .2 0 .4.2.5l.5.1c.3 0 .6 0 .9-.2l.4 1Zm5.4-3v1l-3.6 2.2-.6-1 3-1.8-3-1.7.6-1 3.6 2.2Zm-95.7 13.6c.3 0 .5 0 .7-.2.2-.1.3-.3.3-.5v-.3l-.4-.3-.8-.2-1.2-.5c-.2-.2-.3-.5-.3-1 0-.4.1-.7.5-1 .3-.2.8-.3 1.4-.3a3 3 0 0 1 1.8.5l-.4.7c-.4-.3-.9-.5-1.4-.5-.6 0-.9.2-.9.6l.1.3.4.2.7.2 1.2.6c.3.2.4.5.4 1 0 .4-.2.8-.6 1-.4.3-1 .5-1.5.5a3 3 0 0 1-2-.7l.5-.6.7.3.8.2Zm7.1-4.3h.8l-.2 1.9h-.8v-1a1 1 0 0 0-.8.4 2 2 0 0 0-.6 1.1v1.8h1v.7h-2.8v-.7h.8v-3.4h-.8v-.7h1.5l.2 1.1.7-1 1-.2Zm4.4 4.2a2 2 0 0 0 1.2-.4l.5.7-.8.4-1 .2c-.6 0-1.2-.3-1.6-.7-.5-.5-.7-1.1-.7-1.9 0-.5.1-.9.3-1.3.2-.4.5-.7.8-.9.4-.2.8-.3 1.3-.3.7 0 1.2.2 1.7.6l-.5.6a2 2 0 0 0-1.2-.4c-.4 0-.7.1-1 .4-.2.3-.3.8-.3 1.3 0 .6.1 1 .4 1.3.2.3.5.4 1 .4Zm2.8 1.3 3.9-8 .8.4-4 8-.7-.4Zm8.2-1.3a2 2 0 0 0 1.2-.4l.5.7-.8.4-1 .2c-.7 0-1.2-.3-1.6-.7-.5-.5-.7-1.1-.7-1.9 0-.5.1-.9.3-1.3.2-.4.5-.7.8-.9.4-.2.8-.3 1.3-.3.6 0 1.2.2 1.7.6l-.5.6a2 2 0 0 0-1.2-.4c-.4 0-.7.1-1 .4-.2.3-.3.8-.3 1.3 0 .6.1 1 .4 1.3.2.3.5.4 1 .4Zm5.1-4.2a2 2 0 0 1 1.6.7c.4.4.6 1 .6 1.8s-.2 1.4-.6 1.9a2 2 0 0 1-1.6.7 2 2 0 0 1-1.6-.7c-.4-.5-.6-1-.6-1.9 0-.8.2-1.4.6-1.8a2 2 0 0 1 1.6-.7Zm0 .8a1 1 0 0 0-.8.4c-.2.3-.3.7-.3 1.3 0 .6.1 1 .3 1.3.2.3.4.5.8.5s.7-.2.8-.5c.2-.3.3-.7.3-1.3 0-.6 0-1-.3-1.3a1 1 0 0 0-.8-.4Zm7-.8c.2 0 .4 0 .6.3.2.2.3.5.3 1v3.6h-1v-4l-.3-.1c-.2 0-.4.1-.7.4v3.7h-.8v-4l-.3-.1c-.3 0-.5.1-.7.4v3.7h-1V350h.8v.5l.6-.5.5-.1c.5 0 .7.2.9.6l.4-.5.6-.1Zm4.4 0c1.2 0 1.8.8 1.8 2.5 0 .8-.2 1.4-.5 1.9-.3.4-.8.7-1.4.7-.5 0-.9-.2-1.2-.6v2.3l-1 .1V350h.9v.6l.7-.5c.2-.2.5-.2.7-.2Zm-.2.8a1 1 0 0 0-.6.1c-.2.2-.4.3-.5.6v2.2c.2.4.6.6 1 .6.3 0 .6-.2.8-.5l.2-1.3c0-.6 0-1-.2-1.3a.8.8 0 0 0-.7-.4Zm5.3-.8a2 2 0 0 1 1.6.7c.4.4.6 1 .6 1.8s-.2 1.4-.6 1.9a2 2 0 0 1-1.6.7 2 2 0 0 1-1.6-.7c-.4-.5-.6-1-.6-1.9 0-.8.2-1.4.6-1.8a2 2 0 0 1 1.6-.7Zm0 .8a1 1 0 0 0-.8.4c-.2.3-.3.7-.3 1.3 0 .6 0 1 .3 1.3.2.3.4.5.8.5s.7-.2.8-.5c.2-.3.3-.7.3-1.3 0-.6 0-1-.3-1.3a1 1 0 0 0-.8-.4Zm3.6-.7h.9v.6a2 2 0 0 1 1.6-.7c.4 0 .8 0 1 .3.2.3.3.6.3 1.1v3.5h-1v-3.7l-.2-.3-.5-.1c-.2 0-.4 0-.6.2a2 2 0 0 0-.5.5v3.4h-1V350Zm6.3 2.7c0 .5.2.9.4 1.1.3.2.6.4 1 .4l.6-.1.6-.4.4.7-.7.4a3 3 0 0 1-1 .2c-.7 0-1.3-.3-1.7-.7-.4-.5-.6-1.1-.6-1.9 0-.5 0-.9.2-1.3l.8-1 1.2-.2a2 2 0 0 1 1.5.6c.4.4.6 1 .6 1.8v.4h-3.3Zm1.2-2a1 1 0 0 0-.8.3c-.2.2-.4.6-.4 1h2.3c0-.4-.2-.8-.3-1a1 1 0 0 0-.8-.4Zm3.5-.7h.8l.1.6a2 2 0 0 1 1.6-.7c.4 0 .8 0 1 .3.2.3.3.6.3 1.1v3.5h-1v-3.7l-.2-.3-.5-.1c-.2 0-.4 0-.6.2a2 2 0 0 0-.5.5v3.4h-1V350Zm9.5 4.6-.6.3h-.8c-.6 0-1 0-1.3-.4-.3-.3-.4-.6-.4-1.1v-2.7h-1.1v-.7h1v-1l1-.2v1.2h1.7v.7h-1.6v2.7c0 .2 0 .4.2.5.1.2.3.2.6.2.4 0 .7 0 1-.2l.3.7Zm1 .8 4-8 .7.4-3.8 8-.9-.4Zm5.5-.6 1.8-2.5-1.6-2.3h1.2l1 1.7 1-1.7h1.1l-1.5 2.2 1.7 2.6H462l-1.2-2-1.1 2h-1.2Zm5.5 0 1.8-2.5-1.6-2.3h1.2l1 1.7 1-1.7h1.1l-1.5 2.2 1.7 2.6h-1.2l-1.2-2-1.1 2h-1.2Zm5.5 0 1.8-2.5-1.6-2.3h1.2l1 1.7 1-1.7h1.1l-1.5 2.2 1.7 2.6H473l-1.2-2-1.1 2h-1.2Zm5.5.6 4-8 .7.4-3.9 8-.8-.4Zm5.5-.6 1.8-2.5-1.6-2.3h1.2l1 1.7 1-1.7h1.1l-1.5 2.2 1.7 2.6H484l-1.2-2-1.1 2h-1.2Zm5.5 0 1.8-2.5-1.6-2.3h1.2l1 1.7 1-1.7h1l-1.4 2.2 1.7 2.6h-1.2l-1.2-2-1.2 2h-1Zm5.5 0 1.7-2.5-1.5-2.3h1.2l1 1.7 1-1.7h1l-1.4 2.2 1.7 2.6H495l-1.2-2-1.2 2h-1Zm7-.7c0-.3 0-.5.2-.7l.6-.2c.3 0 .5 0 .7.2.2.2.2.4.2.7 0 .2 0 .4-.2.6a1 1 0 0 1-.7.3l-.6-.3a.9.9 0 0 1-.2-.6Zm8.5.5-.7.3h-.7c-.6 0-1 0-1.3-.4-.3-.3-.5-.6-.5-1.1v-2.7h-1v-.7h1v-1l1-.2v1.2h1.7l-.1.7h-1.5v2.7c0 .2 0 .4.2.5 0 .2.3.2.6.2s.6 0 .9-.2l.4.7Zm3.2-.4c.3 0 .6 0 .7-.2.2-.1.3-.3.3-.5v-.3l-.4-.3-.7-.2c-.6-.1-1-.3-1.2-.5-.3-.2-.4-.5-.4-1 0-.4.1-.7.5-1 .3-.2.8-.3 1.4-.3a3 3 0 0 1 1.8.5l-.4.7c-.4-.3-.9-.5-1.4-.5-.6 0-.9.2-.9.6l.1.3.4.2.7.2 1.2.6c.3.2.4.5.4 1 0 .4-.2.8-.6 1-.4.3-1 .5-1.5.5a3 3 0 0 1-2-.7l.5-.6.7.3.8.2Zm3.3.6 1.7-2.5-1.5-2.3h1.2l1 1.7 1-1.7h1l-1.4 2.2 1.7 2.6h-1.2l-1.2-2-1.2 2h-1.1Z" style="fill:#df80e0;fill:color(display-p3 .8745 .502 .8784);fill-opacity:1"/><path stroke="#AAA" stroke-width=".9" d="M545.5 334.1v23.8" style="stroke:#aaa;stroke:color(display-p3 .6667 .6667 .6667);stroke-opacity:1"/></g></g></g><defs><filter id="a" width="695" height="506" x="0" y="0" color-interpolation-filters="sRGB" filterUnits="userSpaceOnUse"><feFlood flood-opacity="0" result="BackgroundImageFix"/><feColorMatrix in="SourceAlpha" result="hardAlpha" values="0 0 0 0 0 0 0 0 0 0 0 0 0 0 0 0 0 0 127 0"/><feOffset dy="10"/><feGaussianBlur stdDeviation="25"/><feColorMatrix values="0 0 0 0 0 0 0 0 0 0 0 0 0 0 0 0 0 0 0.2 0"/><feBlend in2="BackgroundImageFix" result="effect1_dropShadow_87_1454"/><feColorMatrix in="SourceAlpha" result="hardAlpha" values="0 0 0 0 0 0 0 0 0 0 0 0 0 0 0 0 0 0 127 0"/><feOffset dy="20"/><feGaussianBlur stdDeviation="15"/><feColorMatrix values="0 0 0 0 0 0 0 0 0 0 0 0 0 0 0 0 0 0 0.1 0"/><feBlend in2="effect1_dropShadow_87_1454" result="effect2_dropShadow_87_1454"/><feBlend in="SourceGraphic" in2="effect2_dropShadow_87_1454" result="shape"/></filter><filter id="c" width="595" height="53.5" x="50" y="40" color-interpolation-filters="sRGB" filterUnits="userSpaceOnUse"><feFlood flood-opacity="0" result="BackgroundImageFix"/><feColorMatrix in="SourceAlpha" result="hardAlpha" values="0 0 0 0 0 0 0 0 0 0 0 0 0 0 0 0 0 0 127 0"/><feOffset dy=".5"/><feColorMatrix values="0 0 0 0 0 0 0 0 0 0 0 0 0 0 0 0 0 0 0.15 0"/><feBlend in2="BackgroundImageFix" result="effect1_dropShadow_87_1454"/><feBlend in="SourceGraphic" in2="effect1_dropShadow_87_1454" result="shape"/><feColorMatrix in="SourceAlpha" result="hardAlpha" values="0 0 0 0 0 0 0 0 0 0 0 0 0 0 0 0 0 0 127 0"/><feOffset dy="-.5"/><feComposite in2="hardAlpha" k2="-1" k3="1" operator="arithmetic"/><feColorMatrix values="0 0 0 0 0 0 0 0 0 0 0 0 0 0 0 0 0 0 0.05 0"/><feBlend in2="shape" result="effect2_innerShadow_87_1454"/></filter><filter id="d" width="12" height="12" x="71" y="60" color-interpolation-filters="sRGB" filterUnits="userSpaceOnUse"><feFlood flood-opacity="0" result="BackgroundImageFix"/><feBlend in="SourceGraphic" in2="BackgroundImageFix" result="shape"/><feColorMatrix in="SourceAlpha" result="hardAlpha" values="0 0 0 0 0 0 0 0 0 0 0 0 0 0 0 0 0 0 127 0"/><feOffset/><feGaussianBlur stdDeviation="3"/><feComposite in2="hardAlpha" k2="-1" k3="1" operator="arithmetic"/><feColorMatrix values="0 0 0 0 0.92549 0 0 0 0 0.427451 0 0 0 0 0.384314 0 0 0 1 0"/><feBlend in2="shape" result="effect1_innerShadow_87_1454"/></filter><filter id="e" width="12" height="12" x="91" y="60" color-interpolation-filters="sRGB" filterUnits="userSpaceOnUse"><feFlood flood-opacity="0" result="BackgroundImageFix"/><feBlend in="SourceGraphic" in2="BackgroundImageFix" result="shape"/><feColorMatrix in="SourceAlpha" result="hardAlpha" values="0 0 0 0 0 0 0 0 0 0 0 0 0 0 0 0 0 0 127 0"/><feOffset/><feGaussianBlur stdDeviation="3"/><feComposite in2="hardAlpha" k2="-1" k3="1" operator="arithmetic"/><feColorMatrix values="0 0 0 0 0.960784 0 0 0 0 0.768627 0 0 0 0 0.317647 0 0 0 1 0"/><feBlend in2="shape" result="effect1_innerShadow_87_1454"/></filter><filter id="f" width="12" height="12" x="111" y="60" color-interpolation-filters="sRGB" filterUnits="userSpaceOnUse"><feFlood flood-opacity="0" result="BackgroundImageFix"/><feBlend in="SourceGraphic" in2="BackgroundImageFix" result="shape"/><feColorMatrix in="SourceAlpha" result="hardAlpha" values="0 0 0 0 0 0 0 0 0 0 0 0 0 0 0 0 0 0 127 0"/><feOffset/><feGaussianBlur stdDeviation="3"/><feComposite in2="hardAlpha" k2="-1" k3="1" operator="arithmetic"/><feColorMatrix values="0 0 0 0 0.407843 0 0 0 0 0.8 0 0 0 0 0.345098 0 0 0 1 0"/><feBlend in2="shape" result="effect1_innerShadow_87_1454"/></filter><filter id="g" width="33.8" height="50.1" x="464" y="243" color-interpolation-filters="sRGB" filterUnits="userSpaceOnUse"><feFlood flood-opacity="0" result="BackgroundImageFix"/><feColorMatrix in="SourceAlpha" result="hardAlpha" values="0 0 0 0 0 0 0 0 0 0 0 0 0 0 0 0 0 0 127 0"/><feOffset dy="1"/><feGaussianBlur stdDeviation=".9"/><feColorMatrix values="0 0 0 0 0 0 0 0 0 0 0 0 0 0 0 0 0 0 0.65 0"/><feBlend in2="BackgroundImageFix" result="effect1_dropShadow_87_1454"/><feBlend in="SourceGraphic" in2="effect1_dropShadow_87_1454" result="shape"/></filter><clipPath id="b"><rect width="595" height="406" x="50" y="40" fill="#fff" rx="10" style="fill:#fff;fill-opacity:1"/></clipPath><clipPath id="h"><path fill="#fff" d="M0 0h230.1v33H0z" style="fill:#fff;fill-opacity:1" transform="translate(371 329)"/></clipPath></defs></svg>