<svg xmlns="http://www.w3.org/2000/svg" width="695" height="506" fill="none"><g filter="url(#a)"><g clip-path="url(#b)"><path fill="#fff" d="M50 93h595v353H50z" style="fill:#fff;fill-opacity:1"/><g filter="url(#c)"><path fill="#fff" d="M50 50a10 10 0 0 1 10-10h575a10 10 0 0 1 10 10v43H50V50Z" style="fill:#fff;fill-opacity:1"/><g filter="url(#d)"><path fill="#EE6A5F" fill-rule="evenodd" d="M77 72a6 6 0 1 0 0-12 6 6 0 0 0 0 12Z" clip-rule="evenodd" style="fill:#ee6a5f;fill:color(display-p3 .9333 .4157 .3725);fill-opacity:1"/></g><path stroke="#CE5347" stroke-width=".5" d="M82.8 66a5.8 5.8 0 1 1-11.6 0 5.8 5.8 0 0 1 11.5 0Z" style="stroke:#ce5347;stroke:color(display-p3 .8078 .3255 .2784);stroke-opacity:1"/><g filter="url(#e)"><path fill="#F5BD4F" fill-rule="evenodd" d="M97 72a6 6 0 1 0 0-12 6 6 0 0 0 0 12Z" clip-rule="evenodd" style="fill:#f5bd4f;fill:color(display-p3 .9608 .7412 .3098);fill-opacity:1"/></g><path stroke="#D6A243" stroke-width=".5" d="M102.8 66a5.7 5.7 0 1 1-11.5 0 5.7 5.7 0 0 1 11.5 0Z" style="stroke:#d6a243;stroke:color(display-p3 .8392 .6353 .2627);stroke-opacity:1"/><g filter="url(#f)"><path fill="#61C454" fill-rule="evenodd" d="M117 72a6 6 0 1 0 0-12 6 6 0 0 0 0 12Z" clip-rule="evenodd" style="fill:#61c454;fill:color(display-p3 .3804 .7686 .3294);fill-opacity:1"/></g><path stroke="#58A942" stroke-width=".5" d="M122.8 66a5.7 5.7 0 1 1-11.5 0 5.7 5.7 0 0 1 11.5 0Z" style="stroke:#58a942;stroke:color(display-p3 .3451 .6627 .2588);stroke-opacity:1"/><rect width="219" height="22" x="238" y="55" fill="#000" fill-opacity=".1" rx="11" style="fill:#000;fill-opacity:.05"/></g><rect width="198" height="24" x="129" y="166" fill="#F2F2F2" rx="12" style="fill:#f2f2f2;fill:color(display-p3 .949 .949 .949);fill-opacity:1"/><rect width="198" height="23" x="129" y="217" fill="#F2F2F2" rx="11.5" style="fill:#f2f2f2;fill:color(display-p3 .949 .949 .949);fill-opacity:1"/><rect width="111" height="23" x="129" y="267" fill="#F2F2F2" rx="11.5" style="fill:#f2f2f2;fill:color(display-p3 .949 .949 .949);fill-opacity:1"/><rect width="111" height="23" x="129" y="317" fill="#F2F2F2" rx="11.5" style="fill:#f2f2f2;fill:color(display-p3 .949 .949 .949);fill-opacity:1"/><path fill="#4DC800" fill-opacity=".3" d="M371 166h191v174H371z" style="fill:#4dc800;fill:color(display-p3 .302 .7843 0);fill-opacity:.3"/><path fill="#fff" d="M393.1 184h146.7v139.2H393.1z" style="fill:#fff;fill-opacity:1"/><path fill="#78AAD2" fill-opacity=".7" d="M393.1 184h146.7v139.2H393.1z" style="fill:#78aad2;fill:color(display-p3 .4706 .6667 .8235);fill-opacity:.7"/><path fill="#fff" stroke="#fff" d="M445.6 237.8h.1a2 2 0 0 1 1.4-.6 2 2 0 0 1 1.4.6l7.3 7.5a2.1 2.1 0 0 1 .6 1.5 2.2 2.2 0 0 1-.6 1.6 2 2 0 0 1-1.5.6 2 2 0 0 1-1.4-.7l-7.3-7.4a2.2 2.2 0 0 1 0-3Zm39.2 3-7.2 7.5a2 2 0 0 1-2.3.5 2 2 0 0 1-1.1-1.1 2.2 2.2 0 0 1 .4-2.4l7.3-7.5a2 2 0 0 1 3 0v.2a2.1 2.1 0 0 1 .5 1.4 2.2 2.2 0 0 1-.6 1.5Zm-19.6-11.3c.6 0 1 .2 1.5.6.4.4.6 1 .6 1.5v10.6c0 .6-.2 1.1-.6 1.5a2 2 0 0 1-3 0c-.3-.4-.5-1-.5-1.5v-10.6c0-.5.2-1 .6-1.5a2 2 0 0 1 1.4-.6ZM437.5 258c0-.6.2-1.1.6-1.5a2 2 0 0 1 1.5-.6h10.2c.6 0 1 .2 1.5.6a2.2 2.2 0 0 1 0 3 2 2 0 0 1-1.5.7h-10.2a2 2 0 0 1-1.5-.7c-.4-.4-.6-1-.6-1.5Z" style="fill:#fff;fill-opacity:1;stroke:#fff;stroke-opacity:1"/><g filter="url(#g)"><path fill="#fff" d="M489.4 297.6c.5 1 0 5.3-2.4 6.3-2.5 1-5.6 0-5.6 0l-5.8-11.4-9.8 9.8v-44.5L496 288h-11.3l4.7 9.6Z" style="fill:#fff;fill-opacity:1"/><path fill="#000" fill-rule="evenodd" d="M468.4 264.2v31.7l8-7.9 6.6 13.2s1.8.6 2.6 0c.9-.5 1.7-1.7 1.4-2.6-1.9-4.4-6.7-13.2-6.7-13.2h9.3l-21.2-21.2Z" clip-rule="evenodd" style="fill:#000;fill-opacity:1"/></g></g></g><defs><filter id="a" width="695" height="506" x="0" y="0" color-interpolation-filters="sRGB" filterUnits="userSpaceOnUse"><feFlood flood-opacity="0" result="BackgroundImageFix"/><feColorMatrix in="SourceAlpha" result="hardAlpha" values="0 0 0 0 0 0 0 0 0 0 0 0 0 0 0 0 0 0 127 0"/><feOffset dy="10"/><feGaussianBlur stdDeviation="25"/><feColorMatrix values="0 0 0 0 0 0 0 0 0 0 0 0 0 0 0 0 0 0 0.2 0"/><feBlend in2="BackgroundImageFix" result="effect1_dropShadow_16_429"/><feColorMatrix in="SourceAlpha" result="hardAlpha" values="0 0 0 0 0 0 0 0 0 0 0 0 0 0 0 0 0 0 127 0"/><feOffset dy="20"/><feGaussianBlur stdDeviation="15"/><feColorMatrix values="0 0 0 0 0 0 0 0 0 0 0 0 0 0 0 0 0 0 0.3 0"/><feBlend in2="effect1_dropShadow_16_429" result="effect2_dropShadow_16_429"/><feColorMatrix in="SourceAlpha" result="hardAlpha" values="0 0 0 0 0 0 0 0 0 0 0 0 0 0 0 0 0 0 127 0"/><feOffset/><feGaussianBlur stdDeviation=".5"/><feColorMatrix values="0 0 0 0 0 0 0 0 0 0 0 0 0 0 0 0 0 0 0.7 0"/><feBlend in2="effect2_dropShadow_16_429" result="effect3_dropShadow_16_429"/><feBlend in="SourceGraphic" in2="effect3_dropShadow_16_429" result="shape"/></filter><filter id="c" width="595" height="53.5" x="50" y="40" color-interpolation-filters="sRGB" filterUnits="userSpaceOnUse"><feFlood flood-opacity="0" result="BackgroundImageFix"/><feColorMatrix in="SourceAlpha" result="hardAlpha" values="0 0 0 0 0 0 0 0 0 0 0 0 0 0 0 0 0 0 127 0"/><feOffset dy=".5"/><feColorMatrix values="0 0 0 0 0 0 0 0 0 0 0 0 0 0 0 0 0 0 0.15 0"/><feBlend in2="BackgroundImageFix" result="effect1_dropShadow_16_429"/><feBlend in="SourceGraphic" in2="effect1_dropShadow_16_429" result="shape"/><feColorMatrix in="SourceAlpha" result="hardAlpha" values="0 0 0 0 0 0 0 0 0 0 0 0 0 0 0 0 0 0 127 0"/><feOffset dy="-.5"/><feComposite in2="hardAlpha" k2="-1" k3="1" operator="arithmetic"/><feColorMatrix values="0 0 0 0 0 0 0 0 0 0 0 0 0 0 0 0 0 0 0.05 0"/><feBlend in2="shape" result="effect2_innerShadow_16_429"/></filter><filter id="d" width="12" height="12" x="71" y="60" color-interpolation-filters="sRGB" filterUnits="userSpaceOnUse"><feFlood flood-opacity="0" result="BackgroundImageFix"/><feBlend in="SourceGraphic" in2="BackgroundImageFix" result="shape"/><feColorMatrix in="SourceAlpha" result="hardAlpha" values="0 0 0 0 0 0 0 0 0 0 0 0 0 0 0 0 0 0 127 0"/><feOffset/><feGaussianBlur stdDeviation="3"/><feComposite in2="hardAlpha" k2="-1" k3="1" operator="arithmetic"/><feColorMatrix values="0 0 0 0 0.92549 0 0 0 0 0.427451 0 0 0 0 0.384314 0 0 0 1 0"/><feBlend in2="shape" result="effect1_innerShadow_16_429"/></filter><filter id="e" width="12" height="12" x="91" y="60" color-interpolation-filters="sRGB" filterUnits="userSpaceOnUse"><feFlood flood-opacity="0" result="BackgroundImageFix"/><feBlend in="SourceGraphic" in2="BackgroundImageFix" result="shape"/><feColorMatrix in="SourceAlpha" result="hardAlpha" values="0 0 0 0 0 0 0 0 0 0 0 0 0 0 0 0 0 0 127 0"/><feOffset/><feGaussianBlur stdDeviation="3"/><feComposite in2="hardAlpha" k2="-1" k3="1" operator="arithmetic"/><feColorMatrix values="0 0 0 0 0.960784 0 0 0 0 0.768627 0 0 0 0 0.317647 0 0 0 1 0"/><feBlend in2="shape" result="effect1_innerShadow_16_429"/></filter><filter id="f" width="12" height="12" x="111" y="60" color-interpolation-filters="sRGB" filterUnits="userSpaceOnUse"><feFlood flood-opacity="0" result="BackgroundImageFix"/><feBlend in="SourceGraphic" in2="BackgroundImageFix" result="shape"/><feColorMatrix in="SourceAlpha" result="hardAlpha" values="0 0 0 0 0 0 0 0 0 0 0 0 0 0 0 0 0 0 127 0"/><feOffset/><feGaussianBlur stdDeviation="3"/><feComposite in2="hardAlpha" k2="-1" k3="1" operator="arithmetic"/><feColorMatrix values="0 0 0 0 0.407843 0 0 0 0 0.8 0 0 0 0 0.345098 0 0 0 1 0"/><feBlend in2="shape" result="effect1_innerShadow_16_429"/></filter><filter id="g" width="33.8" height="50.1" x="464" y="257" color-interpolation-filters="sRGB" filterUnits="userSpaceOnUse"><feFlood flood-opacity="0" result="BackgroundImageFix"/><feColorMatrix in="SourceAlpha" result="hardAlpha" values="0 0 0 0 0 0 0 0 0 0 0 0 0 0 0 0 0 0 127 0"/><feOffset dy="1"/><feGaussianBlur stdDeviation=".9"/><feColorMatrix values="0 0 0 0 0 0 0 0 0 0 0 0 0 0 0 0 0 0 0.65 0"/><feBlend in2="BackgroundImageFix" result="effect1_dropShadow_16_429"/><feBlend in="SourceGraphic" in2="effect1_dropShadow_16_429" result="shape"/></filter><clipPath id="b"><rect width="595" height="406" x="50" y="40" fill="#fff" rx="10" style="fill:#fff;fill-opacity:1"/></clipPath></defs></svg>