<svg xmlns="http://www.w3.org/2000/svg" width="1367" height="443" fill="none"><rect width="1367" height="443" fill="#fff" fill-opacity=".9" rx="20" style="fill:#fff;fill-opacity:.9"/><g filter="url(#a)"><rect width="456" height="311.2" x="852" y="72" fill="#fff" rx="10" style="fill:#fff;fill-opacity:1"/><path fill="#fff" d="M852 112.6h456V373a10 10 0 0 1-10 10H862a10 10 0 0 1-10-10V112.6Z" style="fill:#fff;fill-opacity:1"/><g filter="url(#b)"><path fill="#fff" d="M852 79.7c0-4.3 3.4-7.7 7.7-7.7h440.6c4.3 0 7.7 3.4 7.7 7.7v33H852v-33Z" style="fill:#fff;fill-opacity:1"/><g filter="url(#c)"><path fill="#EE6A5F" fill-rule="evenodd" d="M872.7 96.5a4.6 4.6 0 1 0 0-9.2 4.6 4.6 0 0 0 0 9.2Z" clip-rule="evenodd" style="fill:#ee6a5f;fill:color(display-p3 .9333 .4157 .3725);fill-opacity:1"/></g><path stroke="#CE5347" stroke-width=".4" d="M877.1 92a4.4 4.4 0 1 1-8.8 0 4.4 4.4 0 0 1 8.8 0Z" style="stroke:#ce5347;stroke:color(display-p3 .8078 .3255 .2784);stroke-opacity:1"/><g filter="url(#d)"><path fill="#F5BD4F" fill-rule="evenodd" d="M888 96.5a4.6 4.6 0 1 0 0-9.2 4.6 4.6 0 0 0 0 9.2Z" clip-rule="evenodd" style="fill:#f5bd4f;fill:color(display-p3 .9608 .7412 .3098);fill-opacity:1"/></g><path stroke="#D6A243" stroke-width=".4" d="M892.4 92a4.4 4.4 0 1 1-8.8 0 4.4 4.4 0 0 1 8.8 0Z" style="stroke:#d6a243;stroke:color(display-p3 .8392 .6353 .2627);stroke-opacity:1"/><g filter="url(#e)"><path fill="#61C454" fill-rule="evenodd" d="M903.3 96.5a4.6 4.6 0 1 0 0-9.2 4.6 4.6 0 0 0 0 9.2Z" clip-rule="evenodd" style="fill:#61c454;fill:color(display-p3 .3804 .7686 .3294);fill-opacity:1"/></g><path stroke="#58A942" stroke-width=".4" d="M907.8 92a4.4 4.4 0 1 1-8.9 0 4.4 4.4 0 0 1 8.9 0Z" style="stroke:#58a942;stroke:color(display-p3 .3451 .6627 .2588);stroke-opacity:1"/><rect width="167.8" height="16.9" x="996.1" y="83.5" fill="#000" fill-opacity=".1" rx="8.4" style="fill:#000;fill-opacity:.05"/></g><rect width="134.1" height="18.4" x="912.5" y="205.4" fill="#F2F2F2" rx="9.2" style="fill:#f2f2f2;fill:color(display-p3 .949 .949 .949);fill-opacity:1"/><rect width="134.1" height="17.6" x="912.5" y="253.6" fill="#F2F2F2" rx="8.8" style="fill:#f2f2f2;fill:color(display-p3 .949 .949 .949);fill-opacity:1"/><rect width="134.1" height="17.6" x="912.5" y="301.1" fill="#F2F2F2" rx="8.8" style="fill:#f2f2f2;fill:color(display-p3 .949 .949 .949);fill-opacity:1"/><rect width="64.4" height="17.6" x="982.3" y="157.8" fill="#F2F2F2" rx="8.8" style="fill:#f2f2f2;fill:color(display-p3 .949 .949 .949);fill-opacity:1"/><path fill="#4DC800" fill-opacity=".3" d="M1098 157.8h146.4v133.4H1098z" style="fill:#4dc800;fill:color(display-p3 .302 .7843 0);fill-opacity:.3"/><path fill="#fff" d="M1115 171.7h112.5v106.7H1115z" style="fill:#fff;fill-opacity:1"/><path fill="#78AAD2" fill-opacity=".7" d="M1115 171.7h112.5v106.7H1115z" style="fill:#78aad2;fill:color(display-p3 .4706 .6667 .8235);fill-opacity:.7"/><path fill="#fff" stroke="#fff" stroke-width=".8" d="m1163.3 218.3-5.6-5.7a2 2 0 0 0-2.5-.2m8 6-8-6m8 6c.3.1.4.4.5.6l.2.8a2.1 2.1 0 0 1-.6 1.4 2 2 0 0 1-2.2.5 2 2 0 0 1-.6-.5l-5.6-5.7a2 2 0 0 1 0-2.9l8.4 5.8Zm-8-6h-.1v.1l-.2.1.3.3.1-.1.2-.2-.3-.2Zm0 2.8-.3.3.3-.3Zm30 0-5.5 5.7a1.5 1.5 0 0 1-1.8.4c-.2 0-.3-.2-.5-.3a1.8 1.8 0 0 1-.5-1.2c0-.2 0-.4.2-.6l.3-.6 5.6-5.7c.3-.3.7-.5 1.1-.5.4 0 .8.2 1.1.5l.1.1.3.4.1.7a1.7 1.7 0 0 1-.5 1.1Zm-15-8.7a1.7 1.7 0 0 1 1.6 1.6v8.1c0 .5-.2.9-.5 1.2-.3.3-.7.5-1 .5a1.7 1.7 0 0 1-1.6-1.6V208c0-.4.1-.8.4-1.1.3-.3.7-.5 1.1-.5Zm-21.2 21.9c0-.5.1-.9.4-1.2.3-.3.7-.5 1.2-.5h7.8c.4 0 .8.2 1.1.5a1.7 1.7 0 0 1 0 2.3c-.3.3-.7.5-1 .5h-8c-.4 0-.8-.2-1-.5-.4-.3-.5-.7-.5-1.1Z" style="fill:#fff;fill-opacity:1;stroke:#fff;stroke-opacity:1"/><g filter="url(#f)"><path fill="#fff" d="M1188.4 259c.3 1 0 4.2-1.9 5-1.9.7-4.3 0-4.3 0l-4.4-8.8-7.5 7.5v-34.1l23.1 23.2h-8.6l3.6 7.3Z" style="fill:#fff;fill-opacity:1"/><path fill="#000" fill-rule="evenodd" d="M1172.3 233.5v24.3l6-6 5.2 10.1s1.3.4 2 0c.6-.4 1.3-1.3 1-2-1.4-3.4-5-10.2-5-10.2h7l-16.2-16.2Z" clip-rule="evenodd" style="fill:#000;fill-opacity:1"/></g><path fill="#377DA0" d="M938 166.7c0 1-.4 2-1.2 2.7a4 4 0 0 1-5.6 0 3.9 3.9 0 0 1 0-5.5 4 4 0 0 1 5.6 0c.8.7 1.2 1.7 1.2 2.8Zm4.7-18.8c-2.4 0-5.5 1.7-8.7 4.6-3.2-3-6.3-4.6-8.8-4.6a4 4 0 0 0-2 .5c-2.4 1.4-3 5.7-1.7 11.2-5.4 1.6-9 4.3-9 7 0 2.8 3.6 5.5 9 7.1-1.2 5.5-.6 9.9 1.8 11.2.6.4 1.3.5 2 .5 2.4 0 5.6-1.7 8.7-4.6 3.2 3 6.4 4.6 8.8 4.6a4 4 0 0 0 2-.5c2.4-1.4 3-5.7 1.7-11.2 5.4-1.6 9-4.3 9-7 0-2.8-3.6-5.5-9-7.1 1.2-5.5.6-9.8-1.8-11.2a4 4 0 0 0-2-.5Zm0 1.9c.4 0 .7 0 1 .2 1.2.7 1.7 3.2 1.3 6.5 0 .8-.2 1.7-.4 2.6-1.9-.5-3.7-.8-5.6-1a42 42 0 0 0-3.6-4.3c2.8-2.6 5.5-4 7.3-4Zm-17.5 0c1.9 0 4.5 1.4 7.4 4a40.5 40.5 0 0 0-3.6 4.3 41 41 0 0 0-5.6 1l-.4-2.5c-.4-3.3 0-5.9 1.2-6.5l1-.3Zm8.8 5.4 2.4 2.7a54 54 0 0 0-4.8 0l2.4-2.7Zm0 4.6c1.3 0 2.6 0 4 .2a46.4 46.4 0 0 1 3.9 6.6 47.3 47.3 0 0 1-4 6.8c-2.6.2-5.2.2-7.8 0a47 47 0 0 1-4-6.7 43.9 43.9 0 0 1 4-6.7c1.3-.2 2.6-.2 3.9-.2Zm-6.5.4a44.8 44.8 0 0 0-2.4 4.1c-.5-1.1-.9-2.3-1.2-3.4l3.6-.7Zm13 0 3.6.7-1.2 3.4c-.7-1.4-1.5-2.7-2.4-4Zm5.5 1.2 2.4.9c3.1 1.3 5.1 3 5.1 4.4 0 1.3-2 3-5 4.3l-2.5.9c-.5-1.8-1.2-3.6-2-5.3.8-1.8 1.5-3.5 2-5.2Zm-24 0c.5 1.7 1.2 3.5 2 5.3a40 40 0 0 0-2 5.2l-2.4-.9c-3.1-1.3-5.1-3-5.1-4.3 0-1.4 2-3.1 5-4.4l2.5-.9ZM943 169c.5 1.1.9 2.3 1.2 3.4a38 38 0 0 1-3.6.7c.9-1.4 1.7-2.7 2.4-4.1Zm-17.8 0a39.3 39.3 0 0 0 2.4 4 40 40 0 0 1-3.6-.6 38 38 0 0 1 1.2-3.4Zm19.5 5.2.4 2.5c.5 3.3 0 5.9-1.2 6.6a2 2 0 0 1-1 .2c-1.8 0-4.5-1.4-7.4-4 1.2-1.3 2.5-2.7 3.6-4.3 2-.2 3.9-.5 5.6-1Zm-21.2 0c1.8.5 3.6.8 5.6 1 1.2 1.6 2.4 3 3.6 4.3-2.8 2.6-5.5 4-7.3 4-.4 0-.7 0-1-.2-1.2-.7-1.7-3.2-1.3-6.5 0-.8.2-1.7.4-2.5Zm8.2 1.2a54.1 54.1 0 0 0 4.8 0L934 178l-2.4-2.7Z" style="fill:#377da0;fill:color(display-p3 .2157 .4902 .6275);fill-opacity:1"/><g clip-path="url(#g)"><path fill="#fff" d="M0 0h176.3v25.3H0z" style="fill:#fff;fill-opacity:1" transform="translate(1098 293.5)"/><rect width="176.3" height="25.3" x="1098" y="293.5" fill="#34373F" rx="2.8" style="fill:#34373f;fill:color(display-p3 .2039 .2157 .2471);fill-opacity:1"/><path fill="#D7D7D7" d="M1239.9 305.7c0 .2 0 .4-.2.5 0 .2-.2.3-.5.4.3.1.5.3.6.5.2.1.2.3.2.6a1 1 0 0 1-.6 1h-1.5a1 1 0 0 1-.6-1c0-.5.3-.8.8-1-.3-.1-.4-.3-.5-.4a.9.9 0 0 1-.1-.5l.1-.6c.2-.1.3-.3.5-.3a1.5 1.5 0 0 1 1.2 0c.2 0 .3.2.4.3l.2.5Zm-1.8 0v.4l.3.2.4.2.4-.3v-.8a.6.6 0 0 0-.5-.2c-.2 0-.4 0-.5.2l-.1.4Zm1.3 2-.1-.4-.3-.2a5 5 0 0 0-.5-.3c-.4.2-.5.5-.5.9l.1.4.6.2c.2 0 .4 0 .5-.2l.2-.4Zm2.3-3c.4 0 .7.2 1 .6.2.3.3.8.3 1.5 0 .6-.1 1.1-.4 1.5a1 1 0 0 1-1 .5 1 1 0 0 1-1-.5c-.2-.4-.3-.9-.3-1.5 0-.7.1-1.2.4-1.5a1 1 0 0 1 1-.6Zm0 .5c-.3 0-.5.2-.6.4l-.1 1.2.1 1.1c.2.3.3.4.6.4.2 0 .3-.1.5-.4l.1-1.1-.1-1.2c-.2-.2-.3-.4-.5-.4Zm0 1.2.2.1.1.3v.2l-.3.1h-.3a.4.4 0 0 1 0-.6l.3-.1Zm3.2-.7c.7 0 1 .5 1 1.5 0 .5 0 .9-.2 1.2a1 1 0 0 1-.9.4 1 1 0 0 1-.7-.3v1.3l-.7.1v-4.2h.6v.4l.4-.3.5-.1Zm-.2.4c-.1 0-.2 0-.3.2-.2 0-.3.1-.3.3v1.4c.1.2.3.3.6.3.2 0 .3-.1.4-.3.2-.1.2-.4.2-.8l-.1-.8a.5.5 0 0 0-.5-.3Zm1.5 2.6 1-1.6-1-1.4h.8l.6 1 .6-1h.7l-1 1.4 1.1 1.6h-.7l-.7-1.2-.7 1.2h-.7Zm6 0 1-1.6-1-1.4h.8l.6 1 .6-1h.7l-1 1.4 1.1 1.6h-.7l-.8-1.2-.7 1.2h-.7Zm8.5-3-.1.5-.5.4.6.5.2.6c0 .2 0 .4-.2.5l-.5.4-.7.2c-.3 0-.5 0-.7-.2-.2 0-.4-.2-.5-.4a1 1 0 0 1-.2-.5c0-.5.3-.8.8-1l-.5-.4a1 1 0 0 1-.1-.5c0-.2 0-.4.2-.6 0-.1.2-.3.4-.3l.6-.2c.2 0 .4 0 .6.2.2 0 .3.2.5.3l.1.5Zm-1.8 0v.4l.3.2c.1 0 .3 0 .5.2l.3-.3.1-.4-.1-.4-.5-.2c-.2 0-.3 0-.4.2l-.2.4Zm1.3 2v-.4l-.4-.2-.5-.3c-.3.2-.5.5-.5.9 0 .2 0 .3.2.4l.5.2c.2 0 .4 0 .5-.2.2-.1.2-.2.2-.4Zm2.3-3c.4 0 .7.2 1 .6.2.3.3.8.3 1.5 0 .6-.1 1.1-.3 1.5-.3.3-.6.5-1 .5-.5 0-.8-.2-1-.5-.2-.4-.3-.9-.3-1.5 0-.7 0-1.2.3-1.5.2-.4.5-.6 1-.6Zm0 .5c-.2 0-.4.2-.5.4a3 3 0 0 0-.2 1.2c0 .5 0 .9.2 1.1 0 .3.3.4.5.4s.4-.1.5-.4l.2-1.1c0-.6 0-1-.2-1.2-.1-.2-.3-.4-.5-.4Zm0 1.2.3.1v.5l-.3.1h-.3v-.6l.3-.1Zm3.2-.7c.8 0 1.1.5 1.1 1.5 0 .5 0 .9-.3 1.2a1 1 0 0 1-.8.4 1 1 0 0 1-.8-.3v1.3l-.6.1v-4.2h.5v.4l.5-.3.4-.1Zm-.2.4s-.2 0-.3.2a1 1 0 0 0-.3.3v1.4c.1.2.3.3.6.3.2 0 .4-.1.5-.3l.1-.8-.1-.8a.5.5 0 0 0-.5-.3Zm1.5 2.6 1-1.6-.9-1.4h.7l.6 1 .6-1h.7l-.9 1.4 1 1.6h-.6l-.8-1.2-.7 1.2h-.7Z" style="fill:#d7d7d7;fill:color(display-p3 .8431 .8431 .8431);fill-opacity:1"/><path fill="#DF80E0" d="M1109.5 299.6v5.2h-1v-.4a1.2 1.2 0 0 1-1.1.5c-.5 0-.8-.2-1-.5-.3-.4-.4-.9-.4-1.5 0-.4 0-.7.2-1l.5-.7c.3-.2.5-.3.8-.3.3 0 .6.1.8.4v-1.8h1.2Zm-1.7 2.1c-.2 0-.4.1-.5.3l-.1 1 .1.8c.1.2.3.3.4.3.3 0 .5-.2.6-.4V302l-.2-.3h-.3Zm4.3-2.6c.1 0 .3 0 .4.2l.2.4c0 .2 0 .4-.2.5l-.5.2-.4-.2a.6.6 0 0 1-.2-.5c0-.1 0-.3.2-.4l.5-.2Zm.6 5h1v.7h-3.2v-.8h1.1v-2.2h-1v-.7h2.1v3Zm4.2.7h-1.3l-1.2-3.7h1.2l.7 2.8.8-2.8h1l-1.2 3.7Zm7.8-5.7c.2 0 .3 0 .5.2l.1.4-.1.5-.5.2-.5-.2a.6.6 0 0 1-.2-.5c0-.1 0-.3.2-.4l.5-.2Zm.7 5h1v.7h-3.2v-.8h1v-2.2h-1v-.7h2.2v3Zm1.9-3h1v.4l.6-.4.6-.2c.3 0 .6.1.8.3l.2.8v2.8h-1v-2.4c0-.3-.1-.4-.2-.5l-.3-.1h-.3l-.3.4v2.6h-1.1V301Zm11.7.1-2.3 1.4 2.3 1.3-.5.8-2.8-1.7v-.8l2.8-1.7.5.7Zm3-1.4.8.1.7.4-.5.7c-.3-.2-.7-.4-1-.4a1 1 0 0 0-.8.5c-.2.3-.3.7-.3 1.2 0 .6 0 1 .3 1.3.2.3.5.4.8.4l.6-.1.5-.3.5.6c-.5.5-1 .7-1.7.7-.4 0-.8 0-1.1-.3a2 2 0 0 1-.8-.9c-.2-.3-.3-.8-.3-1.4 0-.5 0-1 .3-1.3.2-.4.4-.7.8-1l1.2-.2Zm3.8 1.1c.5 0 1 .2 1.3.6.3.3.5.8.5 1.4 0 .6-.2 1.1-.5 1.5-.3.3-.8.5-1.3.5-.6 0-1-.2-1.4-.5-.3-.4-.5-.9-.5-1.5 0-.4.1-.7.3-1 .1-.3.3-.6.6-.7.3-.2.6-.3 1-.3Zm0 .9c-.3 0-.4 0-.5.2-.2.2-.2.5-.2 1 0 .3 0 .6.2.8 0 .2.2.3.5.3.2 0 .4-.1.5-.3l.1-.9-.1-.9a.5.5 0 0 0-.5-.2Zm5.3-.9c.3 0 .5.1.6.3l.2.8v2.8h-1v-2.9l-.1-.1c-.2 0-.3 0-.4.2v2.8h-.8v-2.9l-.2-.1c-.1 0-.3 0-.4.2v2.8h-1V301h.9v.3l.4-.4h.8l.2.4c.3-.3.5-.5.8-.5Zm3.5 0c.5 0 .8.2 1 .5.3.4.4.9.4 1.5 0 .4 0 .7-.2 1 0 .3-.3.6-.5.8l-.7.2c-.4 0-.7-.1-1-.4v1.7l-1 .1v-5.2h1v.4l.5-.4.5-.2Zm-.3.9c-.3 0-.5.1-.6.4v1.6l.2.2h.3c.2 0 .4 0 .5-.2l.1-.9v-.9c-.2-.2-.3-.2-.5-.2Zm4-.9c.7 0 1.1.2 1.4.6.3.3.5.8.5 1.4 0 .6-.2 1.1-.5 1.5-.3.3-.7.5-1.3.5-.6 0-1-.2-1.3-.5-.4-.4-.5-.9-.5-1.5 0-.4 0-.7.2-1 .1-.3.4-.6.6-.7.3-.2.6-.3 1-.3Zm0 .9c-.1 0-.3 0-.4.2l-.2 1c0 .3 0 .6.2.8.1.2.3.3.5.3s.4-.1.5-.3l.2-.9c0-.4 0-.7-.2-.9a.6.6 0 0 0-.5-.2Zm2.7-.7h1v.4l.6-.4.6-.2c.3 0 .6.1.8.3l.2.8v2.8h-1v-2.4c0-.3-.1-.4-.2-.5l-.3-.1h-.3l-.3.4v2.6h-1.1V301Zm5.2 2.1c0 .6.3.9.9.9l1-.3.4.6a2 2 0 0 1-.7.4l-.8.1c-.4 0-.8 0-1-.2-.4-.2-.6-.4-.8-.7l-.2-1c0-.4.1-.8.3-1a1.7 1.7 0 0 1 1.5-1c.4 0 .7 0 1 .2l.6.6.2 1v.4h-2.4Zm.6-1.5c-.1 0-.3 0-.4.2-.2.1-.2.4-.3.7h1.4c0-.6-.2-1-.7-1Zm2.6-.6h1v.4l.6-.4.6-.2c.3 0 .6.1.8.3.2.2.3.5.3.8v2.8h-1.2v-2.9l-.3-.1h-.4l-.3.4v2.6h-1V301Zm7.6 3.5-1.2.3c-.5 0-.9-.1-1.1-.4-.3-.2-.4-.5-.4-1v-1.7h-.8v-.7h.8v-.9h1.1v.9h1.2v.7h-1.2v1.7c0 .2 0 .3.2.4l.4.1.6-.1.4.7Zm4-2.4v.8l-2.7 1.7-.5-.8 2.3-1.3-2.3-1.3.5-.8 2.8 1.7ZM1107.7 313.4l.6-.1.2-.4v-.2l-.3-.2-.6-.2-.9-.4a.9.9 0 0 1-.3-.7c0-.3.1-.6.4-.8.3-.2.6-.3 1-.3.6 0 1.1.2 1.5.4l-.3.5-1-.3c-.6 0-.8.1-.8.4v.2l.4.2.6.2.8.4c.3.2.3.4.3.8 0 .3-.1.6-.4.8-.3.2-.7.3-1.2.3-.6 0-1.1-.2-1.5-.5l.4-.5.5.3.6.1Zm5.5-3.3.6.1-.2 1.4h-.5v-.8a1 1 0 0 0-.7.3l-.5.9v1.4h.8v.5h-2v-.5h.5v-2.6h-.6v-.6h1.2l.1.9c.1-.4.3-.6.5-.7.2-.2.5-.3.8-.3Zm3.4 3.3c.3 0 .6-.1.9-.4l.3.6-.5.3-.8.1c-.5 0-1-.2-1.3-.5a2 2 0 0 1-.5-1.4c0-.4.1-.7.3-1a1.7 1.7 0 0 1 1.6-1c.5 0 .9.2 1.3.5l-.4.5c-.3-.3-.6-.4-1-.4l-.7.4-.2 1c0 .4 0 .7.3 1 .1.2.4.3.7.3Zm2 1 3-6.2.7.3-3 6.2-.6-.3Zm6.4-1c.3 0 .6-.1 1-.4l.3.6-.6.3-.7.1c-.6 0-1-.2-1.3-.5a2 2 0 0 1-.5-1.4c0-.4 0-.7.2-1 .1-.3.3-.6.6-.7a2 2 0 0 1 2.3.2l-.4.5c-.3-.3-.6-.4-.9-.4-.3 0-.5.2-.7.4-.2.2-.3.5-.3 1 0 .4.1.7.3 1 .2.2.4.3.7.3Zm4-3.3c.5 0 .9.2 1.2.5.2.4.4.9.4 1.5s-.2 1-.5 1.4c-.3.3-.7.5-1.2.5s-1-.2-1.2-.5c-.3-.3-.5-.8-.5-1.4 0-.6.2-1.1.5-1.5.3-.3.7-.5 1.2-.5Zm0 .6c-.4 0-.6.1-.7.4a2 2 0 0 0-.2 1c0 .4 0 .8.2 1 .1.2.3.3.6.3s.5-.1.6-.3c.2-.2.3-.6.3-1 0-.5-.1-.8-.3-1 0-.3-.3-.4-.6-.4Zm5.2-.6c.2 0 .4 0 .5.3.2.1.2.4.2.8v2.7h-.7v-3.1h-.2c-.2 0-.4 0-.6.3v2.8h-.6v-3.1h-.2c-.2 0-.4 0-.6.3v2.8h-.7v-3.7h.6v.4l.4-.4h.5c.3 0 .5 0 .6.4 0-.2.2-.3.3-.4h.5Zm3.5 0c.9 0 1.3.7 1.3 2 0 .5-.1 1-.4 1.4-.2.3-.6.5-1 .5s-.7-.1-1-.4v1.7l-.8.1v-5.2h.7v.5l.6-.4.6-.2Zm-.3.6c-.1 0-.3 0-.4.2l-.4.4v1.7c.2.3.5.4.8.4l.6-.3.2-1c0-.5 0-.9-.2-1a.6.6 0 0 0-.6-.4Zm4.1-.6c.6 0 1 .2 1.3.5.3.4.4.9.4 1.5s-.1 1-.4 1.4c-.3.3-.7.5-1.3.5-.5 0-.9-.2-1.2-.5-.3-.3-.4-.8-.4-1.4 0-.6.1-1.1.4-1.5.3-.3.7-.5 1.3-.5Zm0 .6c-.2 0-.5.1-.6.4l-.2 1c0 .4 0 .8.2 1 .1.2.4.3.6.3.3 0 .5-.1.7-.3l.2-1c0-.5 0-.8-.2-1a.7.7 0 0 0-.7-.4Zm2.8-.5h.7v.5l.5-.4.7-.2c.4 0 .6.1.8.3.2.2.3.5.3.8v2.7h-.8v-2.8l-.2-.3h-.9l-.3.5v2.6h-.8v-3.7Zm4.8 2.1c0 .4.2.6.4.8.1.2.4.3.7.3h.4l.5-.3.4.5a2.2 2.2 0 0 1-1.4.5c-.5 0-1-.3-1.3-.6a2 2 0 0 1-.5-1.4c0-.4 0-.7.2-1a1.6 1.6 0 0 1 1.5-1c.5 0 .9.2 1.2.5.3.3.4.8.4 1.4v.3h-2.5Zm1-1.6c-.3 0-.5 0-.7.3-.2.2-.2.4-.3.8h1.8c0-.4-.1-.6-.3-.8a.7.7 0 0 0-.6-.3Zm2.6-.5h.7v.5l.6-.4.6-.2c.4 0 .6.1.8.3.2.2.3.5.3.8v2.7h-.8v-2.8l-.2-.3h-.8l-.4.5v2.6h-.8v-3.7Zm7.3 3.5-.5.2-.6.1c-.4 0-.7-.1-1-.3-.2-.2-.3-.5-.3-.9v-2h-.8v-.6h.8v-.8l.8-.1v1h1.3l-.1.5h-1.2v2l.1.4.5.2c.3 0 .5 0 .7-.2l.3.5Zm.8.7 3-6.2.6.3-3 6.2-.6-.3Zm4.2-.5 1.3-2-1.1-1.7h.9l.7 1.3.8-1.3h.9l-1.2 1.7 1.3 2h-.9l-1-1.5-.8 1.5h-.9Zm4.2 0 1.4-2-1.2-1.7h.9l.7 1.3.8-1.3h.9l-1.2 1.7 1.3 2h-.9l-.9-1.5-.9 1.5h-.9Zm4.2 0 1.4-2-1.2-1.7h.9l.8 1.3.7-1.3h.9l-1.2 1.7 1.3 2h-.9l-.9-1.5-.9 1.5h-.9Zm4.3.5 3-6.2.5.3-3 6.2-.5-.3Zm4.2-.5 1.3-2-1.2-1.7h1l.7 1.3.7-1.3h.9l-1.2 1.7 1.4 2h-1l-.9-1.5-.9 1.5h-.8Zm4.2 0 1.3-2-1.2-1.7h1l.7 1.3.8-1.3h.8l-1.2 1.7 1.4 2h-1l-.9-1.5-.8 1.5h-1Zm4.2 0 1.3-2-1.2-1.7h1l.7 1.3.8-1.3h.8l-1.1 1.7 1.3 2h-1l-.8-1.5-1 1.5h-.8Zm5.3-.6c0-.2 0-.3.2-.4.2-.2.3-.2.5-.2s.4 0 .5.2l.2.4c0 .2 0 .4-.2.5l-.5.2c-.2 0-.3 0-.5-.2a.7.7 0 0 1-.2-.5Zm6.5.4-.5.2-.5.1c-.5 0-.8-.1-1-.3-.3-.2-.4-.5-.4-.9v-2h-.8v-.6h.8v-.8l.8-.1v1h1.3l-.1.5h-1.2v2c0 .2 0 .3.2.4 0 .1.2.2.5.2.2 0 .4 0 .6-.2l.3.5Zm2.5-.3.6-.1.2-.4v-.2l-.3-.2-.6-.2-1-.4a.9.9 0 0 1-.2-.7c0-.3.1-.6.4-.8.3-.2.6-.3 1-.3.6 0 1 .2 1.5.4l-.4.5a2 2 0 0 0-1-.3c-.5 0-.7.1-.7.4v.2l.4.2.5.2 1 .4.2.8c0 .3-.1.6-.4.8-.3.2-.7.3-1.2.3-.6 0-1.1-.2-1.5-.5l.4-.5.5.3.6.1Zm2.5.5 1.4-2-1.2-1.7h.9l.8 1.3.7-1.3h.9l-1.2 1.7 1.3 2h-.9l-.9-1.5-.9 1.5h-.9Z" style="fill:#df80e0;fill:color(display-p3 .8745 .502 .8784);fill-opacity:1"/><path stroke="#AAA" stroke-width=".7" d="M1231.8 297.4v18.2" style="stroke:#aaa;stroke:color(display-p3 .6667 .6667 .6667);stroke-opacity:1"/></g></g><path fill="#666" d="M1019.8 41.4h6.5v2.1h-4v18.2h4v2.1h-6.5V41.4Zm23.4 14.8c0 1.7-.6 3-1.9 3.7a8.8 8.8 0 0 1-4.6 1.1h-4.8V44.4h4.5c1.8 0 3.2.4 4.3 1 1.2.7 1.8 1.7 1.8 3.2 0 1-.3 1.8-1 2.4-.5.6-1.2 1-2.1 1.2 1 .2 2 .6 2.7 1.2.7.6 1 1.6 1 2.8Zm-3.6-7.3c0-.9-.2-1.5-.8-1.8-.5-.4-1.2-.6-2.2-.6h-2v4.8h2.2c1 0 1.7-.2 2.1-.6.5-.4.7-1 .7-1.8Zm.7 7.3c0-1-.3-1.7-.9-2.2a4 4 0 0 0-2.4-.6h-2.3v5.4h2.2c2.2 0 3.4-.8 3.4-2.6Zm15-8.2a6 6 0 0 1 2 .3l-.5 4.7h-2v-2.6c-.8 0-1.6.4-2.2 1-.7.8-1.2 1.7-1.6 3V59h2.6V61h-7.1v-2h1.8v-8.8h-1.8v-1.9h3.9l.5 3c.5-1.1 1-2 1.8-2.5.7-.5 1.6-.8 2.6-.8Zm10.4 0c1.9 0 3.3.6 4.3 1.8 1 1.2 1.5 2.8 1.5 4.8s-.6 3.7-1.6 5a5.2 5.2 0 0 1-4.2 1.7c-1.8 0-3.2-.6-4.2-1.7a7.4 7.4 0 0 1-1.5-5c0-2 .5-3.6 1.5-4.8 1-1.2 2.4-1.8 4.2-1.8Zm0 2c-1 0-1.7.5-2.2 1.2-.5.8-.7 2-.7 3.5s.3 2.7.7 3.4c.5.8 1.2 1.1 2.2 1.1 1 0 1.7-.3 2.2-1 .5-.8.7-2 .7-3.6 0-1.5-.2-2.7-.7-3.4a2.4 2.4 0 0 0-2.2-1.1Zm15.8 11-1.5-9-1.5 9h-3.3l-2.1-12.7h2.6l1.3 11 1.8-9.4h2.7l1.6 9.4 1.3-11h2.5l-2 12.7h-3.4Zm12.3-1.7c.9 0 1.6-.2 2-.5.5-.3.8-.7.8-1.2 0-.4 0-.7-.2-1l-.9-.6-2-.6a8.7 8.7 0 0 1-3-1.4 3 3 0 0 1-1.1-2.4c0-1 .4-2 1.3-2.6a6 6 0 0 1 3.7-1 8 8 0 0 1 4.9 1.5l-1.2 1.7a6.4 6.4 0 0 0-3.6-1.2c-1.6 0-2.4.5-2.4 1.4 0 .3.1.6.3.8l1 .6 2 .6c1.3.4 2.3.9 3 1.5.7.5 1 1.4 1 2.5 0 1.3-.5 2.3-1.6 3-1 .6-2.4 1-4 1-2 0-3.8-.7-5.2-1.9l1.5-1.6a6 6 0 0 0 3.8 1.4Zm12-3.8c0 1.3.4 2.2 1 2.8.7.6 1.5 1 2.4 1 .6 0 1.2-.2 1.7-.3l1.6-.9 1.2 1.7-2 1.1c-.9.3-1.7.4-2.6.4-2 0-3.4-.6-4.5-1.8a7 7 0 0 1-1.6-4.8c0-1.3.2-2.4.7-3.4.4-1 1.1-1.9 2-2.4.9-.6 1.9-1 3-1a5 5 0 0 1 4 1.8c1 1.1 1.5 2.7 1.5 4.6v1.2h-8.4Zm3-5.5c-.9 0-1.6.3-2.1 1-.6.5-.9 1.5-1 2.7h6c-.1-1.2-.4-2.1-.9-2.8-.4-.6-1.1-1-2-1Zm18-2a6 6 0 0 1 2 .3l-.5 4.7h-2v-2.6c-.8 0-1.6.4-2.3 1-.6.8-1.1 1.7-1.5 3V59h2.5V61h-7v-2h1.8v-8.8h-1.9v-1.9h4l.4 3a6 6 0 0 1 1.8-2.5c.8-.5 1.6-.8 2.7-.8Zm13.4 15.8h-6.5v-2.1h4V43.5h-4v-2.1h6.5v22.4Z" style="fill:#666;fill:color(display-p3 .4 .4 .4);fill-opacity:1"/><g filter="url(#h)"><rect width="168" height="168" x="449" y="149" fill="#3C3C3C" rx="14" style="fill:#3c3c3c;fill:color(display-p3 .2353 .2353 .2353);fill-opacity:1"/></g><path fill="#FFCF00" d="M491 282a24 24 0 1 0 0-48 24 24 0 0 0 0 48Z" style="fill:#ffcf00;fill:color(display-p3 1 .8118 0);fill-opacity:1"/><path fill="#191919" d="m480 245 13 13-13 13-3.2-3.1 9.8-9.9-9.8-9.8 3.2-3.2Zm14.4 0 13 13-13 13-3.2-3.1 9.9-9.9-9.9-9.8 3.2-3.2Z" style="fill:#191919;fill:color(display-p3 .098 .098 .098);fill-opacity:1"/><path fill="#000" d="M554 188.7v-.3h-.4v.3h.3Zm2.5 6.1v.2h.3v-.6l-.3.5Zm-10 8c-.6-1-1.3-2-2.2-2.7 0-.3.6-.7 1.4-1.2l2.9-2.4c.7-1.2 1-2.5 1-3.9v-.2c0-1.3-1-2.2-2.6-3-1-.6-2.8-1-5.3-1-2.9.3-5.7 1-8.3 2.2l-3.2 2v.3l.3-.2h.2v.2H531l-2.2 1.7.1.2h-.6v.2l.2.3h-.3c-.4 0-.8.2-1 .5l.1-.6c.5-1.9.8-3.8 1-5.7v-.1l-.9-.9v-.5h-.2a151.6 151.6 0 0 1-9.8 12.9c-1 .9-1.5 1.6-1.4 1.7-.3.1-.4.3-.4.5a2.8 2.8 0 0 1-1.9 1.2l-.9.2a.2.2 0 0 0-.2.2v.1h.4l-.8.4-1.2.2h-.7.3l-.8.3c-.6.1-1 0-1-.2v.3-.3l-.6.2c0-.3-.9-1.4-2.6-3.4 0-.4.5-.9 1.7-1.6l3.6-3.2a9 9 0 0 0 1.4-5v-.5c-.2-1.6-1.3-2.9-3.5-3.8-1.3-1-3.6-1.4-7-1.4a42 42 0 0 0-10.7 3l-4.2 2.6v.2l.4-.1h.2v.2l.4-.2h.1v.2c-.9.9-1.8 1.7-2.9 2.3l.2.2h-.9v.2l.4.4h-.6a2.8 2.8 0 0 0-1.7 1.3v.2l1-.7v.4l-.4.1.3.5a11 11 0 0 1 2.1-1.7c.5 0 .7.2.7.3h.2c2-1.4 4-2.6 6.3-3.4v.4l-.7.8.1.6a181.2 181.2 0 0 1-13.8 29.7l.2.4c.5-.1 1-.3 1.4-.6h.2v.3h.3l.2-.2.4.1v.3c0 .4-.2.8-.5 1.2-.4.6-.7 1.4-1 2.1v.1h.3c1-1.2 2-2.5 2.7-3.9 2.7-.7 5.3-1.6 7.9-2.9 1.5 0 3-.5 4.2-1.4v-.2l-.7.2h-.2v-.2c1 0 2-.4 2.8-.9 2.6-2 4.6-3.4 5.9-4.2 2.7-2 4.5-4 5.3-5.9l.5-.2h1.5l1-.3h.4v.3l-4.7 7.3-1 1.3-.5 1.7.6-.2-.2.6v.2l.2.2v.3h.1c.3-.3.5-.6.5-.8h.6v.1c-.2 0-.3.2-.4.5v.2h.2c1.8-2 5.9-8.3 9.2-12.6 0-.5 1.7-1.1 5.3-2 .2.7 0 2-.8 4.1a11 11 0 0 0-.6 2.2c-.4 1-.7 1.8-.9 2.8l-1.1 4.2c-.8 2.2-1.5 4.5-1.9 6.8h.4l.2-.2v-.3h.7l.3-.6c0-.5.1-.9.4-.9a9 9 0 0 1 .7-2 9 9 0 0 1 .7-2.3c.4-1.8.8-2.7 1-2.7v.2l-.3.9c-.5 2.2-1 4.3-1.8 6.4l.1.9h.2A171 171 0 0 0 525 204c.3-.3.5-.6.9-.8l-.2-.2c.3 0 .6-.2.7-.4l-.9-.4 1.5-6.1c.1-.2.3-.3.6-.4v.3l-.4.1.3.4c.4-.5 1-1 1.6-1.4.3 0 .4.2.5.3h.2c1.4-1 3-2 4.7-2.6v.3l-.5.6v.4a147.1 147.1 0 0 1-10.4 22.8c.5 0 .8-.1 1.2-.3v.2h.3l.2-.1h.3v.2c0 .4-.2.7-.4 1-.4.5-.6 1-.7 1.7h.2c.8-.8 1.5-1.8 2-3 2.1-.5 4.1-1.2 6-2.1 1.2 0 2.3-.4 3.2-1v-.2l-.5.1h-.2c.8-.1 1.5-.4 2.1-.8 2-1.4 3.5-2.6 4.6-3.2 3.1-2.3 4.5-4.5 4.4-6.6Zm-.6.1v.8c0 .2-.2.3-.2.3l-.1-1.4.3.2v.1Zm-62-6.8v-.2l.5-.1a1 1 0 0 0-.4.3Zm-2.7 27.7-.8-.2v-.5c0-.2 0-.3.2-.3.3 0 .3.1.3.4l.9-.9h.2c0 1-.3 1.4-.8 1.4Zm29.4-30.8-.8-1.3v-.2c.2 0 .5.4.8 1.3v.3-.1Zm-.4-3v.2l-4.1-1.7c2.7.1 4 .6 4.1 1.4Zm-16.8 14.4h-.6v-.2h.6v.2Zm-.5-8.7h.2v.4l-.5.6v-.3c.2-.3.4-.5.3-.7Zm-1.1 2.8v.5h-.1v-.5Zm-.6 1h.2c0 .4-.1.7-.3.7h-.2l.3-.6v-.1Zm-.6 1.4h.2v.2l-.3.3h-.1l.1-.1.2-.1a.4.4 0 0 0 0-.3Zm-.4 1.2v.7h-.2v-.6h.2Zm-4.6 13c-.1 1-.3 1.5-.6 1.5v-.2a1.5 1.5 0 0 1 .6-1.2Zm-.8 1.8v.5a.3.3 0 0 1-.3 0v-.1c0-.2 0-.3.3-.3Zm-.3 3.9h.4v.2c-.1 0-.3 0-.4.2h-.3c0-.2 0-.3.3-.4Zm12.1-3.9c-1.5.7-2.9 1.5-4.2 2.5-2.6.9-3.8 1.4-3.8 1.7a42 42 0 0 0-4.5 2c-.3 0-.5 0-.7-.2a1.2 1.2 0 0 1 .6-1.1l1.1.1 2.2-.7v-.3h-.9c.8-.4 1.6-.8 2.5-1h.4v.1c-.7 0-1.1.3-1.2.6 0 .2 0 .3.3.3l.8-.6c1-.3 3.9-1.8 8.6-4.6v.3c0 .2-.4.5-1.2 1Zm-7.2 2.4c.7 0 1.3-.3 1.8-.8.1 0 .2 0 .2.3-.7.2-1.3.5-1.9.9v-.4Zm11.7-9-3.7 3.1c-1.4 1-2.9 1.9-4.4 2.7a33.5 33.5 0 0 1-7.9 3.7h-.2c.1-.5 2-4.4 5.7-11.7 2.7-.5 5.2-1.2 7.7-2.3h.8a5 5 0 0 1 4 1v.5c-.6 1.9-1.3 3-2.1 3.2v-.1Zm-7-3.9h.6v.1h-.6Zm8.1-1.3h.5l.6.4v.2a1.2 1.2 0 0 1-1-.6Zm1.2-6.6c-1 .9-2 1.7-3.1 2.3-.6 0-2.6.9-6.2 2.5-.2-.2-.4-.2-.7-.2v-.2c0-.7.3-1.4.7-2 .4-1.4.7-2.3 1-2.5l3-6.7c0-.4.6-.7 1.8-1h.5v.4l2.3-.3c2.4-.2 3.6.3 3.7 1.4h.4l-.1-.7h.3a1.8 1.8 0 0 1 1.2 1.3c0 .5-.3 1-.6 1.4-.2 0-.3 0-.3-.3h-.3v.8c-1.3 1.7-2.1 2.6-2.7 2.7l-.9 1v.1Zm1.7 4.7a1 1 0 0 0-.5-.2v-.4h.3l.6.3a.3.3 0 0 1-.2.3h-.1Zm2 2.3.4.4h-.5v-.4Zm.1 1h.4-.4Zm.9 1 1.1-.1-1.2.3v-.1h.1Zm1.1.6c-.4 0-.8 0-1.2.2l1-.5h.6v.1c-.2 0 0 0-.3.2Zm1.2-.3a.3.3 0 0 1-.3-.2h.5v.2h-.2Zm3-3.1v-.2l.5-.1v.2h-.5Zm3.1 19.5v-.3h.2a.2.2 0 0 1 .2 0v.2l-.4.1Zm2.3-18.8h-.3l-.8.4h-.5l1.4-.4.6-.3.1.2a1 1 0 0 0-.5.2Zm1.1-.3.3-.3 1-.2-1.3.5Zm.3-2.2-.3.2h-.6c0-.2.7-.5 2.3-.9h.3v.2l-1.7.5Zm3-3c-.3 1.2-.7 2-1.5 2.1l-.7.2h-.8v-.2c.9-1.5 2-3 3-4.4h.3c0 .8 0 1.5-.4 2.2Zm5-4.5v-.1h.3l-.4.2Zm-2.2 21.1-.6-.2v-.3c0-.1 0-.2.2-.2.1 0 .2 0 .2.3l.6-.7h.2c0 .8-.2 1-.5 1.1h-.1Zm22.3-23.5-.6-1v-.2c.2 0 .4.3.6 1v.2Zm-.3-2.4-.1.3-3-1.3c2 0 3 .4 3.1 1Zm-12.9 11.2h-.4v-.3h.4v.3Zm-.3-6.7v.3l-.4.5v-.2a.9.9 0 0 0 .4-.6Zm-.9 2.2v.3h-.2v-.3h.2Zm-.5.7h.2c0 .3 0 .5-.3.5v-.5Zm-.4 1h.1v.1l-.2.4h-.1v-.1c.1 0 .2-.1.2-.4Zm-.3 1v.5h-.2v-.5h.3-.1Zm-3.5 10c-.2.6-.3 1-.5 1v-.2a1.1 1.1 0 0 1 .5-1v.1Zm-.7 1.3a.2.2 0 0 1 0 .2h-.1l.1-.2Zm-.1 2.8h.3v.2l-.3.1h-.2c0-.1 0-.2.2-.3Zm9.1-2.8c-1.1.5-2.2 1.1-3.2 1.8-1.9.7-2.9 1.1-2.9 1.3a31 31 0 0 0-3.3 1.7l-.5-.2a.9.9 0 0 1 .4-.9l.9.1 1.8-.5v-.3h-.8c.5-.4 1.2-.6 1.8-.9h.4v.1c-.7.1-1 .3-1 .5l.1.2h.2l.6-.4c.7-.1 2.9-1.3 6.5-3.4v.1l-1 1v-.2Zm-5.4 1.8c.5 0 1-.3 1.4-.6a.2.2 0 0 1 .1.1l-1.4.7h-.1v-.2Zm9-6.7-2.8 2.2c-1 .8-2.2 1.4-3.3 2a28 28 0 0 1-6.1 2.8c0-.3 1.4-3.3 4.3-8.8 2-.4 4-1 5.8-1.8h.6a3.7 3.7 0 0 1 3 .7v.5c-.5 1.4-1 2.1-1.6 2.4Zm-5.4-3h.4v.1h-.4Zm6.2-1h.2l.6.3v.1a.9.9 0 0 1-.9-.4Zm.9-5c-.8.7-1.6 1.2-2.4 1.7-1.6.5-3.2 1.1-4.7 1.9a1 1 0 0 0-.5 0v-.3c0-.5.2-1 .5-1.5l.7-2 2.3-5c0-.3.5-.5 1.5-.7h.3v.3l1.8-.3c1.8 0 2.7.3 2.8 1.1h.2v-.5h.3a1.4 1.4 0 0 1 .8 1c0 .5-.2.8-.5 1.1-.2 0-.2 0-.2-.2h-.2v.6c-.9 1.3-1.7 2-2.1 2-.4.5-.5.8-.7.8Zm.8 3.5v-.4h.3l.4.3a.2.2 0 0 1-.1.2.9.9 0 0 0-.5-.2Zm-38 19.6h-.3l-.2.2.1.1a.2.2 0 0 0 .2 0c.2 0 .2 0 .2-.2v-.1Zm-.8-1.6c.1 0 .2 0 .1-.2a.2.2 0 0 0-.1.2Zm5.8-13.6h.2v-.3h-.3v.3Zm74.1 6.1c-1 .3-2.1.6-3.2.6v.2h.6c2.4-.3 2.7-.3 2.6-.5v-.2Zm-13.3 1.8v.2-.2Zm-1.6-5.3h-.2l-.2.8c.1 0 .3-.3.4-.9v.1Zm15.4 3.5v.2h.4v-.1h-.4Zm-16.9 2.1h-.5l-.1.2 3.3-.2v-.2l-2.6.2h-.1Zm-1.5-7.3h-.3l.1.3c.2 0 .3 0 .2-.3ZM587 210h.2v-.4l-1.3.3h-.7l-.1-.3h-.4c-.4 0-.6 0-.9.2h-1.4v.1h.5a.4.4 0 0 0 .3.1h.2l-2.1.5a.3.3 0 0 0-.3-.1.2.2 0 0 1-.1-.2h.7l.6-.3v-.2l-2.3.2v-.1l2-.4v.1h.5c.8 0 1.6-.2 2.3-.4h.5c0-.2.2-.3.3-.3v-.2c-2.4.5-3 .4-3.8.5a3 3 0 0 1-.8 0l-.2.1h-.1l-2.1.3h-.1c-.7.2-1.5.3-2.3.3l-.2.1h-1.1l-.5.2h-.1l-.9.1c-.2 0 0 0 0 0H572l-1.6.2h-.5l-.1.1c-.7 0-1-.2-1-.3 0-.6.1-1 .4-1h.2l-.2.2h.2l.2-.3v-.2h-.2V208.2l.6-.8v.2h.2v-.2l-.1-.2.4-.3h-.4v-.3l1-2.3h.2s.2 0 .2-.2h-.2v-.5a1.4 1.4 0 0 0 .5-1 41.1 41.1 0 0 0 2.7-6.8c1.8-4.7 1.8-5.3 2-6.4h-.2v.4a.9.9 0 0 0-.5 0v-.1c0-.6.3-1.1.7-1.5l.1.7h.3v-1h-.4v-1.1a.9.9 0 0 1-.3-.5l-1.1.1a1 1 0 0 0-.2-.3l.8-.3h.6l.2-.1h.1v-.2h-1.2l-.2.2v-.2l-9.4.8h-1.1s0 .2-.3.2l-.1-.1-1 .2h-.8l-.4.2 2.3-.2a1 1 0 0 1-.6.2h-.4l-1.8.3h-.2l-3.9.5a.9.9 0 0 0-.5 0l-1 .1-1.8.9v.2l.5-.2h.6v.7a1.7 1.7 0 0 0-1.1 1.1c-1 .5-1.3.7-1.3 1h.3l.3.3v.4l-4.6 9.7c-2.6 6.1-4 9.4-4.1 10-.9.2-1.4.6-1.6 1 0 .2.3.3.8.4v.1l-.3.5v.4c0 .3.7.5 2 .6l.1-.1a7 7 0 0 1-.2 1.7h.1c.5-.5.8-1 1-1.7.2 0 .3.2.4.5l-1.7 4 .2.1h.1c1.2-3 2-4.7 2.3-5l8.2-.9.3-.1c0 .1 0 .1 0 0H557.3l3-.2c.7 0 1.2-.3 1-.7 0-.1.5-.3 1.5-.4h.3l1.4-.1c0-.6.2-.8.5-.8v-.3a4 4 0 0 0-.9.3l-1.1-.2a1 1 0 0 1-.4.2h-2l-.3.1h-.5l-.7-.1-.3.1h-.4c2.6-.3 4-.7 3.9-1.1h.1l.1.2.8-.2v-.3l-6.3.2-.1.2h-1.6l-1.7.2h-1.8l-1.4.2h-.7c0-.5.9-2.5 2.5-6.2.2-.9.7-1.7 1.4-2.3h.3l1-.3h.6c1 0 2-.3 3-.7h1.5l2.3-.2c1-.1 2-.4 3.1-.7v-.3c-.4 0-.7 0-.7-.2s-.3-.4-.9-.3v-.3l.6-.1 1.7-.2v-.3h-1v-.2h.6c.2 0 .2-.1.2-.3-.8 0-1.3 0-1.3-.2a57.2 57.2 0 0 1-9.4.4v-.3c1.5-3.3 2.4-5 2.7-5 0 .2 0 .4-.2.6h.3c.6-1.4 1.1-2.2 1.5-2.3 2-.1-.2-.2 3.8-.8h.4l6.5-1v-.2l-1.5.2v-.3c.2 0 .4 0 .5-.2v.2c.1 0 .2 0 .3-.2h.7l1.2-.1 1-.1c.2-.2.3-.3.3-.5a3 3 0 0 1-.9 0v-.2a.3.3 0 0 1 .3-.2l1.7-.2.8-.1.1.1.4-.1h.1l-.3.8h-.3v-.3h-.2c-2.1 5.9-3.1 8.7-5 13.1a5.5 5.5 0 0 1-1 2l.1.2h.2c0 .6-.2 1.2-.5 1.7l-1.7 4.4.1 1.1a.2.2 0 0 1 0 .2l-.1.1h-.3c0-.4 0-.5-.3-.5h-.1c-.3.4-.5 1-.6 1.5h.1l.3-.3v-.3h.8c-.2.2-.3.5-.3.8l.1.2-.3.6v.1c.4 0 .7 0 1 .3l.5-.3h2.7l.8-.3h2.1l.1-.1h1.7v.1h-.4v.3c.1 0 .2 0 .3-.2.1 0 .2 0 .2.2a3 3 0 0 0-.6.2l-.3-.1-.4.2-.4-.1a.2.2 0 0 0 0 .2h.5l1.7-.1.7-.1.5-.1h.6l1.5-.3v-.1l2-.4h.7v-.2h-1.4l-1.5.1.9-.2h.3l.2-.1c1.1 0 1.6.3 7-.8.3 0 .3-.4.5-.9h-.3l-1.6.2s-.2 0-.2-.2h1l.8-.4s-.2.1 0 .1l-.1.1Zm-40.3.7h-.3c.1-.6.3-1.2.6-1.7h.3c-.1.6-.3 1.2-.6 1.7Zm.5-2s0-.2.2-.3v.1c0 .2 0 .3-.2.3Zm5.1 4v.2h-.7l.7-.2Zm-.8 0c0 .1-.1.3-.6.5l-.8-.1h-.2v-.3l1.7-.1h-.1Zm5.2-23.7h-.4v-.1c0-.2 0-.3.3-.3h.3v.1a.3.3 0 0 1-.3.3h.1Zm6-1.2v.3h-.4a.3.3 0 0 1 .2-.3h.1Zm-1.6.5h-.6v-.2l1.5-.3.3.1v.3h-.3l-.4-.1a1 1 0 0 1-.5.2Zm.7 2.2v-.1l.9-.1-.9.2Zm1-2.5v-.2l1.2-.2v.2l-1 .2h-.1Zm.7 2.3v-.3h.4c.2 0 .3.1.3.3h-.9.2Zm2.8-3.8-.6.2h-.1a6 6 0 0 1-1.1 0l1.7-.2Zm-.7 2.6v.1l-.8.1h.9l-.1-.2Zm1.3.7s0-.2-.4-.2l-1 .2h-.4l-.3-.2h.7l1.7-.3h.8v.2c-.3 0-.7 0-1 .2Zm8.3-2.2h.2l1-.7c-.2 1.1-.6 2.1-1.3 3l-.5-.3c.3-.7.5-1.3.6-2Zm-1.4 2.4h.2l-.4.5v-.3c.1 0 .2 0 .3-.2Zm-.8 2.2c0-.5.3-1 .7-1.5-.2.9-.4 1.2-.6 1.3v.6c-.2.1-.3.3-.3.6h-.1v-.7l.3-.4v.1Zm-.4 1.1c0 .3 0 .6-.2 1h-.1v-.3c.1-.4.3-.6.4-.6Zm-6.7 19.2v-.1h.2v.3s-.2 0-.2-.2Zm9.4.2h-.6v-.1l1.2-.1-.6.2Zm-.6-1.7h-.6v-.1h.6l.5-.2.2.1.9-.2.2.2-1.8.2Zm2.6-.2h-.7v-.2h.6s.1 0 0 .2Zm.8-.2.2-.2a.3.3 0 0 1 .3.2h-.5Zm1-.1v-.1h.4-.5Zm.5 0c0-.2 0-.3.2-.3v.2h.3-.5Zm8.3-1.2h-.1c-.1-.2 0 0-.1 0v.1l-.2.3.4-.2v-.2Zm.5.5v.2h.4c0-.2-.2-.2-.4-.2Z" style="fill:#000;fill-opacity:1"/><path fill="#F9DC3E" d="M556.2 194.2v.2h.3V193.8l-.3.5Zm-2.6-6.2v-.3h-.4v.3h.4Zm-7.5 14c-.6-1-1.3-1.8-2.1-2.6 0-.3.4-.7 1.4-1.2l2.7-2.3a6.8 6.8 0 0 0 1.2-3.8v-.4c-.1-1.3-1-2.2-2.7-3-1-.6-2.7-1-5.2-1-2.9.3-5.7 1-8.3 2.2l-3.2 2v.2h.3l.1-.1h.1a.2.2 0 0 1 0 .2h.3l-2.2 1.7.1.2h-.6v.2l.2.3h-.4c-.3 0-.7.2-1 .5l.3-.6 1-5.7v-.2c-.4-.2-.8-.5-1-.9v-.5h-.1a190.5 190.5 0 0 1-10 12.9c-.8 1-1.4 1.6-1.3 1.7-.2.2-.4.4-.3.6h-.1c-.5.6-1.1 1-1.8 1.2l-1 .2h-.1v.2h.3v.1l-.7.3-1.3.3h-.7.3l-.9.3c-.5 0-.8 0-.9-.2v.2-.2l-.8.2c0-.3-.8-1.4-2.6-3.4 0-.4.5-.9 1.8-1.6l3.7-3.2c.8-1 1.2-2.7 1.4-5v-.5c-.2-1.6-1.4-2.9-3.5-4-1.4-.8-3.7-1.2-7-1.3a42 42 0 0 0-10.9 3c-1.3 1-2.7 1.8-4.2 2.6v.2l.5-.1a.3.3 0 0 1 .2.2l.3-.1h.2v.1c-1 1-2 1.7-3 2.3l.2.2h-.8v.3l.2.3h-.4a2.8 2.8 0 0 0-1.8 1.3v.2a4 4 0 0 1 1-.7v.4l-.3.2.3.4a11 11 0 0 1 2.1-1.7c.4 0 .6.3.6.3h.3c1.9-1.4 4-2.5 6.2-3.3v.3c-.3.6-.6.8-.7.8 0 .2 0 .4.2.6a179.8 179.8 0 0 1-13.7 29.8c0 .1 0 .3.2.4.5-.1 1-.3 1.4-.6h.2v.3h.7v.3c0 .4-.1.8-.4 1.2-.4.6-.7 1.4-.9 2.1v.2h.2c1-1.2 2-2.5 2.7-3.9 2.7-.7 5.4-1.7 8-3 1.4 0 2.8-.5 4-1.4v-.2l-.6.2h-.1v-.2c1 0 2-.3 2.8-.8 2.5-2 4.5-3.4 5.8-4.2 2.8-2 4.6-4 5.3-6h1.2v-.2h.7l1-.4h.3-.1.3l.1.3-4.6 7.4-1 1.3-.6 1.8h.2l.4-.3-.2.7.1.2.2.2h-.1v.2h.2c.3-.3.4-.6.4-.9l.6.1v.2l-.2.4v.1c1.7-1.7 6-8.1 9.3-12.4-.1-.5 1.6-1.2 5.2-2h.1c.1.5-.2 2-.9 4a11 11 0 0 0-.5 2.2c-.4.9-.6 1.8-.9 2.8l-1.1 4.1c-.8 2.2-1.5 4.5-2 6.8h.4l.2-.2v.1h.1v-.3h.6s.3-.2.4-.6c0-.6 0-.9.3-.9a9 9 0 0 1 .6-2 9 9 0 0 1 .7-2.4c.5-1.7.9-2.6 1.2-2.6v.2l-.4.9c-.5 2.1-1.1 4.2-2 6.3l.3.9a178.3 178.3 0 0 0 7-20.7c.2-.3.5-.6.9-.8l-.2-.2c.3 0 .5-.2.7-.5l-.9-.3 1.4-6.1.5-.4v.3l-.2.1.2.4 1.6-1.4c.4 0 .4.2.5.3h.2c1.4-1 3-2 4.8-2.6v.3c-.3.4-.5.6-.7.6l.2.4-2 5.4a147 147 0 0 1-8.3 17.5c.4 0 .8 0 1.1-.2v.1h.7v.2c0 .3-.2.6-.4.9l-.7 1.7h.2c.9-.8 1.6-1.8 2.1-2.8 2-.6 4-1.4 6-2.3 1.1 0 2.2-.5 3.2-1.2v-.1l-.6.1v-.1c.8-.1 1.5-.3 2.1-.7l4.5-3.3c3.2-2.3 4.7-4.5 4.4-6.7v.1Zm-.5.2v.8c0 .2-.2.3-.3.3V202l.3.3Zm-62-6.7v-.2h.5a1 1 0 0 0-.5.2Zm-2.7 27.6-.9-.2v-.4c0-.1 0-.3.3-.3.2 0 .2.1.2.4l1-1 .2.3c-.2.7-.4 1.2-.9 1.2h.1Zm29.4-30.8-.9-1.2v-.3c.4 0 .6.3.9 1.2v.3Zm-.4-3-.1.2-4-1.7c2.7.1 4 .6 4.1 1.4ZM493 203.7h-.5v-.2h.5v.2Zm-.4-8.8v.4l-.5.7v-.3c.3-.4.5-.5.5-.7v-.1Zm-1.3 3v.5l-.1-.6Zm-.7 1h.3c0 .4 0 .7-.4.7h-.1l.2-.7Zm-.2 1.3h.1l-.2.5h-.3a.3.3 0 0 0 .4-.5Zm-.5 1.2v.7h-.4v-.7h.4Zm-4.6 13c-.2 1-.5 1.4-.6 1.4v-.1a1.5 1.5 0 0 1 .6-1.3Zm-.9 1.8v.2a.3.3 0 0 1-.3.3v-.1c0-.2.1-.3.3-.4Zm-.3 3.8h.5v.2c-.2 0-.3 0-.5.2h-.2c0-.2 0-.3.2-.3v-.1Zm12.2-3.7c-1.5.7-3 1.4-4.3 2.4-2.5 1-3.8 1.5-3.7 1.7-1.6.5-3.1 1.2-4.6 2-.3 0-.5 0-.8-.2a1.2 1.2 0 0 1 .6-1.1l1.2.1 2.3-.7v-.3h-1c.8-.4 1.7-.8 2.5-1h.5v.1c-.8 0-1.2.3-1.3.6 0 .2.1.3.3.3l.9-.6c1-.2 3.8-1.7 8.5-4.5v.3l-1.1 1Zm-7.2 2.3c.6 0 1.3-.4 1.7-.9.2 0 .3.1.3.3-.7.2-1.4.5-2 .9v-.3Zm11.6-9-3.6 3c-1.4 1-2.8 1.8-4.4 2.6a31 31 0 0 1-7.9 3.6h-.1c0-.5 2-4.4 5.7-11.7 2.6-.4 5.2-1.2 7.6-2.3h.9a5 5 0 0 1 4 1v.5c-.7 2-1.4 3-2.2 3.3Zm-7-3.9h.5-.5Zm8-1.4h.5c.4.2.6.3.6.5v.1a1.2 1.2 0 0 1-1-.6Zm1.2-6.6c-1 1-2 1.7-3 2.4-.6 0-2.7.9-6.2 2.4-.2-.1-.4-.2-.6-.1v-.3c0-.7.3-1.4.7-2 .3-1.4.5-2.3.9-2.5l3-6.6c-.1-.5.5-.8 1.8-1h.4v.3l2.4-.3c2.4-.2 3.7.3 3.8 1.5h.2v-.7h.2a1.8 1.8 0 0 1 1.2 1.4c0 .5-.3 1-.7 1.4-.1 0-.2-.2-.2-.5h-.3v1c-1.2 1.7-2.1 2.6-2.7 2.6l-.9 1.1Zm1.9 4.8a1 1 0 0 0-.6-.3v-.3h.2l.6.4a.3.3 0 0 1-.1.2h-.1Zm1.9 2.1.4.4h-.2l-.2.2v-.6Zm.2 1.2.3-.2v.2h-.3Zm.8.9 1.1-.2v.2l-1.2.2v-.2Zm1.2.6c-.4 0-.8 0-1.2.2v-.1l1-.4h.5v.1c-.2 0 0 0-.3.2Zm1-.3a.3.3 0 0 1-.2-.2H510.3v.1h-.4v.1Zm3.1-3.2v-.1l.5-.1v.2h-.5Zm3.2 19.6v-.3H516.6v.1l-.4.2Zm2.3-18.7h-.3l-.9.3h-.2a.2.2 0 0 1-.2 0 .2.2 0 0 1-.1 0l1.5-.4.5-.3.2.2-.5.2Zm1.1-.4.3-.3 1-.2-1.3.5Zm.2-2.1c-.1 0-.2 0-.3.2h-.4c-.1-.2.7-.6 2.3-1h.2v.3l-1.8.5Zm2.9-3c-.2 1.1-.6 2-1.4 2.1l-.7.2h-.8v-.3l3-4.3h.3c0 .8-.1 1.5-.4 2.1v.1Zm5-4.5v-.1h.3l-.3.2Zm-2.1 21-.7-.2v-.2c0-.2.1-.2.2-.3.2 0 .3 0 .3.4l.5-.8h.3c-.1.8-.3 1.1-.5 1.1h-.1Zm22.3-23.4-.6-1v-.2c.2 0 .5.3.6 1v.2Zm-.2-2.4-.2.3-3-1.4c2 .1 3 .5 3.2 1.1Zm-12.8 11.1h-.5v-.1h.4v.1Zm-.4-6.5v.2l-.3.5v-.3l.2-.5h.1Zm-.9 2v.5h-.2v-.4h.2Zm-.5.9h.2c0 .3-.1.5-.3.5l.1-.5Zm-.3 1v.1l-.1.4h-.2v-.2c.2 0 .3-.1.3-.3Zm-.3.9v.5h-.2v-.5h.2Zm-3.5 10c-.1.6-.3 1-.5 1v-.1a1.1 1.1 0 0 1 .5-1Zm-.6 1.3a.2.2 0 1 1-.3.3c0-.2.1-.3.3-.3Zm-.3 2.7h.4v.1l-.4.2h-.2c0-.1 0-.2.2-.3Zm9.2-2.6c-1.1.5-2.2 1-3.2 1.8-2 .7-3 1.1-3 1.3-1.1.4-2.3.9-3.4 1.5l-.6-.2a.9.9 0 0 1 .6-.9c.3 0 .6 0 .8.2l1.8-.5v-.3h-.7l1.8-.8h.4c-.6 0-.9.3-.9.6v.1l.2.1.6-.4c.8-.2 3-1.4 6.5-3.6v.3l-.9.8Zm-5.5 1.8c.5 0 1-.3 1.4-.7 0 0 .2 0 .2.2l-1.4.6h-.2v-.1Zm8.9-7-2.8 2.1c-1 .8-2.1 1.5-3.3 2.1a28 28 0 0 1-6 2.8h-.1c0-.4 1.5-3.3 4.3-8.8 2-.4 4-1 5.8-1.8h.7a3.7 3.7 0 0 1 3 .7v.4c-.5 1.5-1 2.3-1.6 2.5Zm-5.3-3h.3-.4Zm6.1-1.1h.3l.5.3v.1a.9.9 0 0 1-.9-.4h.1Zm1-5c-.8.7-1.6 1.3-2.5 1.8-1.6.5-3.2 1.1-4.7 1.9a1 1 0 0 0-.4 0v-.3c0-.5.2-1 .5-1.5.2-1.1.4-1.7.7-1.9l2.3-5c0-.4.4-.6 1.4-.8h.3v.3l1.8-.3c1.7-.2 2.8.2 2.9 1h.2v-.2h.1a1.4 1.4 0 0 1 1 1l-.5 1.1c-.1 0-.2 0-.2-.4h-.3v.7c-1 1.3-1.6 2-2 2l-.8.8.1-.2Zm.8 3.5v-.3h.3l.4.2v.1h-.1a.9.9 0 0 0-.5 0h-.1Zm-38 19.8h-.2l-.2.2v.1h.1l.1.1h.1s.2-.1.2-.3h-.1Zm-.8-1.6v.1c.2 0 .2-.1.2-.2v-.1a.2.2 0 0 0-.2.2Zm5.8-10.8.2-.2h-.2v.2Zm0-3h.3v-.2l-.4.1v.2Zm57.7 8.4h-.5v.3l3.3-.4v-.1l-2.7.2Zm17-2 .3.2v-.2h-.3Zm-.6 0c-1 .2-2.2.4-3.3.4v.2h.7c2.5-.3 2.6-.2 2.6-.5v-.1Zm-14.9-3.7h-.1c-.2.2-.3.5-.3.8.2 0 .3-.2.4-.8Zm-3-1.7-.2.1v.3c.2 0 .2 0 .2-.3Zm6.5 6.8v-.2.2Zm13.6-3h.1l.1-.2v-.2c-.4 0-.9 0-1.3.2h-.7l-.2-.3h-.3c-.5 0-.6 0-1 .2h-1.6v.2l.3.1h.8a16.5 16.5 0 0 1-2.5.4v-.2h.7l.6-.3-2.3.1h-.1v-.2l2-.2a.4.4 0 0 1 .4 0h.1c.8 0 1.6-.1 2.4-.4h.4c0-.2.3-.2.4-.2v-.3c-2.5.5-3 .4-3.8.5a3 3 0 0 1-.9 0l-.1.2h-.1l-2.1.2h-.1c-.8.2-1.5.3-2.3.3l-.3.1h-1l-.5.2h-2.2l-1.6.3h-.6v.1c-.7 0-1-.1-1-.3 0-.6.1-.9.4-.9v.2l.4-.4v-.2h-.2V207.6l.5-.7v.1h.2v-.4l.4-.2h-.4v-.4c.4-.7.7-1.5.9-2.3h.3l.1-.1h-.2v-.5a1.4 1.4 0 0 0 .5-1h.2a41.1 41.1 0 0 0 2.8-6.8c1.7-4.9 1.7-5.3 2-6.5h-.3v.4a.9.9 0 0 0-.4 0v-.2c0-.5.2-1 .5-1.5h.1l.3.7h.1l.2-.8c0-.1 0-.2-.2-.2h-.2v-1h-.2a.9.9 0 0 1-.3-.4h-1a1 1 0 0 0-.3-.3l1-.2h.4l.3-.1h.2v-.2H575l-.2.2v-.2l-9.3.9h-1.7l-.8.2h-.9l-.5.1h2.4a1 1 0 0 1-.6.1h-.5l-1.7.3h-.3l-3.8.5h-.5c-.3 0-.7 0-1 .2l-1.8.8v.1l.4-.1h.7v.7a1.7 1.7 0 0 0-1.4 1c-.8.5-1.3.7-1.3.9h.4l.3.4v.4c0 .2-1.5 3.4-4.6 9.6-2.7 6.1-4 9.4-4.1 10-1 .2-1.4.7-1.6 1.1 0 .2.2.3.9.4v.1l-.4.5v.4c0 .2.7.4 2 .6l.1-.2c0 .6 0 1.2-.2 1.8h.1c.4-.4.7-1 .8-1.5h.1c.2 0 .3.1.4.4l-1.7 4 .2.2c1.2-3 2-4.7 2.3-5l8.2-1h.3a.1.1 0 0 0 .1 0h.3l.3-.2h-.1v.2h.1l3.1-.3c.8-.1 1.2-.4 1.2-.7 0-.2.4-.3 1.3-.4h.4l1.4-.2c0-.5.2-.8.5-.9v-.1a4 4 0 0 0-1 .1h-1a1 1 0 0 1-.5.1h-2l-.3.2h-.5l-.6-.2-.3.2h-.5c2.6-.4 3.9-.7 3.8-1.1h.2a.3.3 0 0 1 .2.2l.7-.2v-.2l-6.2.2h-1l-.4.2-.3-.1-1.8.3h-1.7l-1.5.1h-.7a35.5 35.5 0 0 1 3.8-8.5h.4l1-.3h.5c1 0 2-.3 3-.7h1.6l2.2-.3 3.1-.6v-.3c-.4 0-.6 0-.6-.2 0-.3-.4-.4-1-.4v-.3l.6-.2h1.7v-.3h-1v-.4h.7l.1-.3-1.3-.1a57.1 57.1 0 0 1-9.3.3l-.2-.2c1.6-3.4 2.6-5.1 2.9-5.1l-.3.6v.1h.3c.6-1.5 1.1-2.3 1.6-2.3 1.9-.2-.2-.2 3.7-.9h.4c1.6-.3 3.8-.5 6.6-.8v-.3H568l.5-.3v.1c.1 0 .2 0 .3-.2l.6.1 1.3-.2h.8c.3-.2.4-.4.4-.5v-.1a3 3 0 0 1-.9 0 .3.3 0 0 1 .3-.3l1.7-.2 1-.2v.1l.4-.1-.3 1h-.3v-.5h-.1c-2.2 6-3.1 8.8-5.1 13.1-.4 1.3-.7 2-1 2l.1.2h.2c0 .6 0 1.3-.4 1.8a14 14 0 0 1-1.8 4.3V209.9a.2.2 0 0 1 0 .2h-.4c0-.4 0-.5-.3-.5h-.1c-.3.4-.5 1-.6 1.5h.1a.7.7 0 0 0 .5-.7h.6c-.2.3-.3.6-.3 1h.1l-.2.7v.1c.3 0 .6 0 .8.3.3 0 .5-.2.6-.3h2.7l.9-.3H572.3l.2-.1h1.7v.2h-.5v.2s.2 0 .3-.2c.2 0 .3 0 .3.3h-1.7v.2l.1.1h2.2l.6-.2h.4l.6-.1c.6 0 .5-.1 1.5-.3.8 0 1.5-.2 2.2-.4.5 0 .2 0 .3-.1h.4-2.9l.8-.2h.4l.2-.1c1.1 0 1.5.3 7-.8.2 0 .2-.4.4-1 0 .1-.2.1-.2 0l-1.6.3-.2-.2h.9c.3 0 .6-.2.9-.4 0 0-.2.1 0 .1Zm-40.3.6h-.4l.6-1.7h.3c0 .6-.3 1.2-.5 1.7Zm.4-1.8v-.1c0-.2.1-.3.3-.3 0 .3 0 .4-.3.4Zm5.2 4h-.6.6Zm-.8 0-.6.3h-1v-.3l1.7-.1h-.1Zm5-24h-.3c0-.2 0-.3.2-.3h.5a.3.3 0 0 1-.2.3h-.1Zm6-1v.2h-.3a.3.3 0 0 1 .2-.3Zm-1.5.5h-.6v-.2c.5 0 1 0 1.5-.2h.2v.4h-.2l-.5-.1a1 1 0 0 1-.4.1Zm.7 2 1-.1-1 .2Zm1-.6v-.1h.6-.6Zm.2-1.6h-.2l.1-.3h1l-.9.3Zm.5 2.2v-.2h.5c.1 0 .2 0 .2.2h-.7Zm2.8-3.8-.6.2h-.1a6 6 0 0 1-1.1 0l1.8-.1v-.1Zm-.7 2.6v.2h-.8l.8-.2Zm1.4.7-.5-.2-.9.2h-.6l-.1-.1h.7l1.6-.3h.8l-1 .3v.1Zm8.3-2.2h.2l1-.6c-.2 1-.7 2-1.4 2.8l-.5-.2.7-2Zm-1.4 2.5c0 .3-.2.4-.3.4v-.3l.3-.1Zm-.9 2.1c0-.5.3-1 .6-1.5v.1c0 .9-.2 1.3-.5 1.3v.5l-.3.7-.1-.7c.1 0 .2-.1.3-.4Zm-.3 1.2-.3 1v-.4c0-.4.2-.6.3-.6Zm-6.7 19h.2v.3l-.2-.1v-.1Zm9.4.3s0-.1-.1 0h-.5v-.1l1.2-.2c-.3 0-.5.1-.7.3Zm-.6-1.7h-.6v-.1h.6l.5-.2h1l.2.1-1.7.1Zm2.5-.3h-.7.6s.2 0 0 .1h.1Zm0 0v-.2h.4v.1h-.4v.1Zm.9 0v-.2l.2-.1a.3.3 0 0 1 .2.2h-.4Zm.9-.2v-.1h.4-.4Zm.6 0v-.3l.2.2h.2-.4Zm8.1-1v-.3.2l-.2.3.2-.1v-.3.1Zm.7.3v.2h.4l-.4-.2Z" style="fill:#f9dc3e;fill:color(display-p3 .9765 .8627 .2431);fill-opacity:1"/><path fill="url(#i)" d="M600.8 254.8a8 8 0 0 1-6.3 0l-16-6.6a8.3 8.3 0 0 1-4.9-6l-3.3 1.4c-.3.1-.5.3-.7.6l-.2.8a1.5 1.5 0 0 0 1 1.4l6.8 2.9a8.3 8.3 0 0 1 5.2 7.7 8.3 8.3 0 0 1-5 7.7h-.1a8 8 0 0 1-6.3 0l-1.6-.6a8 8 0 0 1-11 6l-25-10.4a1.5 1.5 0 0 0-1.9.5l-.2.9a1.5 1.5 0 0 0 1 1.4l6.9 2.8a8.3 8.3 0 0 1 5.1 7.7 8.3 8.3 0 0 1-5 7.7l-2.2 1a3.3 3.3 0 0 1-3.6-.8 3.5 3.5 0 0 1-.8-3.7 3.3 3.3 0 0 1 1.8-1.8l2.2-1c.2 0 .5-.2.6-.5l.3-.9a1.5 1.5 0 0 0-1-1.3l-6.9-3a8.3 8.3 0 0 1-5.1-7.6 8.3 8.3 0 0 1 3.6-7 8 8 0 0 1 7.7-.7l25 10.4a1.5 1.5 0 0 0 1 0c.3 0 .6-.3.7-.5l.3-.9a1.5 1.5 0 0 0-1-1.4l-17.8-7.4a3.4 3.4 0 0 1-1.7-4.4 3.3 3.3 0 0 1 4.2-1.9l17.8 7.4 9 3.8a1.5 1.5 0 0 0 1.2 0h.2a1.4 1.4 0 0 0 .9-1.5 1.5 1.5 0 0 0-1-1.4l-6.9-2.9a8.3 8.3 0 0 1-5.1-7.6 8.3 8.3 0 0 1 5-7.8l12.6-5.3c.8-.3 1.7-.3 2.5 0a3.4 3.4 0 0 1 1.9 4.5c-.3.8-1 1.5-1.8 1.8l-1.9.8a1.4 1.4 0 0 0-.9 1.4 1.5 1.5 0 0 0 1 1.4l15.9 6.7a1.5 1.5 0 0 0 1.1 0c.7-.3 1-1.2.8-1.9-.4-.8-.4-1.8 0-2.6a3.3 3.3 0 0 1 4.3-1.8c.8.3 1.5 1 1.8 1.8.9 2 1 4.3.1 6.3a8 8 0 0 1-4.3 4.5Z"/><path fill="#fff" d="M599.6 252.1a5.2 5.2 0 0 1-4 0l-16-6.6a5.4 5.4 0 0 1-3-3.5 5.4 5.4 0 0 1 .6-4.5l-8 3.4a4.3 4.3 0 0 0-2.7 4.1 4.5 4.5 0 0 0 2.8 4.2l6.8 2.9a5.3 5.3 0 0 1 3.4 5c0 1-.3 2-.9 2.9-.6.9-1.4 1.6-2.3 2h-.2a5.2 5.2 0 0 1-4 0l-6.4-2.6a5.4 5.4 0 0 1 .1 6 5.1 5.1 0 0 1-4.4 2.4c-.7 0-1.4-.2-2-.5l-25-10.4a4.4 4.4 0 0 0-3.4 0 4.3 4.3 0 0 0-2.6 4.2 4.5 4.5 0 0 0 2.8 4.1l6.8 3a5.3 5.3 0 0 1 3.3 4.8 5.3 5.3 0 0 1-3.1 5l-2.2 1h-.3a.4.4 0 0 1-.3-.6l.2-.3 2.2-.9a4.4 4.4 0 0 0 2.7-4.1c0-1.9-1-3.5-2.8-4.2l-6.9-2.9a5.3 5.3 0 0 1-3.3-5 5.3 5.3 0 0 1 3.2-4.9 5.2 5.2 0 0 1 4 0l25 10.4a4.4 4.4 0 0 0 6.1-4.1 4.5 4.5 0 0 0-2.8-4.1l-17.8-7.5a.4.4 0 0 1-.1-.7.4.4 0 0 1 .3 0h.2l17.7 7.4 9 3.7a4.4 4.4 0 0 0 3.5 0h.1a4.4 4.4 0 0 0 2.7-4.2c0-1.8-1-3.4-2.8-4.1l-6.9-3a5.3 5.3 0 0 1-3.3-4.9 5.3 5.3 0 0 1 3.2-5l12.6-5.2H581.7a.4.4 0 0 1 .3.2v.4l-.3.2-1.8.8a4.3 4.3 0 0 0-2.7 4.1 4.5 4.5 0 0 0 2.8 4.2l15.9 6.6a4.4 4.4 0 0 0 3.4 0c2.2-1 3.2-3.5 2.3-5.7v-.2a.4.4 0 0 1 .2-.4.4.4 0 0 1 .3 0l.2.1v.2a5.3 5.3 0 0 1 .1 4 5.2 5.2 0 0 1-2.8 2.8Z" style="fill:#fff;fill-opacity:1"/><path fill="#0082C2" d="M462.2 90.2h7.4v2.9h-3.8v17h3.8v2.9h-7.4V90.2Zm19.2 2.7a8 8 0 0 1 5.3 1.8l-2 2.4c-1-.8-2-1.2-3.2-1.2-1.2 0-2.1.4-2.8 1.4-.7 1-1 2.4-1 4.3 0 2 .3 3.4 1 4.4.7.9 1.6 1.4 2.8 1.4.8 0 1.4-.2 2-.4l1.6-1.1 1.8 2.3a7.5 7.5 0 0 1-5.6 2.2 8 8 0 0 1-4-1 7 7 0 0 1-2.7-3c-.7-1.3-1-2.9-1-4.8 0-1.8.3-3.3 1-4.6a7.1 7.1 0 0 1 2.8-3c1.2-.7 2.5-1 4-1Zm12.9 4c1.9 0 3.4.5 4.5 1.8a7 7 0 0 1 1.7 4.9c0 2.1-.6 3.8-1.7 5a5.8 5.8 0 0 1-4.5 1.8c-2 0-3.5-.6-4.6-1.8a7.2 7.2 0 0 1-1.6-5c0-1.3.2-2.5.7-3.5.5-1 1.2-1.9 2.1-2.4 1-.6 2-.9 3.4-.9Zm0 2.7c-.8 0-1.4.4-1.8 1-.3.6-.5 1.6-.5 3s.2 2.4.5 3c.4.7 1 1 1.8 1s1.3-.3 1.7-1c.4-.6.5-1.6.5-3s-.1-2.4-.5-3c-.4-.6-1-1-1.7-1Zm18.2-2.8c.9 0 1.6.3 2 1 .4.5.6 1.5.6 2.8v9.4H512v-9c0-.5 0-.8-.2-1l-.4-.2c-.5 0-1 .3-1.4.8v9.4h-2.7v-9l-.1-1c0-.1-.2-.2-.5-.2-.4 0-.9.3-1.3.8v9.4H502V97.3h2.8l.2 1.2 1.3-1.3c.4-.2.9-.4 1.4-.4.5 0 1 .2 1.2.4.4.2.6.6.8 1.1.8-1 1.8-1.5 2.8-1.5Zm11.9 0c1.6 0 2.8.6 3.5 1.8a9.2 9.2 0 0 1 1.1 5c0 1.3-.2 2.5-.6 3.5-.3 1-.9 1.9-1.6 2.4-.8.6-1.6 1-2.6 1-1.3 0-2.3-.5-3-1.4v5.8l-3.9.4v-18h3.4l.2 1.4a4.2 4.2 0 0 1 3.5-1.8Zm-1.2 2.8c-.8 0-1.5.5-2 1.5v5.4c.2.4.5.7.8.9l1 .2c.7 0 1.2-.3 1.6-1 .4-.6.5-1.6.5-3a7 7 0 0 0-.4-3c-.4-.7-.8-1-1.5-1Zm14-9c.6 0 1.1.2 1.5.6.5.4.7 1 .7 1.5a2 2 0 0 1-.7 1.6c-.4.4-1 .6-1.6.6-.6 0-1.2-.2-1.6-.6a2 2 0 0 1-.6-1.6c0-.6.2-1 .6-1.5.4-.4 1-.6 1.6-.6Zm2.2 16.8h3.3v2.6H532v-2.6h3.6v-7.6h-3.5v-2.5h7.3v10.1Zm13.2-1.4c0 1 .5 1.4 1.6 1.4.6 0 1.2-.1 1.8-.4l1 2.6c-1.1.5-2.3.8-3.8.8-1.4 0-2.6-.4-3.3-1.3-.7-.8-1.1-2-1.1-3.6V94.8H545v-2.6h7.6V106Zm11-1.3c.1 2 1.2 3 3 3a6 6 0 0 0 3.2-1.1l1.6 2c-.7.6-1.4 1-2.3 1.4-.8.3-1.8.4-2.8.4-1.5 0-2.7-.3-3.7-.8-1-.6-1.7-1.4-2.2-2.4a8 8 0 0 1-.8-3.6 8 8 0 0 1 .8-3.4 5.8 5.8 0 0 1 5.5-3.4c1.2 0 2.2.3 3.1.8a5 5 0 0 1 2 2.3c.6 1 .8 2.1.8 3.5v1.3h-8.3Zm2.3-5.3a2 2 0 0 0-1.7.7 4 4 0 0 0-.7 2.3h4.6c0-2-.8-3-2.2-3Zm18.3-2.5c.8 0 1.5.1 2.1.4l-.6 5.3h-2.4v-2.4c-.8.2-1.4.5-2 1.2-.5.6-.9 1.4-1.2 2.4v3.7h2.5v2.5h-8v-2.5h1.7v-7.7h-1.7v-2.5h4.6l.7 2.8c.5-1 1-1.9 1.7-2.4.7-.6 1.6-.8 2.6-.8Zm13.6 16h-7.4v-2.8h3.8v-17h-3.8v-2.9h7.4V113ZM501.5 123c1.3 0 2.3.5 3 1.5.6 1 .9 2.4.9 4.2 0 1-.2 2-.5 2.9-.3.9-.8 1.5-1.4 2-.6.5-1.4.7-2.2.7-1 0-1.9-.3-2.5-1v4.8l-3.2.3v-15h2.8l.2 1.2c.4-.6.8-1 1.3-1.2.6-.3 1-.4 1.6-.4Zm-1 2.4c-.6 0-1.2.4-1.7 1.2v4.5l.7.7.8.2c.6 0 1-.2 1.4-.8.3-.5.4-1.3.4-2.5 0-1.3-.1-2.1-.4-2.6-.2-.5-.6-.7-1.2-.7Zm12.6 5.3c0 .7.4 1.1 1.3 1.1.5 0 1 0 1.6-.3l.7 2.1c-.9.5-1.9.7-3 .7-1.3 0-2.2-.3-2.9-1-.6-.7-.9-1.7-.9-3v-9h-3.1v-2.1h6.3v11.5Zm9.5 0c0 .4 0 .8.3 1 .2.2.4.3.8.3l1-.3c.3-.2.6-.5.8-.9v-7.4h3.1V134H526l-.2-1.2c-.3.5-.8.9-1.4 1.1-.5.3-1.2.4-1.8.4-1 0-1.8-.2-2.3-.8-.5-.6-.8-1.4-.8-2.5v-7.6h3.2v7.2Zm19-6.7c-.8.3-1.8.4-3.1.4a4 4 0 0 1 1.5 1.1c.3.4.5 1 .5 1.7 0 .6-.2 1.3-.5 1.8-.4.5-1 1-1.6 1.3-.7.3-1.5.4-2.4.4l-1.2-.1-.3.3v.3c0 .2 0 .4.2.5l.9.1h1.8c.8 0 1.5.2 2 .4.7.3 1.2.7 1.5 1.1.3.5.5 1 .5 1.6 0 1.1-.5 2-1.5 2.6-1 .6-2.3 1-4.2 1-1.3 0-2.3-.2-3.1-.5a3 3 0 0 1-1.6-1.1c-.3-.5-.4-1.1-.4-1.9h2.8c0 .4 0 .6.2.8 0 .2.3.3.7.4l1.5.2a4 4 0 0 0 2-.4c.3-.2.5-.5.5-.9a1 1 0 0 0-.4-.7 2 2 0 0 0-1.2-.3H535c-1 0-1.9-.2-2.4-.6-.6-.4-.8-1-.8-1.5 0-.4 0-.8.3-1.1l.8-1c-.6-.3-1.1-.7-1.4-1.2-.3-.5-.4-1-.4-1.8a3.6 3.6 0 0 1 2.2-3.4 6 6 0 0 1 2.5-.5c1 0 2 0 2.7-.3.8-.2 1.5-.6 2.3-1l.7 2.3Zm-5.7 1.1c-.5 0-1 .2-1.2.5-.3.3-.4.7-.4 1.3 0 .6.1 1 .4 1.3.3.3.7.5 1.2.5s.9-.2 1.2-.5c.3-.3.4-.7.4-1.4 0-1.1-.5-1.7-1.6-1.7Zm12-7.3c.5 0 1 .2 1.3.5.3.4.5.8.5 1.3s-.2 1-.5 1.3c-.4.3-.8.5-1.3.5a2 2 0 0 1-1.4-.5c-.4-.4-.5-.8-.5-1.3s.1-1 .5-1.3c.4-.3.8-.5 1.4-.5Zm1.9 14h2.7v2.2h-9v-2.2h3v-6.3h-2.8v-2.1h6v8.4Zm5.4-8.4h2.7l.3 1.2c.4-.5 1-1 1.5-1.2a4 4 0 0 1 1.8-.4c.9 0 1.6.3 2.1.9.5.5.8 1.3.8 2.3v7.8h-3.2v-6.9a3 3 0 0 0-.2-1.4c-.1-.2-.4-.3-.8-.3-.3 0-.6 0-1 .3l-.9.9v7.4h-3.1v-10.6Z" style="fill:#0082c2;fill:color(display-p3 0 .5083 .7625);fill-opacity:1"/><path fill="#666" d="M46.2 98.4h6.5v2.1h-4v18.2h4v2.1h-6.5V98.4Zm23.3 15c0 1-.2 1.8-.8 2.5-.5.8-1.2 1.4-2.1 1.8-1 .4-2.1.6-3.4.6-2.6 0-4.6-.7-6.1-2.2l1.5-1.7a6.5 6.5 0 0 0 4.6 1.7 4 4 0 0 0 2.4-.7c.7-.4 1-1 1-2l-.3-1.2c-.2-.3-.5-.6-1-.9l-2-.8a11 11 0 0 1-4.1-2 3.8 3.8 0 0 1-1.3-3c0-.8.2-1.6.7-2.2.5-.7 1.2-1.3 2-1.6.9-.4 1.9-.6 3-.6a8 8 0 0 1 5.5 2l-1.5 1.7a5.8 5.8 0 0 0-3.9-1.5 4 4 0 0 0-2.2.5c-.5.4-.8 1-.8 1.6 0 .5.1.8.4 1.1.2.3.6.6 1.1.9l2.4.8c1.6.5 2.8 1 3.6 1.8.9.8 1.3 1.9 1.3 3.3ZM78 105c1.8 0 3.2.6 4.2 1.8 1 1.2 1.5 2.8 1.5 4.8s-.5 3.7-1.5 5a5.2 5.2 0 0 1-4.3 1.7c-1.8 0-3.2-.6-4.2-1.7a7.4 7.4 0 0 1-1.5-5c0-2 .5-3.6 1.5-4.8 1-1.2 2.4-1.8 4.3-1.8Zm0 2c-1 0-1.8.5-2.3 1.2-.4.8-.7 2-.7 3.5s.3 2.7.7 3.4c.5.8 1.3 1.1 2.2 1.1 1 0 1.7-.3 2.2-1 .5-.8.7-2 .7-3.6 0-1.5-.2-2.7-.7-3.4a2.4 2.4 0 0 0-2.1-1.1Zm11.8 7.2c0 .7.2 1.3.5 1.6.3.3.7.5 1.3.5a3 3 0 0 0 1.7-.5 4 4 0 0 0 1.3-1.3v-9.2h2.7V118h-2.3l-.2-1.6a5.2 5.2 0 0 1-4 2c-1.2 0-2.1-.4-2.7-1-.6-.7-1-1.7-1-2.9v-9.2h2.7v8.9Zm20.6-9.2a6 6 0 0 1 2 .3l-.5 4.7h-2v-2.6c-.8 0-1.6.4-2.2 1-.7.8-1.2 1.7-1.6 3v4.7h2.6v1.9h-7.1v-2h1.8v-8.8h-1.8v-1.9h3.9l.5 3c.5-1.1 1-2 1.8-2.5.7-.5 1.6-.8 2.6-.8Zm11.5 11.1c1 0 2-.4 3-1l1.3 1.7a7.3 7.3 0 0 1-4.4 1.6c-2 0-3.5-.7-4.6-1.9a6.9 6.9 0 0 1-1.6-4.8c0-1.3.3-2.4.7-3.4.5-1 1.3-1.8 2.2-2.4 1-.6 2-1 3.3-1 1.7 0 3.2.6 4.4 1.6l-1.2 1.7c-1-.7-2-1-3.1-1a3 3 0 0 0-2.5 1.1c-.6.8-1 1.9-1 3.4s.4 2.6 1 3.3c.6.8 1.4 1.1 2.5 1.1Zm10.4-3.6c0 1.3.4 2.2 1 2.8.7.6 1.5 1 2.4 1 .6 0 1.2-.2 1.7-.3.6-.2 1.1-.5 1.7-.9l1.1 1.7-2 1.1c-.9.3-1.7.4-2.6.4-2 0-3.4-.6-4.5-1.8a7 7 0 0 1-1.6-4.8 8 8 0 0 1 .7-3.4c.4-1 1.1-1.9 2-2.4.9-.6 2-1 3-1a5 5 0 0 1 4 1.8c1 1.1 1.5 2.7 1.5 4.6v1.2h-8.4Zm3-5.5c-.9 0-1.6.3-2.1 1-.6.5-.9 1.5-1 2.7h6c-.1-1.2-.4-2.1-.8-2.8-.5-.6-1.2-1-2.1-1ZM165 101c1 0 2 .1 2.8.4.7.3 1.5.7 2.2 1.3l-1.5 1.7c-1-.8-2.1-1.2-3.4-1.2a4 4 0 0 0-3.3 1.5c-.8 1-1.3 2.7-1.3 4.9s.5 3.8 1.3 4.8a4 4 0 0 0 3.3 1.6c.8 0 1.5-.2 2-.4l1.8-1 1.3 1.6c-1.3 1.4-3 2-5.2 2a6.9 6.9 0 0 1-6.5-4c-.5-1.2-.9-2.8-.9-4.6 0-1.8.4-3.3 1-4.6a7 7 0 0 1 6.4-4Zm13 3.9c1.7 0 3.1.6 4.1 1.8 1 1.2 1.5 2.8 1.5 4.8s-.5 3.7-1.5 5a5.2 5.2 0 0 1-4.2 1.7c-1.8 0-3.3-.6-4.3-1.7a7.4 7.4 0 0 1-1.4-5c0-2 .5-3.6 1.5-4.8 1-1.2 2.4-1.8 4.2-1.8Zm0 2c-1 0-1.8.5-2.3 1.2-.5.8-.7 2-.7 3.5s.2 2.7.7 3.4c.5.8 1.2 1.1 2.2 1.1 1 0 1.7-.3 2.2-1 .5-.8.7-2 .7-3.6 0-1.5-.2-2.7-.7-3.4a2.4 2.4 0 0 0-2.2-1.1Zm19.2-6.8V118H195l-.2-1.6a4.2 4.2 0 0 1-3.6 2 4 4 0 0 1-3.5-1.9 8.6 8.6 0 0 1-1.2-4.8c0-1.3.2-2.5.6-3.5.4-1 1-1.8 1.7-2.3.8-.6 1.6-1 2.7-1 1.3 0 2.3.6 3.2 1.5v-6.5l2.6.3Zm-5.1 6.9c-1 0-1.7.3-2.2 1.1-.5.8-.7 2-.7 3.5 0 3 .9 4.6 2.6 4.6 1.1 0 2-.6 2.8-1.9v-6c-.7-.9-1.5-1.3-2.5-1.3Zm11.5 5.4c.1 1.3.5 2.2 1.1 2.8.6.6 1.4 1 2.4 1 .6 0 1.2-.2 1.7-.3l1.6-.9 1.2 1.7a7.8 7.8 0 0 1-4.6 1.6c-2 0-3.5-.7-4.5-1.9a7 7 0 0 1-1.6-4.8 8 8 0 0 1 .7-3.4c.4-1 1-1.9 2-2.4.9-.6 1.9-1 3-1a5 5 0 0 1 4 1.8c1 1.1 1.5 2.7 1.5 4.6v1.2h-8.5Zm3-5.5c-.8 0-1.5.3-2 1-.6.5-.9 1.5-1 2.7h5.9c0-1.2-.3-2.1-.8-2.8-.4-.6-1.1-1-2-1Zm17.2 13.8h-6.5v-2.1h4v-18.2h-4v-2.1h6.5v22.4Z" style="fill:#666;fill:color(display-p3 .4 .4 .4);fill-opacity:1"/><g filter="url(#j)"><path fill="#313640" fill-rule="evenodd" d="M68.3 128c-4 0-7.3 3.3-7.3 7.3v185.4c0 4 3.3 7.3 7.3 7.3h138.2c4 0 7.2-3.3 7.2-7.3V162l-34-33.9H68.4Z" clip-rule="evenodd" style="fill:#313640;fill:color(display-p3 .1917 .2129 .25);fill-opacity:1"/><path fill="#fff" d="m179.8 132.8 29 29.1h-23a6 6 0 0 1-6-6v-23Z" style="fill:#fff;fill-opacity:1"/><rect width="4.6" height="4.6" x="78" y="260.7" fill="#7E8590" rx="1.8" style="fill:#7e8590;fill:color(display-p3 .4941 .5216 .5647);fill-opacity:1"/><rect width="4.6" height="4.6" x="115.1" y="260.7" fill="#FF6490" rx="2.3" style="fill:#ff6490;fill:color(display-p3 1 .3922 .5647);fill-opacity:1"/><rect width="14.3" height="4.6" x="97.4" y="169.2" fill="#FF6490" rx="2.3" style="fill:#ff6490;fill:color(display-p3 1 .3922 .5647);fill-opacity:1"/><rect width="20" height="4.6" x="114.5" y="169.2" fill="#7DFF86" rx="2.3" style="fill:#7dff86;fill:color(display-p3 .4902 1 .5255);fill-opacity:1"/><rect width="4.6" height="4.6" x="138.5" y="169.2" fill="#fff" rx="2.3" style="fill:#fff;fill-opacity:1"/><rect width="4.6" height="4.6" x="78" y="169.2" fill="#7E8590" rx="1.8" style="fill:#7e8590;fill:color(display-p3 .4941 .5216 .5647);fill-opacity:1"/><rect width="4.6" height="4.6" x="88.3" y="169.2" fill="#fff" rx="1.8" style="fill:#fff;fill-opacity:1"/><rect width="30.8" height="4.6" x="147.1" y="169.2" fill="#FFEB5C" rx="2.3" style="fill:#ffeb5c;fill:color(display-p3 1 .9216 .3608);fill-opacity:1"/><rect width="7.4" height="4.6" x="181.9" y="169.2" fill="#fff" rx="2.3" style="fill:#fff;fill-opacity:1"/><rect width="4.6" height="4.6" x="78" y="249.2" fill="#7E8590" rx="1.8" style="fill:#7e8590;fill:color(display-p3 .4941 .5216 .5647);fill-opacity:1"/><rect width="4.6" height="4.6" x="115.1" y="249.2" fill="#fff" rx="2.3" style="fill:#fff;fill-opacity:1"/><rect width="17.7" height="4.6" x="123.7" y="249.2" fill="#76D8FF" rx="2.3" style="fill:#76d8ff;fill:color(display-p3 .4627 .8471 1);fill-opacity:1"/><rect width="8.6" height="4.6" x="145.4" y="249.2" fill="#fff" rx="2.3" style="fill:#fff;fill-opacity:1"/><rect width="4.6" height="4.6" x="78" y="226.2" fill="#7E8590" rx="1.8" style="fill:#7e8590;fill:color(display-p3 .4941 .5216 .5647);fill-opacity:1"/><rect width="4.6" height="4.6" x="98" y="226.2" fill="#fff" rx="2.3" style="fill:#fff;fill-opacity:1"/><rect width="4.6" height="4.6" x="123.7" y="226.2" fill="#7DFF86" rx="2.3" style="fill:#7dff86;fill:color(display-p3 .4902 1 .5255);fill-opacity:1"/><rect width="13.7" height="4.6" x="106" y="226.2" fill="#FF6490" rx="2.3" style="fill:#ff6490;fill:color(display-p3 1 .3922 .5647);fill-opacity:1"/><rect width="19.4" height="4.6" x="132.2" y="226.2" fill="#FFEB5C" rx="2.3" style="fill:#ffeb5c;fill:color(display-p3 1 .9216 .3608);fill-opacity:1"/><rect width="10.9" height="4.6" x="156.2" y="226.2" fill="#7DFF86" rx="2.3" style="fill:#7dff86;fill:color(display-p3 .4902 1 .5255);fill-opacity:1"/><rect width="26.3" height="4.6" x="171.1" y="226.2" fill="#FFEB5C" rx="2.3" style="fill:#ffeb5c;fill:color(display-p3 1 .9216 .3608);fill-opacity:1"/><rect width="4.6" height="4.6" x="78" y="237.7" fill="#7E8590" rx="1.8" style="fill:#7e8590;fill:color(display-p3 .4941 .5216 .5647);fill-opacity:1"/><rect width="4.6" height="4.6" x="123.7" y="237.7" fill="#FF6490" rx="2.3" style="fill:#ff6490;fill:color(display-p3 1 .3922 .5647);fill-opacity:1"/><rect width="4.6" height="4.6" x="162.5" y="237.7" fill="#FF6490" rx="2.3" style="fill:#ff6490;fill:color(display-p3 1 .3922 .5647);fill-opacity:1"/><rect width="9.1" height="4.6" x="110.5" y="237.7" fill="#fff" rx="2.3" style="fill:#fff;fill-opacity:1"/><rect width="26.3" height="4.6" x="132.2" y="237.7" fill="#fff" rx="2.3" style="fill:#fff;fill-opacity:1"/><rect width="26.3" height="4.6" x="171.1" y="237.7" fill="#fff" rx="2.3" style="fill:#fff;fill-opacity:1"/><rect width="4.6" height="4.6" x="78" y="203.2" fill="#7E8590" rx="1.8" style="fill:#7e8590;fill:color(display-p3 .4941 .5216 .5647);fill-opacity:1"/><rect width="4.6" height="4.6" x="88.3" y="203.2" fill="#fff" rx="1.8" style="fill:#fff;fill-opacity:1"/><rect width="4.6" height="4.6" x="119.1" y="203.2" fill="#fff" rx="2.3" style="fill:#fff;fill-opacity:1"/><rect width="18.3" height="4.6" x="97.4" y="203.2" fill="#fff" rx="2.3" style="fill:#fff;fill-opacity:1"/><rect width="4.6" height="4.6" x="78" y="214.7" fill="#7E8590" rx="1.8" style="fill:#7e8590;fill:color(display-p3 .4941 .5216 .5647);fill-opacity:1"/><rect width="4.6" height="4.6" x="88.3" y="214.7" fill="#fff" rx="1.8" style="fill:#fff;fill-opacity:1"/><rect width="18.3" height="4.6" x="97.4" y="214.7" fill="#FF6490" rx="2.3" style="fill:#ff6490;fill:color(display-p3 1 .3922 .5647);fill-opacity:1"/><rect width="26.3" height="4.6" x="119.1" y="214.7" fill="#fff" rx="2.3" style="fill:#fff;fill-opacity:1"/><rect width="4.6" height="4.6" x="78" y="180.7" fill="#7E8590" rx="1.8" style="fill:#7e8590;fill:color(display-p3 .4941 .5216 .5647);fill-opacity:1"/><rect width="4.6" height="4.6" x="88.3" y="180.7" fill="#fff" rx="1.8" style="fill:#fff;fill-opacity:1"/><rect width="4.6" height="4.6" x="136.8" y="180.7" fill="#FFEB5C" rx="2.3" style="fill:#ffeb5c;fill:color(display-p3 1 .9216 .3608);fill-opacity:1"/><rect width="4.6" height="4.6" x="181.9" y="180.7" fill="#fff" rx="2.3" style="fill:#fff;fill-opacity:1"/><rect width="9.7" height="4.6" x="97.4" y="180.7" fill="#FF6490" rx="2.3" style="fill:#ff6490;fill:color(display-p3 1 .3922 .5647);fill-opacity:1"/><rect width="22.3" height="4.6" x="110.5" y="180.7" fill="#fff" rx="2.3" style="fill:#fff;fill-opacity:1"/><rect width="17.7" height="4.6" x="144.8" y="180.7" fill="#C8D1DD" rx="2.3" style="fill:#c8d1dd;fill:color(display-p3 .7843 .8196 .8667);fill-opacity:1"/><rect width="12" height="4.6" x="165.9" y="180.7" fill="#FFEB5C" rx="2.3" style="fill:#ffeb5c;fill:color(display-p3 1 .9216 .3608);fill-opacity:1"/><rect width="9.7" height="4.6" x="97.4" y="157.7" fill="#FF6490" rx="2.3" style="fill:#ff6490;fill:color(display-p3 1 .3922 .5647);fill-opacity:1"/><rect width="4.6" height="4.6" x="78" y="157.7" fill="#7E8590" rx="1.8" style="fill:#7e8590;fill:color(display-p3 .4941 .5216 .5647);fill-opacity:1"/><rect width="4.6" height="4.6" x="88.3" y="157.7" fill="#fff" rx="1.8" style="fill:#fff;fill-opacity:1"/><rect width="9.7" height="4.6" x="110.5" y="157.7" fill="#fff" rx="2.3" style="fill:#fff;fill-opacity:1"/><rect width="17.7" height="4.6" x="123.7" y="157.7" fill="#fff" rx="2.3" style="fill:#fff;fill-opacity:1"/><rect width="11.4" height="4.6" x="144.8" y="157.7" fill="#fff" rx="2.3" style="fill:#fff;fill-opacity:1"/><rect width="4.6" height="4.6" x="78" y="192.2" fill="#7E8590" rx="1.8" style="fill:#7e8590;fill:color(display-p3 .4941 .5216 .5647);fill-opacity:1"/><rect width="4.6" height="4.6" x="88.3" y="192.2" fill="#fff" rx="1.8" style="fill:#fff;fill-opacity:1"/><rect width="4.6" height="4.6" x="110.5" y="192.2" fill="#fff" rx="2.3" style="fill:#fff;fill-opacity:1"/><rect width="9.7" height="4.6" x="97.4" y="192.2" fill="#FF6490" rx="2.3" style="fill:#ff6490;fill:color(display-p3 1 .3922 .5647);fill-opacity:1"/><rect width="8.6" height="4.6" x="119.1" y="192.2" fill="#FF6490" rx="2.3" style="fill:#ff6490;fill:color(display-p3 1 .3922 .5647);fill-opacity:1"/><rect width="98.2" height="33.9" x="105.5" y="276.2" stroke="#FCFCFC" stroke-width="1.8" rx="2.7" style="stroke:#fcfcfc;stroke:color(display-p3 .9882 .9882 .9882);stroke-opacity:1"/><path fill="#fff" d="m120.6 288.5-8 4.8 8 4.8-1.3 1.8-8.8-5.5v-2.2l8.9-5.5 1.2 1.8Zm15.4 6.6a6 6 0 0 1-1.5 4.1c-1 1-2.4 1.6-4.3 1.6-1.7 0-3.2-.5-4.6-1.5l1.1-1.6 1.7.8 1.7.2a3 3 0 0 0 2.3-1 4 4 0 0 0 .9-2.7v-8.3h-4.8v-2h7.5V295Zm16.6 1a4.6 4.6 0 0 1-2.8 4.2 8 8 0 0 1-3.3.5 8 8 0 0 1-5.9-2.1l1.5-1.6a6.2 6.2 0 0 0 4.4 1.6 4 4 0 0 0 2.3-.6c.6-.5 1-1.1 1-2 0-.4-.1-.8-.3-1.1-.2-.4-.5-.6-1-.9l-2-.8c-1.8-.5-3-1.1-3.9-1.8a3.6 3.6 0 0 1-1.2-2.9c0-.8.2-1.6.7-2.2.4-.7 1.1-1.2 2-1.5a7.6 7.6 0 0 1 8.1 1.4l-1.4 1.5c-1.1-1-2.4-1.4-3.8-1.4-.9 0-1.6.2-2.1.5-.5.4-.8.9-.8 1.5 0 .5.1.8.3 1.1.3.3.6.6 1.2.8l2.2.8a9 9 0 0 1 3.5 1.8c.8.7 1.3 1.7 1.3 3.1Zm6.8-11.5 3 5.7 3.2-5.7h2.8L164 292l5 8.6h-3l-3.6-6.7-3.5 6.7H156l4.8-8.4-4.4-7.5h3Zm12.8 17.4 9.8-20.2 2 1-9.7 20.2-2-1Zm26.6-9.8v2.2L190 300l-1.3-1.8 7.9-4.8-7.9-4.7 1.2-2 9 5.6Z" style="fill:#fff;fill-opacity:1"/></g><path fill="#666" d="M267.6 201.2V216h-2l-.1-1.3a3.5 3.5 0 0 1-3 1.6c-1.3 0-2.3-.5-3-1.5-.6-1-1-2.4-1-4 0-1.2.2-2.1.5-3 .4-.8.9-1.5 1.5-2 .6-.4 1.4-.6 2.2-.6 1.1 0 2 .3 2.7 1.1V201l2.2.3Zm-4.3 5.7a2 2 0 0 0-1.8 1c-.4.6-.6 1.5-.6 2.8 0 2.6.8 3.9 2.2 3.9.9 0 1.7-.5 2.3-1.6v-5c-.6-.7-1.3-1.1-2.1-1.1Zm9.7 4.5c0 1 .3 1.8.8 2.4.6.5 1.2.7 2 .7.5 0 1 0 1.4-.2l1.4-.7 1 1.4c-.5.4-1.1.7-1.8 1-.6.1-1.3.3-2 .3-1.7 0-3-.5-3.8-1.5-1-1-1.4-2.4-1.4-4 0-1.1.2-2 .6-3 .4-.8 1-1.4 1.7-2 .7-.4 1.6-.6 2.6-.6 1.4 0 2.5.4 3.3 1.4.8 1 1.2 2.2 1.2 3.8v1h-7Zm2.5-4.6c-.7 0-1.3.3-1.8.8-.4.5-.7 1.3-.8 2.3h5a4 4 0 0 0-.7-2.3 2 2 0 0 0-1.7-.8Zm13 9.2H286l-3.7-10.6h2.4l2.7 8.7 2.7-8.7h2.3l-3.8 10.6Zm22.2-1.4c.7 0 1.2-.2 1.6-.4.4-.3.6-.6.6-1l-.1-.8c-.2-.2-.4-.4-.8-.5l-1.6-.6c-1.1-.3-2-.6-2.6-1.1-.6-.5-.9-1.1-.9-2 0-1 .4-1.7 1.2-2.2a5 5 0 0 1 3-.8c1.6 0 3 .4 4 1.2l-.9 1.4c-1-.6-2-1-3-1-1.3 0-2 .4-2 1.2l.2.7.8.5 1.7.5a7 7 0 0 1 2.6 1.2c.5.4.8 1.1.8 2 0 1.2-.4 2-1.3 2.5-1 .6-2 .9-3.3.9-1.8 0-3.2-.5-4.4-1.5l1.2-1.4c.4.4 1 .6 1.5.9a5 5 0 0 0 1.7.3Zm9.9-3.2c0 1 .4 1.8.9 2.4.5.5 1.2.7 2 .7.5 0 1 0 1.4-.2l1.4-.7 1 1.4-1.8 1-2.1.3c-1.6 0-2.9-.5-3.8-1.5-.9-1-1.3-2.4-1.3-4 0-1.1.2-2 .6-3 .3-.8 1-1.4 1.6-2 .8-.4 1.6-.6 2.6-.6 1.4 0 2.5.4 3.3 1.4.8 1 1.3 2.2 1.3 3.8l-.1 1h-7Zm2.5-4.6c-.7 0-1.3.3-1.7.8-.5.5-.8 1.3-.8 2.3h4.9a4 4 0 0 0-.7-2.3 2 2 0 0 0-1.7-.8Zm15-1.6c.6 0 1.1 0 1.6.2l-.3 4h-1.6v-2.2c-.8 0-1.4.3-2 .9-.5.5-1 1.3-1.2 2.4v3.9h2v1.6h-5.8v-1.6h1.5V207h-1.5v-1.6h3.2l.4 2.5c.4-1 1-1.6 1.5-2 .6-.5 1.4-.7 2.2-.7Zm10 10.8h-2.6l-3.8-10.6h2.5l2.6 8.7 2.7-8.7h2.3l-3.7 10.6Zm8.2-4.6c.1 1 .4 1.8 1 2.4.4.5 1.1.7 2 .7.4 0 .9 0 1.3-.2l1.4-.7 1 1.4c-.5.4-1.1.7-1.8 1-.6.1-1.3.3-2 .3-1.7 0-3-.5-3.8-1.5-1-1-1.4-2.4-1.4-4 0-1.1.2-2 .6-3 .4-.8 1-1.4 1.7-2 .7-.4 1.6-.6 2.5-.6 1.4 0 2.5.4 3.4 1.4.8 1 1.2 2.2 1.2 3.8v1h-7Zm2.6-4.6c-.8 0-1.3.3-1.8.8s-.7 1.3-.8 2.3h5a4 4 0 0 0-.7-2.3 2 2 0 0 0-1.7-.8Zm15-1.6c.5 0 1 0 1.6.2l-.4 4h-1.6v-2.2c-.7 0-1.4.3-2 .9-.5.5-.9 1.3-1.2 2.4v3.9h2.1v1.6h-6v-1.6h1.6V207h-1.5v-1.6h3.2l.4 2.5a5 5 0 0 1 1.5-2c.6-.5 1.4-.7 2.3-.7ZM299.6 251.1c0 1 .5 1.4 1.6 1.4.5 0 1-.2 1.6-.4l.6 1.6c-.7.4-1.6.6-2.7.6-1 0-1.9-.3-2.5-1-.6-.5-.9-1.3-.9-2.4v-10h-3.2v-1.7h5.5v12Zm11.5-8c1.5 0 2.7.6 3.5 1.6.8 1 1.2 2.3 1.2 4 0 1.7-.4 3-1.2 4-.9 1-2 1.6-3.6 1.6-1.5 0-2.7-.5-3.5-1.5-.8-1-1.2-2.3-1.2-4 0-1.8.4-3.1 1.2-4.1.9-1 2-1.5 3.6-1.5Zm0 1.8a2 2 0 0 0-1.9 1c-.4.6-.6 1.5-.6 2.8 0 1.3.2 2.3.6 3 .4.5 1 .8 1.8.8a2 2 0 0 0 1.9-.9c.4-.6.6-1.6.6-2.9 0-1.3-.2-2.2-.6-2.9a2 2 0 0 0-1.8-.9Zm15.7 6.5c0 .4 0 .7.2 1l.6.3-.5 1.6c-1.1-.2-1.8-.7-2.2-1.5-.4.5-.9.8-1.4 1.1-.6.2-1.2.4-2 .4-1 0-1.9-.3-2.5-1-.6-.5-1-1.3-1-2.3 0-1.1.5-2 1.4-2.6.9-.6 2.1-.9 3.7-.9h1.5v-.7c0-.6-.2-1.1-.6-1.4-.4-.3-1-.5-1.7-.5-.4 0-.8 0-1.3.2-.5 0-1 .2-1.5.4l-.6-1.6c1.3-.5 2.5-.7 3.7-.7 1.4 0 2.5.3 3.2.9.7.6 1 1.5 1 2.6v4.7Zm-4.6 1.2c.5 0 1-.1 1.4-.3l1-1v-2.4h-1.2c-1 0-1.8.2-2.3.5-.4.4-.7.9-.7 1.5s.2 1 .5 1.3c.3.3.7.4 1.3.4Zm16.9-13.4V254h-2l-.1-1.3a3.5 3.5 0 0 1-3 1.6c-1.3 0-2.3-.5-3-1.5-.7-1-1-2.4-1-4 0-1.2.2-2.1.5-3 .4-.8.8-1.5 1.5-2 .6-.4 1.3-.6 2.2-.6 1 0 2 .3 2.7 1.1V239l2.2.3Zm-4.3 5.7a2 2 0 0 0-1.8 1c-.4.6-.6 1.5-.6 2.8 0 2.6.7 3.9 2.2 3.9.9 0 1.6-.5 2.3-1.6v-5c-.6-.7-1.3-1.1-2.1-1.1Z" style="fill:#666;fill:color(display-p3 .4 .4 .4);fill-opacity:1"/><path fill="#0082C2" d="M661.6 214.6a3 3 0 0 0 1.6-.4c.4-.3.6-.6.6-1l-.1-.8c-.2-.2-.4-.4-.8-.5l-1.6-.6c-1.1-.3-2-.6-2.6-1.1-.6-.5-.9-1.1-.9-2 0-1 .4-1.7 1.2-2.2a5 5 0 0 1 3-.8c1.6 0 3 .4 4 1.2l-.9 1.4c-1-.6-2-1-3-1-1.3 0-2 .4-2 1.2l.2.7.8.5 1.7.5a7 7 0 0 1 2.6 1.2c.5.4.8 1.1.8 2 0 1.2-.4 2-1.3 2.5-1 .6-2 .9-3.3.9-1.8 0-3.2-.5-4.4-1.5l1.2-1.4c.4.4 1 .6 1.5.9a5 5 0 0 0 1.7.3Zm12.3-9.4c1.5 0 2.7.5 3.5 1.5a6 6 0 0 1 1.2 4c0 1.7-.4 3-1.2 4-.9 1-2 1.6-3.5 1.6-1.6 0-2.7-.5-3.6-1.5-.8-1-1.2-2.3-1.2-4 0-1.8.4-3.1 1.2-4.1.9-1 2-1.5 3.6-1.5Zm0 1.7a2 2 0 0 0-1.9 1c-.4.6-.6 1.5-.6 2.8 0 1.3.2 2.3.6 3 .4.5 1 .8 1.9.8a2 2 0 0 0 1.8-.9c.4-.6.6-1.6.6-2.9 0-1.3-.2-2.2-.6-2.9a2 2 0 0 0-1.8-.9Zm9.9 6c0 .5.1 1 .3 1.3.3.2.7.4 1.2.4s1-.2 1.4-.5c.4-.2.8-.6 1-1v-7.7h2.3V216h-2v-1.4c-.5.6-1 1-1.6 1.2-.6.3-1.2.5-1.8.5-1 0-1.8-.3-2.3-.9-.5-.5-.8-1.3-.8-2.3v-7.7h2.3v7.4Zm17.1-7.7c.6 0 1.1 0 1.6.2l-.3 4h-1.6v-2.2c-.8 0-1.4.3-2 .9-.5.5-1 1.3-1.2 2.4v3.9h2v1.6h-5.8v-1.6h1.5V207h-1.5v-1.6h3.2l.4 2.5a5 5 0 0 1 1.5-2c.6-.5 1.4-.7 2.2-.7Zm9.6 9.2c.8 0 1.7-.3 2.6-.9l1 1.5-1.7 1c-.6.1-1.3.3-2 .3-1.6 0-2.9-.5-3.8-1.5-.9-1-1.3-2.4-1.3-4 0-1.1.2-2 .6-2.9.4-.9 1-1.5 1.8-2 .7-.5 1.7-.7 2.7-.7 1.4 0 2.7.4 3.7 1.2l-1 1.4c-.9-.5-1.8-.8-2.6-.8-1 0-1.6.3-2.1 1-.5.5-.8 1.5-.8 2.8 0 1.2.3 2.2.8 2.7.5.6 1.2 1 2 1Zm8.6-3c.1 1 .4 1.8 1 2.4.5.5 1.1.7 2 .7.4 0 .9 0 1.3-.2l1.4-.7 1 1.4c-.5.4-1.1.7-1.8 1-.6.1-1.3.3-2 .3-1.7 0-3-.5-3.8-1.5-1-1-1.4-2.4-1.4-4 0-1.1.2-2 .6-3 .4-.8 1-1.4 1.7-2 .7-.4 1.6-.6 2.5-.6 1.4 0 2.6.4 3.4 1.4.8 1 1.2 2.2 1.2 3.8v1h-7Zm2.6-4.6c-.8 0-1.3.3-1.8.8-.4.5-.7 1.3-.8 2.3h5a4 4 0 0 0-.7-2.3 2 2 0 0 0-1.7-.8Zm24.6-1.6c2.5 0 3.8 1.8 3.8 5.5a7 7 0 0 1-1 4c-.8 1-1.8 1.6-3 1.6s-2-.4-2.8-1.2v5l-2.2.2v-14.9h2v1.4c.5-.5 1-1 1.5-1.2.5-.3 1-.4 1.7-.4Zm-.7 1.7c-.4 0-.8.1-1.2.4a4 4 0 0 0-1 1.1v5c.5.7 1.2 1.1 2 1.1a2 2 0 0 0 1.8-.9c.4-.6.5-1.6.5-2.9 0-1.3-.1-2.3-.5-2.9-.3-.6-.8-1-1.6-1Zm15.5 6.5c0 .4 0 .7.2 1l.6.3-.5 1.6c-1.1-.2-1.9-.7-2.2-1.5-.4.5-.9.8-1.5 1.1-.5.2-1.2.4-1.9.4-1 0-1.9-.3-2.5-1-.6-.5-1-1.3-1-2.3 0-1.1.5-2 1.4-2.6.8-.6 2-.9 3.7-.9h1.5v-.7c0-.6-.2-1.1-.6-1.4-.4-.3-1-.5-1.8-.5-.3 0-.8 0-1.3.2-.5 0-1 .2-1.5.4l-.5-1.6c1.2-.5 2.5-.7 3.7-.7 1.4 0 2.4.3 3.1.9.7.6 1.1 1.5 1.1 2.6v4.7Zm-4.6 1.2c.5 0 1-.1 1.3-.3.5-.3.8-.6 1-1v-2.4h-1.2c-1 0-1.7.2-2.2.5-.4.4-.7.9-.7 1.5s.2 1 .5 1.3c.3.3.7.4 1.3.4Zm17.3.8a6.3 6.3 0 0 1-3 .8 4 4 0 0 1-3-.9c-.6-.6-.9-1.4-.9-2.5v-5.7h-2.3v-1.7h2.3v-2.3l2.3-.3v2.6h3.5l-.2 1.7h-3.3v5.7c0 .6.1 1 .4 1.3.3.2.8.4 1.4.4a4 4 0 0 0 2-.5l.8 1.4Zm5.3-8.7c.4-.5.9-.9 1.5-1.1.5-.3 1.1-.4 1.8-.4 1 0 1.7.2 2.2.8.5.5.7 1.3.7 2.3v7.7h-2.2v-7.4c0-.6-.2-1-.4-1.3-.2-.3-.6-.4-1.2-.4-.4 0-.9.1-1.3.4l-1.1 1.1v7.6h-2.3v-14.8l2.3-.2v5.7ZM691.7 238.3c.4 0 .8.1 1 .4.3.2.5.6.5 1s-.2.7-.4 1c-.3.2-.6.4-1 .4-.5 0-.9-.2-1.1-.4-.3-.3-.4-.6-.4-1s.1-.8.4-1c.2-.3.6-.4 1-.4Zm1.6 14h2.8v1.7H688v-1.6h3.1V245h-3v-1.7h5.3v9Zm6.1-8.9h2l.1 1.4a4.5 4.5 0 0 1 3.4-1.6c1 0 1.7.2 2.2.8.5.5.8 1.3.8 2.3v7.7h-2.3v-8.1l-.5-.8-1-.2c-.4 0-.9.1-1.3.4-.5.3-.8.7-1.1 1.1v7.6h-2.3v-10.6Zm17.5-5.1c.4 0 .8 0 1 .4.3.2.5.6.5 1s-.2.7-.4 1c-.3.2-.7.4-1 .4-.5 0-.9-.2-1.2-.4-.2-.3-.4-.6-.4-1s.2-.8.4-1c.3-.3.7-.4 1.1-.4Zm1.7 13.5c0 1.9-.5 3.3-1.7 4.4a11 11 0 0 1-5.3 2.1l-.3-1.7c1.7-.3 3-.8 3.8-1.5.9-.7 1.3-1.8 1.3-3.2v-6.8h-4.2v-1.7h6.4v8.4Zm6.5-2.4c0 1 .4 1.8.9 2.4.5.5 1.2.7 2 .7.5 0 1 0 1.4-.2l1.4-.7 1 1.4-1.8 1-2.1.3c-1.6 0-2.9-.5-3.8-1.5-.9-1-1.3-2.4-1.3-4 0-1.1.2-2 .6-3 .3-.8 1-1.4 1.6-2 .8-.4 1.6-.6 2.6-.6 1.4 0 2.5.4 3.3 1.4.8 1 1.3 2.2 1.3 3.8l-.1 1h-7Zm2.5-4.6c-.7 0-1.3.3-1.7.8-.5.5-.8 1.3-.8 2.3h4.9a4 4 0 0 0-.7-2.3 2 2 0 0 0-1.7-.8Zm12.7 7.6c.8 0 1.7-.3 2.6-.9l1 1.5-1.7 1c-.7.1-1.3.3-2 .3-1.6 0-2.9-.5-3.8-1.5-1-1-1.4-2.4-1.4-4 0-1.1.2-2 .7-2.9.4-.9 1-1.5 1.7-2 .8-.5 1.7-.7 2.8-.7 1.4 0 2.6.4 3.7 1.2l-1 1.4c-1-.5-1.8-.8-2.6-.8-1 0-1.6.3-2.1 1-.5.5-.8 1.5-.8 2.8 0 1.2.3 2.2.8 2.7.5.6 1.2 1 2 1Zm15.6 1a6.3 6.3 0 0 1-3 .8 4 4 0 0 1-2.9-.9c-.6-.6-1-1.4-1-2.5v-5.7h-2.3v-1.7h2.3v-2.3l2.3-.3v2.6h3.6l-.3 1.7h-3.3v5.7c0 .6.1 1 .4 1.3.3.2.8.4 1.4.4a4 4 0 0 0 2-.5l.8 1.4Z" style="fill:#0082c2;fill:color(display-p3 0 .5083 .7625);fill-opacity:1"/><path fill="#555" d="m426 228-25-14.4v28.8l25-14.4Zm-22.5-2.5h-168v5h168v-5ZM830 228l-25-14.4v28.8l25-14.4Zm-22.5-2.5h-168v5h168v-5Z" style="fill:#555;fill:color(display-p3 .3333 .3333 .3333);fill-opacity:1"/><defs><filter id="a" width="480.5" height="335.7" x="839.7" y="62.8" color-interpolation-filters="sRGB" filterUnits="userSpaceOnUse"><feFlood flood-opacity="0" result="BackgroundImageFix"/><feColorMatrix in="SourceAlpha" result="hardAlpha" values="0 0 0 0 0 0 0 0 0 0 0 0 0 0 0 0 0 0 127 0"/><feOffset dy="3.1"/><feGaussianBlur stdDeviation="6.1"/><feColorMatrix values="0 0 0 0 0 0 0 0 0 0 0 0 0 0 0 0 0 0 0.15 0"/><feBlend in2="BackgroundImageFix" result="effect1_dropShadow_251_2431"/><feBlend in="SourceGraphic" in2="effect1_dropShadow_251_2431" result="shape"/></filter><filter id="b" width="456" height="41" x="852" y="72" color-interpolation-filters="sRGB" filterUnits="userSpaceOnUse"><feFlood flood-opacity="0" result="BackgroundImageFix"/><feColorMatrix in="SourceAlpha" result="hardAlpha" values="0 0 0 0 0 0 0 0 0 0 0 0 0 0 0 0 0 0 127 0"/><feOffset dy=".4"/><feColorMatrix values="0 0 0 0 0 0 0 0 0 0 0 0 0 0 0 0 0 0 0.15 0"/><feBlend in2="BackgroundImageFix" result="effect1_dropShadow_251_2431"/><feBlend in="SourceGraphic" in2="effect1_dropShadow_251_2431" result="shape"/><feColorMatrix in="SourceAlpha" result="hardAlpha" values="0 0 0 0 0 0 0 0 0 0 0 0 0 0 0 0 0 0 127 0"/><feOffset dy="-.4"/><feComposite in2="hardAlpha" k2="-1" k3="1" operator="arithmetic"/><feColorMatrix values="0 0 0 0 0 0 0 0 0 0 0 0 0 0 0 0 0 0 0.05 0"/><feBlend in2="shape" result="effect2_innerShadow_251_2431"/></filter><filter id="c" width="9.2" height="9.2" x="868.1" y="87.3" color-interpolation-filters="sRGB" filterUnits="userSpaceOnUse"><feFlood flood-opacity="0" result="BackgroundImageFix"/><feBlend in="SourceGraphic" in2="BackgroundImageFix" result="shape"/><feColorMatrix in="SourceAlpha" result="hardAlpha" values="0 0 0 0 0 0 0 0 0 0 0 0 0 0 0 0 0 0 127 0"/><feOffset/><feGaussianBlur stdDeviation="2.3"/><feComposite in2="hardAlpha" k2="-1" k3="1" operator="arithmetic"/><feColorMatrix values="0 0 0 0 0.92549 0 0 0 0 0.427451 0 0 0 0 0.384314 0 0 0 1 0"/><feBlend in2="shape" result="effect1_innerShadow_251_2431"/></filter><filter id="d" width="9.2" height="9.2" x="883.4" y="87.3" color-interpolation-filters="sRGB" filterUnits="userSpaceOnUse"><feFlood flood-opacity="0" result="BackgroundImageFix"/><feBlend in="SourceGraphic" in2="BackgroundImageFix" result="shape"/><feColorMatrix in="SourceAlpha" result="hardAlpha" values="0 0 0 0 0 0 0 0 0 0 0 0 0 0 0 0 0 0 127 0"/><feOffset/><feGaussianBlur stdDeviation="2.3"/><feComposite in2="hardAlpha" k2="-1" k3="1" operator="arithmetic"/><feColorMatrix values="0 0 0 0 0.960784 0 0 0 0 0.768627 0 0 0 0 0.317647 0 0 0 1 0"/><feBlend in2="shape" result="effect1_innerShadow_251_2431"/></filter><filter id="e" width="9.2" height="9.2" x="898.8" y="87.3" color-interpolation-filters="sRGB" filterUnits="userSpaceOnUse"><feFlood flood-opacity="0" result="BackgroundImageFix"/><feBlend in="SourceGraphic" in2="BackgroundImageFix" result="shape"/><feColorMatrix in="SourceAlpha" result="hardAlpha" values="0 0 0 0 0 0 0 0 0 0 0 0 0 0 0 0 0 0 127 0"/><feOffset/><feGaussianBlur stdDeviation="2.3"/><feComposite in2="hardAlpha" k2="-1" k3="1" operator="arithmetic"/><feColorMatrix values="0 0 0 0 0.407843 0 0 0 0 0.8 0 0 0 0 0.345098 0 0 0 1 0"/><feBlend in2="shape" result="effect1_innerShadow_251_2431"/></filter><filter id="f" width="25.9" height="38.4" x="1168.9" y="228" color-interpolation-filters="sRGB" filterUnits="userSpaceOnUse"><feFlood flood-opacity="0" result="BackgroundImageFix"/><feColorMatrix in="SourceAlpha" result="hardAlpha" values="0 0 0 0 0 0 0 0 0 0 0 0 0 0 0 0 0 0 127 0"/><feOffset dy=".8"/><feGaussianBlur stdDeviation=".7"/><feColorMatrix values="0 0 0 0 0 0 0 0 0 0 0 0 0 0 0 0 0 0 0.65 0"/><feBlend in2="BackgroundImageFix" result="effect1_dropShadow_251_2431"/><feBlend in="SourceGraphic" in2="effect1_dropShadow_251_2431" result="shape"/></filter><filter id="h" width="228" height="228" x="419" y="127" color-interpolation-filters="sRGB" filterUnits="userSpaceOnUse"><feFlood flood-opacity="0" result="BackgroundImageFix"/><feColorMatrix in="SourceAlpha" result="hardAlpha" values="0 0 0 0 0 0 0 0 0 0 0 0 0 0 0 0 0 0 127 0"/><feOffset dy="4"/><feGaussianBlur stdDeviation="8"/><feComposite in2="hardAlpha" operator="out"/><feColorMatrix values="0 0 0 0 0 0 0 0 0 0.509804 0 0 0 0 0.760784 0 0 0 0.15 0"/><feBlend in2="BackgroundImageFix" result="effect1_dropShadow_251_2431"/><feColorMatrix in="SourceAlpha" result="hardAlpha" values="0 0 0 0 0 0 0 0 0 0 0 0 0 0 0 0 0 0 127 0"/><feOffset dy="8"/><feGaussianBlur stdDeviation="15"/><feComposite in2="hardAlpha" operator="out"/><feColorMatrix values="0 0 0 0 0 0 0 0 0 0 0 0 0 0 0 0 0 0 0.3 0"/><feBlend in2="effect1_dropShadow_251_2431" result="effect2_dropShadow_251_2431"/><feBlend in="SourceGraphic" in2="effect2_dropShadow_251_2431" result="shape"/></filter><filter id="j" width="184.7" height="232" x="45" y="120" color-interpolation-filters="sRGB" filterUnits="userSpaceOnUse"><feFlood flood-opacity="0" result="BackgroundImageFix"/><feColorMatrix in="SourceAlpha" result="hardAlpha" values="0 0 0 0 0 0 0 0 0 0 0 0 0 0 0 0 0 0 127 0"/><feOffset dy="8"/><feGaussianBlur stdDeviation="8"/><feComposite in2="hardAlpha" operator="out"/><feColorMatrix values="0 0 0 0 0 0 0 0 0 0 0 0 0 0 0 0 0 0 0.25 0"/><feBlend in2="BackgroundImageFix" result="effect1_dropShadow_251_2431"/><feBlend in="SourceGraphic" in2="effect1_dropShadow_251_2431" result="shape"/></filter><linearGradient id="i" x1="522" x2="608.4" y1="273" y2="237.4" gradientUnits="userSpaceOnUse"><stop stop-color="#FFA588" style="stop-color:#ffa588;stop-color:color(display-p3 1 .6471 .5333);stop-opacity:1"/><stop offset=".3" stop-color="#FCB371" style="stop-color:#fcb371;stop-color:color(display-p3 .9882 .702 .4431);stop-opacity:1"/><stop offset=".8" stop-color="#F4D837" style="stop-color:#f4d837;stop-color:color(display-p3 .9569 .8471 .2157);stop-opacity:1"/><stop offset="1" stop-color="#F1E425" style="stop-color:#f1e425;stop-color:color(display-p3 .9451 .8941 .1451);stop-opacity:1"/></linearGradient><clipPath id="g"><path fill="#fff" d="M0 0h176.3v25.3H0z" style="fill:#fff;fill-opacity:1" transform="translate(1098 293.5)"/></clipPath></defs></svg>