<svg xmlns="http://www.w3.org/2000/svg" width="369" height="330" fill="none"><g clip-path="url(#a)"><rect width="369" height="330" fill="#23272E" rx="12" style="fill:#23272e;fill:color(display-p3 .1373 .1529 .1804);fill-opacity:1"/><path fill="#1E2227" d="M0 35h81v295H0z" style="fill:#1e2227;fill:color(display-p3 .1176 .1333 .1529);fill-opacity:1"/><path stroke="#fff" stroke-opacity=".1" d="M-.5 34.5h82v296h-82z" style="stroke:#fff;stroke-opacity:.14"/><path fill="#23272E" stroke="#3A3A3A" d="M-.5-.5h370v36H-.5z" style="fill:#23272e;fill:color(display-p3 .1373 .1529 .1804);fill-opacity:1;stroke:#3a3a3a;stroke:color(display-p3 .2292 .2292 .2292);stroke-opacity:1"/><g filter="url(#b)"><path fill="#EE6A5F" fill-rule="evenodd" d="M22 24a6 6 0 1 0 0-12 6 6 0 0 0 0 12Z" clip-rule="evenodd" style="fill:#ee6a5f;fill:color(display-p3 .9333 .4157 .3725);fill-opacity:1"/></g><path stroke="#CE5347" stroke-width=".5" d="M27.8 18a5.8 5.8 0 1 1-11.6 0 5.8 5.8 0 0 1 11.6 0Z" style="stroke:#ce5347;stroke:color(display-p3 .8078 .3255 .2784);stroke-opacity:1"/><g filter="url(#c)"><path fill="#F5BD4F" fill-rule="evenodd" d="M42 24a6 6 0 1 0 0-12 6 6 0 0 0 0 12Z" clip-rule="evenodd" style="fill:#f5bd4f;fill:color(display-p3 .9608 .7412 .3098);fill-opacity:1"/></g><path stroke="#D6A243" stroke-width=".5" d="M47.8 18a5.8 5.8 0 1 1-11.6 0 5.8 5.8 0 0 1 11.5 0Z" style="stroke:#d6a243;stroke:color(display-p3 .8392 .6353 .2627);stroke-opacity:1"/><g filter="url(#d)"><path fill="#61C454" fill-rule="evenodd" d="M62 24a6 6 0 1 0 0-12 6 6 0 0 0 0 12Z" clip-rule="evenodd" style="fill:#61c454;fill:color(display-p3 .3804 .7686 .3294);fill-opacity:1"/></g><path stroke="#58A942" stroke-width=".5" d="M67.8 18a5.8 5.8 0 1 1-11.6 0 5.8 5.8 0 0 1 11.5 0Z" style="stroke:#58a942;stroke:color(display-p3 .3451 .6627 .2588);stroke-opacity:1"/><rect width="17" height="8" x="138" y="63" fill="#FF6490" rx="4" style="fill:#ff6490;fill:color(display-p3 1 .3922 .5647);fill-opacity:1"/><rect width="25" height="8" x="138" y="83" fill="#FF6490" rx="4" style="fill:#ff6490;fill:color(display-p3 1 .3922 .5647);fill-opacity:1"/><rect width="35" height="8" x="168" y="83" fill="#7DFF86" rx="4" style="fill:#7dff86;fill:color(display-p3 .4902 1 .5255);fill-opacity:1"/><rect width="8" height="8" x="210" y="83" fill="#fff" rx="4" style="fill:#fff;fill-opacity:1"/><rect width="8" height="8" x="207" y="103" fill="#FFEB5C" rx="4" style="fill:#ffeb5c;fill:color(display-p3 1 .9216 .3608);fill-opacity:1"/><rect width="8" height="8" x="176" y="143" fill="#fff" rx="4" style="fill:#fff;fill-opacity:1"/><rect width="8" height="8" x="139" y="183" fill="#fff" rx="4" style="fill:#fff;fill-opacity:1"/><rect width="8" height="8" x="184" y="183" fill="#7DFF86" rx="4" style="fill:#7dff86;fill:color(display-p3 .4902 1 .5255);fill-opacity:1"/><rect width="8" height="8" x="169" y="223" fill="#fff" rx="4" style="fill:#fff;fill-opacity:1"/><rect width="8" height="8" x="169" y="243" fill="#FF6490" rx="4" style="fill:#ff6490;fill:color(display-p3 1 .3922 .5647);fill-opacity:1"/><rect width="8" height="8" x="184" y="223" fill="#FF6490" rx="4" style="fill:#ff6490;fill:color(display-p3 1 .3922 .5647);fill-opacity:1"/><rect width="8" height="8" x="252" y="223" fill="#FF6490" rx="4" style="fill:#ff6490;fill:color(display-p3 1 .3922 .5647);fill-opacity:1"/><rect width="8" height="8" x="286" y="103" fill="#fff" rx="4" style="fill:#fff;fill-opacity:1"/><rect width="8" height="8" x="323" y="103" fill="#fff" rx="4" style="fill:#fff;fill-opacity:1"/><rect width="95" height="8" x="225" y="83" fill="#FFEB5C" rx="4" style="fill:#ffeb5c;fill:color(display-p3 1 .9216 .3608);fill-opacity:1"/><rect width="13" height="8" x="327" y="83" fill="#fff" rx="4" style="fill:#fff;fill-opacity:1"/><rect width="17" height="8" x="138" y="103" fill="#FF6490" rx="4" style="fill:#ff6490;fill:color(display-p3 1 .3922 .5647);fill-opacity:1"/><rect width="17" height="8" x="138" y="123" fill="#FF6490" rx="4" style="fill:#ff6490;fill:color(display-p3 1 .3922 .5647);fill-opacity:1"/><rect width="24" height="8" x="153" y="183" fill="#FF6490" rx="4" style="fill:#ff6490;fill:color(display-p3 1 .3922 .5647);fill-opacity:1"/><rect width="16" height="8" x="161" y="203" fill="#fff" rx="4" style="fill:#fff;fill-opacity:1"/><rect width="34" height="8" x="199" y="183" fill="#FFEB5C" rx="4" style="fill:#ffeb5c;fill:color(display-p3 1 .9216 .3608);fill-opacity:1"/><rect width="46" height="8" x="199" y="223" fill="#fff" rx="4" style="fill:#fff;fill-opacity:1"/><rect width="31" height="8" x="184" y="243" fill="#76D8FF" rx="4" style="fill:#76d8ff;fill:color(display-p3 .4627 .8471 1);fill-opacity:1"/><rect width="15" height="8" x="222" y="243" fill="#fff" rx="4" style="fill:#fff;fill-opacity:1"/><rect width="19" height="8" x="241" y="183" fill="#7DFF86" rx="4" style="fill:#7dff86;fill:color(display-p3 .4902 1 .5255);fill-opacity:1"/><rect width="46" height="8" x="267" y="183" fill="#FFEB5C" rx="4" style="fill:#ffeb5c;fill:color(display-p3 1 .9216 .3608);fill-opacity:1"/><rect width="46" height="8" x="267" y="223" fill="#fff" rx="4" style="fill:#fff;fill-opacity:1"/><rect width="32" height="8" x="138" y="143" fill="#fff" rx="4" style="fill:#fff;fill-opacity:1"/><rect width="32" height="8" x="138" y="163" fill="#FF6490" rx="4" style="fill:#ff6490;fill:color(display-p3 1 .3922 .5647);fill-opacity:1"/><rect width="46" height="8" x="176" y="163" fill="#fff" rx="4" style="fill:#fff;fill-opacity:1"/><rect width="39" height="8" x="161" y="103" fill="#fff" rx="4" style="fill:#fff;fill-opacity:1"/><rect width="31" height="8" x="221" y="103" fill="#C8D1DD" rx="4" style="fill:#c8d1dd;fill:color(display-p3 .7843 .8196 .8667);fill-opacity:1"/><rect width="21" height="8" x="258" y="103" fill="#FFEB5C" rx="4" style="fill:#ffeb5c;fill:color(display-p3 1 .9216 .3608);fill-opacity:1"/><rect width="17" height="8" x="161" y="63" fill="#fff" rx="4" style="fill:#fff;fill-opacity:1"/><rect width="31" height="8" x="184" y="63" fill="#fff" rx="4" style="fill:#fff;fill-opacity:1"/><rect width="20" height="8" x="221" y="63" fill="#fff" rx="4" style="fill:#fff;fill-opacity:1"/><rect width="15" height="8" x="301" y="103" fill="#FF6490" rx="4" style="fill:#ff6490;fill:color(display-p3 1 .3922 .5647);fill-opacity:1"/><rect width="8" height="8" x="248" y="63" fill="#fff" rx="4" style="fill:#fff;fill-opacity:1"/><rect width="8" height="8" x="104" y="243" fill="#7E8590" rx="3" style="fill:#7e8590;fill:color(display-p3 .4941 .5216 .5647);fill-opacity:1"/><rect width="8" height="8" x="104" y="263" fill="#7E8590" rx="3" style="fill:#7e8590;fill:color(display-p3 .4941 .5216 .5647);fill-opacity:1"/><rect width="8" height="8" x="104" y="83" fill="#7E8590" rx="3" style="fill:#7e8590;fill:color(display-p3 .4941 .5216 .5647);fill-opacity:1"/><rect width="8" height="8" x="122" y="83" fill="#fff" rx="3" style="fill:#fff;fill-opacity:1"/><rect width="8" height="8" x="104" y="223" fill="#7E8590" rx="3" style="fill:#7e8590;fill:color(display-p3 .4941 .5216 .5647);fill-opacity:1"/><rect width="8" height="8" x="104" y="183" fill="#7E8590" rx="3" style="fill:#7e8590;fill:color(display-p3 .4941 .5216 .5647);fill-opacity:1"/><rect width="8" height="8" x="104" y="203" fill="#7E8590" rx="3" style="fill:#7e8590;fill:color(display-p3 .4941 .5216 .5647);fill-opacity:1"/><rect width="8" height="8" x="104" y="143" fill="#7E8590" rx="3" style="fill:#7e8590;fill:color(display-p3 .4941 .5216 .5647);fill-opacity:1"/><rect width="8" height="8" x="122" y="143" fill="#fff" rx="3" style="fill:#fff;fill-opacity:1"/><rect width="8" height="8" x="104" y="163" fill="#7E8590" rx="3" style="fill:#7e8590;fill:color(display-p3 .4941 .5216 .5647);fill-opacity:1"/><rect width="8" height="8" x="122" y="163" fill="#fff" rx="3" style="fill:#fff;fill-opacity:1"/><rect width="8" height="8" x="104" y="103" fill="#7E8590" rx="3" style="fill:#7e8590;fill:color(display-p3 .4941 .5216 .5647);fill-opacity:1"/><rect width="8" height="8" x="122" y="103" fill="#fff" rx="3" style="fill:#fff;fill-opacity:1"/><rect width="8" height="8" x="104" y="63" fill="#7E8590" rx="3" style="fill:#7e8590;fill:color(display-p3 .4941 .5216 .5647);fill-opacity:1"/><rect width="8" height="8" x="122" y="63" fill="#fff" rx="3" style="fill:#fff;fill-opacity:1"/><rect width="8" height="8" x="104" y="123" fill="#7E8590" rx="3" style="fill:#7e8590;fill:color(display-p3 .4941 .5216 .5647);fill-opacity:1"/><rect width="8" height="8" x="122" y="123" fill="#fff" rx="3" style="fill:#fff;fill-opacity:1"/><rect width="31" height="8" x="18" y="63" fill="#81878D" rx="4" style="fill:#81878d;fill:color(display-p3 .5057 .5299 .5542);fill-opacity:1"/><rect width="31" height="8" x="33" y="82" fill="#81878D" rx="4" style="fill:#81878d;fill:color(display-p3 .5057 .5299 .5542);fill-opacity:1"/><rect width="31" height="8" x="33" y="101" fill="#81878D" rx="4" style="fill:#81878d;fill:color(display-p3 .5057 .5299 .5542);fill-opacity:1"/><rect width="31" height="8" x="18" y="120" fill="#81878D" rx="4" style="fill:#81878d;fill:color(display-p3 .5057 .5299 .5542);fill-opacity:1"/><rect width="31" height="8" x="18" y="139" fill="#81878D" rx="4" style="fill:#81878d;fill:color(display-p3 .5057 .5299 .5542);fill-opacity:1"/><rect width="31" height="8" x="33" y="158" fill="#81878D" rx="4" style="fill:#81878d;fill:color(display-p3 .5057 .5299 .5542);fill-opacity:1"/><rect width="31" height="8" x="33" y="177" fill="#81878D" rx="4" style="fill:#81878d;fill:color(display-p3 .5057 .5299 .5542);fill-opacity:1"/><rect width="31" height="8" x="18" y="196" fill="#81878D" rx="4" style="fill:#81878d;fill:color(display-p3 .5057 .5299 .5542);fill-opacity:1"/><rect width="31" height="8" x="18" y="215" fill="#81878D" rx="4" style="fill:#81878d;fill:color(display-p3 .5057 .5299 .5542);fill-opacity:1"/><rect width="31" height="8" x="18" y="234" fill="#81878D" rx="4" style="fill:#81878d;fill:color(display-p3 .5057 .5299 .5542);fill-opacity:1"/></g><defs><filter id="b" width="12" height="12" x="16" y="12" color-interpolation-filters="sRGB" filterUnits="userSpaceOnUse"><feFlood flood-opacity="0" result="BackgroundImageFix"/><feBlend in="SourceGraphic" in2="BackgroundImageFix" result="shape"/><feColorMatrix in="SourceAlpha" result="hardAlpha" values="0 0 0 0 0 0 0 0 0 0 0 0 0 0 0 0 0 0 127 0"/><feOffset/><feGaussianBlur stdDeviation="3"/><feComposite in2="hardAlpha" k2="-1" k3="1" operator="arithmetic"/><feColorMatrix values="0 0 0 0 0.92549 0 0 0 0 0.427451 0 0 0 0 0.384314 0 0 0 1 0"/><feBlend in2="shape" result="effect1_innerShadow_32_894"/></filter><filter id="c" width="12" height="12" x="36" y="12" color-interpolation-filters="sRGB" filterUnits="userSpaceOnUse"><feFlood flood-opacity="0" result="BackgroundImageFix"/><feBlend in="SourceGraphic" in2="BackgroundImageFix" result="shape"/><feColorMatrix in="SourceAlpha" result="hardAlpha" values="0 0 0 0 0 0 0 0 0 0 0 0 0 0 0 0 0 0 127 0"/><feOffset/><feGaussianBlur stdDeviation="3"/><feComposite in2="hardAlpha" k2="-1" k3="1" operator="arithmetic"/><feColorMatrix values="0 0 0 0 0.960784 0 0 0 0 0.768627 0 0 0 0 0.317647 0 0 0 1 0"/><feBlend in2="shape" result="effect1_innerShadow_32_894"/></filter><filter id="d" width="12" height="12" x="56" y="12" color-interpolation-filters="sRGB" filterUnits="userSpaceOnUse"><feFlood flood-opacity="0" result="BackgroundImageFix"/><feBlend in="SourceGraphic" in2="BackgroundImageFix" result="shape"/><feColorMatrix in="SourceAlpha" result="hardAlpha" values="0 0 0 0 0 0 0 0 0 0 0 0 0 0 0 0 0 0 127 0"/><feOffset/><feGaussianBlur stdDeviation="3"/><feComposite in2="hardAlpha" k2="-1" k3="1" operator="arithmetic"/><feColorMatrix values="0 0 0 0 0.407843 0 0 0 0 0.8 0 0 0 0 0.345098 0 0 0 1 0"/><feBlend in2="shape" result="effect1_innerShadow_32_894"/></filter><clipPath id="a"><rect width="369" height="330" fill="#fff" rx="12" style="fill:#fff;fill-opacity:1"/></clipPath></defs></svg>