<svg xmlns="http://www.w3.org/2000/svg" width="1464" height="469" fill="none"><rect width="1464" height="469" fill="#fff" fill-opacity=".8" rx="20" style="fill:#fff;fill-opacity:.85"/><g filter="url(#a)"><rect width="456" height="311.2" x="46" y="87" fill="#fff" rx="10" style="fill:#fff;fill-opacity:1"/><path fill="#fff" d="M46 127.6h456V388a10 10 0 0 1-10 10H56a10 10 0 0 1-10-10V127.6Z" style="fill:#fff;fill-opacity:1"/><g filter="url(#b)"><path fill="#fff" d="M46 94.7c0-4.3 3.4-7.7 7.7-7.7h440.6c4.3 0 7.7 3.4 7.7 7.7v33H46v-33Z" style="fill:#fff;fill-opacity:1"/><g filter="url(#c)"><path fill="#EE6A5F" fill-rule="evenodd" d="M66.7 111.5a4.6 4.6 0 1 0 0-9.2 4.6 4.6 0 0 0 0 9.2Z" clip-rule="evenodd" style="fill:#ee6a5f;fill:color(display-p3 .9333 .4157 .3725);fill-opacity:1"/></g><path stroke="#CE5347" stroke-width=".4" d="M71.1 107a4.4 4.4 0 1 1-8.8 0 4.4 4.4 0 0 1 8.8 0Z" style="stroke:#ce5347;stroke:color(display-p3 .8078 .3255 .2784);stroke-opacity:1"/><g filter="url(#d)"><path fill="#F5BD4F" fill-rule="evenodd" d="M82 111.5a4.6 4.6 0 1 0 0-9.2 4.6 4.6 0 0 0 0 9.2Z" clip-rule="evenodd" style="fill:#f5bd4f;fill:color(display-p3 .9608 .7412 .3098);fill-opacity:1"/></g><path stroke="#D6A243" stroke-width=".4" d="M86.4 107a4.4 4.4 0 1 1-8.8 0 4.4 4.4 0 0 1 8.8 0Z" style="stroke:#d6a243;stroke:color(display-p3 .8392 .6353 .2627);stroke-opacity:1"/><g filter="url(#e)"><path fill="#61C454" fill-rule="evenodd" d="M97.3 111.5a4.6 4.6 0 1 0 0-9.2 4.6 4.6 0 0 0 0 9.2Z" clip-rule="evenodd" style="fill:#61c454;fill:color(display-p3 .3804 .7686 .3294);fill-opacity:1"/></g><path stroke="#58A942" stroke-width=".4" d="M101.8 107a4.4 4.4 0 1 1-8.9 0 4.4 4.4 0 0 1 8.9 0Z" style="stroke:#58a942;stroke:color(display-p3 .3451 .6627 .2588);stroke-opacity:1"/><rect width="167.8" height="16.9" x="190.1" y="98.5" fill="#000" fill-opacity=".1" rx="8.4" style="fill:#000;fill-opacity:.05"/></g><rect width="134.1" height="18.4" x="106.5" y="220.4" fill="#F2F2F2" rx="9.2" style="fill:#f2f2f2;fill:color(display-p3 .949 .949 .949);fill-opacity:1"/><rect width="134.1" height="17.6" x="106.5" y="268.6" fill="#F2F2F2" rx="8.8" style="fill:#f2f2f2;fill:color(display-p3 .949 .949 .949);fill-opacity:1"/><rect width="134.1" height="17.6" x="106.5" y="316.1" fill="#F2F2F2" rx="8.8" style="fill:#f2f2f2;fill:color(display-p3 .949 .949 .949);fill-opacity:1"/><rect width="64.4" height="17.6" x="176.3" y="172.8" fill="#F2F2F2" rx="8.8" style="fill:#f2f2f2;fill:color(display-p3 .949 .949 .949);fill-opacity:1"/><path fill="#4DC800" fill-opacity=".3" d="M292 172.8h146.4v133.4H292z" style="fill:#4dc800;fill:color(display-p3 .302 .7843 0);fill-opacity:.3"/><path fill="#fff" d="M309 186.7h112.5v106.7H309z" style="fill:#fff;fill-opacity:1"/><path fill="#78AAD2" fill-opacity=".7" d="M309 186.7h112.5v106.7H309z" style="fill:#78aad2;fill:color(display-p3 .4706 .6667 .8235);fill-opacity:.7"/><path fill="#fff" stroke="#fff" stroke-width=".8" d="m357.3 233.3-5.6-5.7a2 2 0 0 0-1.4-.6 2 2 0 0 0-1 .4m8 6-8-6m8 6a2 2 0 0 1 .6 1.4 2 2 0 0 1-1.3 1.9 2 2 0 0 1-2.1-.5l-5.6-5.7a2 2 0 0 1 0-2.9l8.4 5.8Zm-8-6a1.6 1.6 0 0 0-.3.1v.1l.2.3.1-.1.2-.2-.3-.2Zm-.1 2.8-.3.3.3-.3Zm30 0-5.5 5.7a1.6 1.6 0 0 1-1.2.5 1.5 1.5 0 0 1-1-.4 1.6 1.6 0 0 1-.6-1.2 1.7 1.7 0 0 1 .5-1.2l5.6-5.7a1.6 1.6 0 0 1 2.2 0l.1.1a1.7 1.7 0 0 1 .4 1 1.7 1.7 0 0 1-.5 1.2Zm-15-8.7c.4 0 .8.2 1.1.5.3.3.5.7.5 1.1v8.1c0 .5-.2.9-.5 1.2a1.6 1.6 0 0 1-2.2 0c-.3-.3-.5-.7-.5-1.2v-8c0-.5.2-1 .5-1.2.3-.3.7-.5 1.1-.5ZM343 243.4c0-.5.1-.9.4-1.2.3-.3.7-.5 1.2-.5h7.8a1.7 1.7 0 0 1 1.1 2.8c-.3.3-.7.5-1 .5h-8c-.4 0-.8-.2-1-.5-.4-.3-.5-.7-.5-1.1Z" style="fill:#fff;fill-opacity:1;stroke:#fff;stroke-opacity:1"/><g filter="url(#f)"><path fill="#fff" d="M382.4 274c.3 1 0 4.2-1.9 5-1.9.7-4.3 0-4.3 0l-4.4-8.8-7.5 7.5v-34.1l23.1 23.2h-8.6l3.6 7.3Z" style="fill:#fff;fill-opacity:1"/><path fill="#000" fill-rule="evenodd" d="M366.3 248.5v24.3l6-6 5.2 10.1s1.3.4 2 0c.6-.4 1.3-1.3 1-2-1.4-3.4-5-10.2-5-10.2h7l-16.2-16.2Z" clip-rule="evenodd" style="fill:#000;fill-opacity:1"/></g><path fill="#377DA0" d="M132 181.7c0 1-.4 2-1.2 2.7a4 4 0 0 1-5.6 0 3.9 3.9 0 0 1 0-5.5 4 4 0 0 1 5.6 0c.8.7 1.2 1.7 1.2 2.8Zm4.7-18.8c-2.4 0-5.5 1.7-8.7 4.6-3.2-3-6.3-4.6-8.8-4.6a4 4 0 0 0-2 .5c-2.4 1.4-3 5.7-1.7 11.2-5.4 1.6-9 4.3-9 7 0 2.8 3.6 5.5 9 7.1-1.2 5.5-.6 9.9 1.8 11.2.6.4 1.3.5 2 .5 2.4 0 5.6-1.7 8.7-4.6 3.2 3 6.4 4.6 8.8 4.6a4 4 0 0 0 2-.5c2.4-1.4 3-5.7 1.7-11.2 5.4-1.6 9-4.3 9-7 0-2.8-3.6-5.5-9-7.1 1.2-5.5.6-9.8-1.8-11.2a4 4 0 0 0-2-.5Zm0 1.9c.4 0 .7 0 1 .2 1.2.7 1.7 3.2 1.3 6.5 0 .8-.2 1.7-.4 2.6-1.9-.5-3.7-.8-5.6-1a42 42 0 0 0-3.6-4.3c2.8-2.6 5.5-4 7.3-4Zm-17.5 0c1.9 0 4.5 1.4 7.4 4a40.5 40.5 0 0 0-3.6 4.3 41 41 0 0 0-5.6 1l-.4-2.5c-.4-3.3 0-5.9 1.2-6.5l1-.3Zm8.8 5.4 2.4 2.7a54 54 0 0 0-4.8 0l2.4-2.7Zm0 4.6c1.3 0 2.6 0 4 .2a46.4 46.4 0 0 1 3.9 6.6 47.3 47.3 0 0 1-4 6.8c-2.6.2-5.2.2-7.8 0a47 47 0 0 1-4-6.7 43.9 43.9 0 0 1 4-6.7c1.3-.2 2.6-.2 3.9-.2Zm-6.5.4a44.8 44.8 0 0 0-2.4 4.1c-.5-1.1-.9-2.3-1.2-3.4l3.6-.7Zm13 0 3.6.7-1.2 3.4c-.7-1.4-1.5-2.7-2.4-4Zm5.5 1.2 2.4.9c3.1 1.3 5.1 3 5.1 4.4 0 1.3-2 3-5 4.3l-2.5.9c-.5-1.8-1.2-3.6-2-5.3.8-1.8 1.5-3.5 2-5.2Zm-24 0c.5 1.7 1.2 3.5 2 5.3a40 40 0 0 0-2 5.2l-2.4-.9c-3.1-1.3-5.1-3-5.1-4.3 0-1.4 2-3.1 5-4.4l2.5-.9ZM137 184c.5 1.1.9 2.3 1.2 3.4a38 38 0 0 1-3.6.7c.9-1.4 1.7-2.7 2.4-4.1Zm-17.8 0a39.3 39.3 0 0 0 2.4 4 40 40 0 0 1-3.6-.6 38 38 0 0 1 1.2-3.4Zm19.5 5.2.4 2.5c.5 3.3 0 5.9-1.2 6.6a2 2 0 0 1-1 .2c-1.8 0-4.5-1.4-7.4-4 1.2-1.3 2.5-2.7 3.6-4.3 2-.2 3.9-.5 5.6-1Zm-21.2 0c1.8.5 3.6.8 5.6 1 1.2 1.6 2.4 3 3.6 4.3-2.8 2.6-5.5 4-7.3 4-.4 0-.7 0-1-.2-1.2-.7-1.7-3.2-1.3-6.5 0-.8.2-1.7.4-2.5Zm8.2 1.2a54.1 54.1 0 0 0 4.8 0L128 193l-2.4-2.7Z" style="fill:#377da0;fill:color(display-p3 .2157 .4902 .6275);fill-opacity:1"/><g clip-path="url(#g)"><path fill="#fff" d="M0 0h176.3v25.3H0z" style="fill:#fff;fill-opacity:1" transform="translate(292 308.5)"/><rect width="176.3" height="25.3" x="292" y="308.5" fill="#34373F" rx="2.8" style="fill:#34373f;fill:color(display-p3 .2039 .2157 .2471);fill-opacity:1"/><path fill="#D7D7D7" d="M433.9 320.7c0 .2 0 .4-.2.5 0 .2-.2.3-.5.4.3.1.5.3.6.5.2.1.2.3.2.6l-.1.5-.5.4-.7.2c-.3 0-.6 0-.8-.2a1 1 0 0 1-.4-.4 1 1 0 0 1-.2-.5c0-.5.3-.8.8-1l-.5-.4a1 1 0 0 1-.1-.5l.1-.6c.1-.1.3-.3.5-.3l.6-.2c.2 0 .4 0 .6.2.2 0 .3.2.4.3l.2.5Zm-1.8 0v.4l.3.2.4.2.4-.3v-.8a.6.6 0 0 0-.5-.2c-.2 0-.4 0-.5.2l-.1.4Zm1.3 2-.1-.4-.3-.2-.5-.3c-.4.2-.5.5-.5.9l.1.4.6.2c.2 0 .4 0 .5-.2l.2-.4Zm2.3-3c.4 0 .7.2 1 .6.2.3.3.8.3 1.5 0 .6-.1 1.1-.4 1.5-.2.3-.5.5-1 .5-.4 0-.7-.2-1-.5-.2-.4-.3-.9-.3-1.5 0-.7.1-1.2.4-1.5.2-.4.5-.6 1-.6Zm0 .5c-.3 0-.4.2-.6.4l-.1 1.2.1 1.1c.2.3.3.4.5.4.3 0 .4-.1.6-.4l.1-1.1-.1-1.2c-.2-.2-.3-.4-.6-.4Zm0 1.2.2.1.1.3v.2l-.4.1h-.2l-.1-.3v-.3l.3-.1Zm3.2-.7c.7 0 1 .5 1 1.5 0 .5 0 .9-.2 1.2a1 1 0 0 1-.9.4 1 1 0 0 1-.7-.3v1.3l-.7.1v-4.2h.6v.4l.4-.3.5-.1Zm-.2.4c-.1 0-.2 0-.3.2-.2 0-.2.1-.3.3v1.4c.1.2.3.3.6.3.2 0 .3-.1.4-.3.2-.1.2-.4.2-.8l-.1-.8a.5.5 0 0 0-.5-.3Zm1.5 2.6 1-1.6-1-1.4h.8l.6 1 .6-1h.7l-1 1.4 1.1 1.6h-.7l-.7-1.2-.7 1.2h-.7Zm6 0 1-1.6-1-1.4h.8l.6 1 .6-1h.7l-1 1.4 1.1 1.6h-.7l-.8-1.2-.7 1.2h-.7Zm8.5-3-.1.5-.5.4.6.5.2.6c0 .2 0 .4-.2.5l-.5.4-.7.2c-.3 0-.5 0-.7-.2a1 1 0 0 1-.5-.4 1 1 0 0 1-.2-.5c0-.5.3-.8.8-1l-.5-.4a1 1 0 0 1-.1-.5c0-.2 0-.4.2-.6 0-.1.2-.3.4-.3l.6-.2c.2 0 .4 0 .6.2.2 0 .3.2.4.3.2.2.2.3.2.5Zm-1.8 0v.4l.3.2c.1 0 .3 0 .4.2l.4-.3.1-.4-.1-.4a.6.6 0 0 0-.5-.2c-.2 0-.3 0-.4.2l-.2.4Zm1.3 2v-.4l-.4-.2-.5-.3c-.3.2-.5.5-.5.9 0 .2 0 .3.2.4l.5.2c.2 0 .4 0 .5-.2.2-.1.2-.2.2-.4Zm2.3-3c.4 0 .7.2 1 .6.2.3.3.8.3 1.5 0 .6-.1 1.1-.3 1.5-.3.3-.6.5-1 .5s-.8-.2-1-.5c-.2-.4-.3-.9-.3-1.5 0-.7 0-1.2.3-1.5.2-.4.6-.6 1-.6Zm0 .5c-.2 0-.4.2-.5.4l-.2 1.2c0 .5 0 .9.2 1.1 0 .3.3.4.5.4s.4-.1.5-.4l.2-1.1c0-.6 0-1-.2-1.2-.1-.2-.3-.4-.5-.4Zm0 1.2.3.1v.5l-.3.1h-.3v-.6l.3-.1Zm3.2-.7c.7 0 1.1.5 1.1 1.5 0 .5 0 .9-.3 1.2a1 1 0 0 1-.8.4 1 1 0 0 1-.8-.3v1.3l-.6.1v-4.2h.5v.4l.4-.3.5-.1Zm-.1.4c-.2 0-.3 0-.4.2l-.3.3v1.4c.2.2.3.3.6.3.2 0 .4-.1.5-.3l.1-.8-.1-.8a.5.5 0 0 0-.4-.3Zm1.4 2.6 1-1.6-.9-1.4h.7l.6 1 .7-1h.6l-.9 1.4 1 1.6h-.7l-.7-1.2-.7 1.2h-.7Z" style="fill:#d7d7d7;fill:color(display-p3 .8431 .8431 .8431);fill-opacity:1"/><path fill="#DF80E0" d="M303.5 314.6v5.2h-1v-.4l-.5.4-.6.1c-.5 0-.8-.2-1-.5-.3-.4-.4-.9-.4-1.5 0-.4 0-.7.2-1l.5-.7c.2-.2.5-.3.8-.3.3 0 .6.1.9.4v-1.8h1Zm-1.7 2.1c-.2 0-.4.1-.5.3l-.1 1 .1.8c.1.2.3.3.4.3.3 0 .5-.2.7-.4V317l-.3-.3h-.3Zm4.3-2.6c.1 0 .3 0 .4.2l.2.4c0 .2 0 .4-.2.5l-.4.2-.5-.2a.6.6 0 0 1-.2-.5c0-.1 0-.3.2-.4l.5-.2Zm.6 5h1v.7h-3.1v-.8h1v-2.2h-1v-.7h2.1v3Zm4.2.7h-1.3l-1.2-3.7h1.2l.7 2.8.8-2.8h1l-1.2 3.7Zm7.8-5.7c.2 0 .3 0 .5.2l.1.4-.1.5-.5.2-.5-.2a.6.6 0 0 1-.2-.5c0-.1 0-.3.2-.4l.5-.2Zm.7 5h1v.7h-3.2v-.8h1v-2.2h-1v-.7h2.2v3Zm1.9-3h1v.4l.6-.4.6-.2c.3 0 .6.1.7.3.2.2.3.5.3.8v2.8h-1v-2.4c0-.3-.1-.4-.2-.5l-.2-.1h-.4l-.3.4v2.6h-1.1V316Zm11.7.1-2.3 1.4 2.3 1.3-.6.8-2.7-1.7v-.8l2.8-1.7.5.7Zm3-1.4.8.1.7.4-.6.7c-.2-.2-.6-.4-1-.4a1 1 0 0 0-.7.5c-.2.3-.3.7-.3 1.2 0 .6 0 1 .3 1.3.2.3.4.4.8.4l.6-.1.5-.3.5.6c-.5.5-1 .7-1.7.7-.4 0-.8 0-1.1-.3a2 2 0 0 1-.8-.9c-.2-.3-.3-.8-.3-1.4 0-.5 0-1 .3-1.3.2-.4.4-.7.8-1l1.2-.2Zm3.8 1.1c.5 0 1 .2 1.3.6.3.3.5.8.5 1.4 0 .6-.2 1.1-.5 1.5-.3.3-.8.5-1.3.5-.6 0-1-.2-1.4-.5-.3-.4-.5-.9-.5-1.5 0-.4.1-.7.3-1 .1-.3.3-.6.6-.7.3-.2.6-.3 1-.3Zm0 .9c-.3 0-.4 0-.5.2-.2.2-.2.5-.2 1 0 .3 0 .6.2.8 0 .2.2.3.5.3.2 0 .4-.1.5-.3l.1-.9-.1-.9a.5.5 0 0 0-.5-.2Zm5.3-.9c.3 0 .5.1.6.3l.2.8v2.8h-1v-2.9l-.1-.1c-.2 0-.3 0-.4.2v2.8h-.8v-2.9l-.2-.1c-.1 0-.3 0-.4.2v2.8h-1V316h.9v.3l.4-.4h.8l.2.4c.2-.3.5-.5.8-.5Zm3.5 0c.5 0 .8.2 1 .5.3.4.4.9.4 1.5 0 .4 0 .7-.2 1 0 .3-.3.6-.5.8l-.7.2c-.4 0-.7-.1-1-.4v1.7l-1 .1v-5.2h1v.4l.5-.4.5-.2Zm-.3.9c-.2 0-.5.1-.6.4v1.6l.2.2h.3c.2 0 .4 0 .5-.2l.1-.9v-.9c-.2-.2-.3-.2-.5-.2Zm4-.9c.7 0 1.1.2 1.4.6.3.3.5.8.5 1.4 0 .6-.2 1.1-.5 1.5-.3.3-.7.5-1.3.5-.6 0-1-.2-1.3-.5-.4-.4-.5-.9-.5-1.5 0-.4 0-.7.2-1 .1-.3.3-.6.6-.7.3-.2.6-.3 1-.3Zm0 .9c-.1 0-.3 0-.4.2l-.2 1c0 .3 0 .6.2.8.1.2.3.3.5.3s.4-.1.5-.3l.2-.9c0-.4 0-.7-.2-.9a.5.5 0 0 0-.5-.2Zm2.7-.7h1v.4l.6-.4.6-.2c.3 0 .6.1.7.3.2.2.3.5.3.8v2.8h-1v-2.4c0-.3-.1-.4-.2-.5l-.2-.1h-.4l-.3.4v2.6H355V316Zm5.2 2.1c0 .6.3.9.9.9l1-.3.4.6a2 2 0 0 1-.7.4l-.8.1c-.4 0-.8 0-1-.2-.4-.2-.6-.4-.7-.7-.2-.3-.3-.7-.3-1l.2-1a1.7 1.7 0 0 1 1.7-1c.3 0 .6 0 .9.2l.6.6.2 1v.4h-2.4Zm.7-1.5c-.2 0-.4 0-.5.2-.2.1-.2.4-.2.7h1.3c0-.6-.2-1-.6-1Zm2.5-.6h1v.4l.6-.4.6-.2c.3 0 .6.1.8.3.2.2.2.5.2.8v2.8h-1v-2.4l-.1-.5-.3-.1h-.4l-.3.4v2.6h-1V316Zm7.6 3.5-1.2.3c-.5 0-.9-.1-1.1-.4-.3-.2-.4-.5-.4-1v-1.7h-.8v-.7h.8v-.9h1.1v.9h1.2v.7h-1.2v1.7c0 .2 0 .3.2.4l.4.1.6-.1.4.7Zm4-2.4v.8l-2.7 1.7-.5-.8 2.3-1.3-2.3-1.3.5-.8 2.8 1.7ZM301.7 328.4l.6-.1.2-.4v-.2l-.3-.2-.6-.2-.9-.4a.9.9 0 0 1-.3-.7c0-.3.1-.6.4-.8.3-.2.6-.3 1-.3.6 0 1.1.2 1.5.4l-.3.5-1-.3c-.6 0-.8.1-.8.4v.2l.4.2.5.2 1 .4.2.8c0 .3-.1.6-.4.8-.3.2-.7.3-1.2.3-.6 0-1.1-.2-1.5-.5l.4-.5.5.3.6.1Zm5.5-3.3.6.1-.2 1.4h-.5v-.8a1 1 0 0 0-.7.3l-.5.9v1.4h.8v.5h-2v-.5h.5v-2.6h-.6v-.6h1.2l.1.9c.1-.4.3-.6.5-.7.2-.2.5-.3.8-.3Zm3.4 3.3c.3 0 .6-.1.9-.4l.4.6a2 2 0 0 1-.6.3l-.7.1c-.6 0-1-.2-1.4-.5a2 2 0 0 1-.5-1.4c0-.4.1-.7.3-1 .1-.3.3-.6.6-.7a2 2 0 0 1 2.3.2l-.4.5c-.3-.3-.6-.4-1-.4l-.7.4-.2 1c0 .4 0 .7.2 1 .2.2.5.3.8.3Zm2 1 3-6.2.7.3-3 6.2-.6-.3Zm6.4-1c.3 0 .6-.1 1-.4l.3.6a2 2 0 0 1-.6.3l-.7.1c-.6 0-1-.2-1.4-.5a2 2 0 0 1-.4-1.4c0-.4 0-.7.2-1 .1-.3.3-.6.6-.7a2 2 0 0 1 2.3.2l-.4.5c-.3-.3-.6-.4-.9-.4-.3 0-.5.2-.7.4-.2.2-.3.5-.3 1 0 .4.1.7.3 1 .2.2.4.3.7.3Zm4-3.3c.4 0 .9.2 1.2.5.2.4.4.9.4 1.5s-.2 1-.5 1.4c-.3.3-.7.5-1.2.5s-1-.2-1.2-.5c-.3-.3-.5-.8-.5-1.4 0-.6.2-1.1.5-1.5.3-.3.7-.5 1.2-.5Zm0 .6c-.4 0-.6.1-.7.4a2 2 0 0 0-.2 1c0 .4 0 .8.2 1 .1.2.3.3.6.3s.5-.1.6-.3c.2-.2.3-.6.3-1 0-.5-.1-.8-.3-1a.7.7 0 0 0-.6-.4Zm5.2-.6c.2 0 .4 0 .5.3.2.1.2.4.2.8v2.7h-.7v-3.1h-.2c-.2 0-.4 0-.6.3v2.8h-.6v-3.1h-.2c-.2 0-.4 0-.6.3v2.8h-.7v-3.7h.6v.4l.4-.4h.4c.4 0 .6 0 .7.4 0-.2.2-.3.3-.4h.5Zm3.5 0c.9 0 1.3.7 1.3 2 0 .5-.1 1-.4 1.4-.2.3-.6.5-1 .5s-.7-.1-1-.4v1.7l-.8.1v-5.2h.7v.5l.6-.4.6-.2Zm-.3.6c-.1 0-.3 0-.4.2l-.4.4v1.7c.2.3.5.4.8.4l.6-.3.2-1c0-.5 0-.9-.2-1a.6.6 0 0 0-.6-.4Zm4.2-.6c.5 0 .9.2 1.2.5.3.4.4.9.4 1.5s-.1 1-.4 1.4c-.3.3-.7.5-1.3.5-.5 0-.9-.2-1.2-.5-.3-.3-.4-.8-.4-1.4 0-.6.1-1.1.4-1.5.3-.3.7-.5 1.3-.5Zm0 .6c-.3 0-.6.1-.7.4a2 2 0 0 0-.2 1c0 .4 0 .8.2 1 .1.2.4.3.6.3.3 0 .5-.1.7-.3l.2-1c0-.5 0-.8-.2-1a.7.7 0 0 0-.6-.4Zm2.7-.5h.7v.5a1.6 1.6 0 0 1 1.2-.6c.4 0 .6.1.8.3.2.2.2.5.2.8v2.7h-.7v-2.8l-.2-.3h-.9l-.3.5v2.6h-.8v-3.7Zm4.8 2.1c0 .4.2.6.3.8.2.2.5.3.8.3h.4l.5-.3.4.5-.6.3-.8.1c-.6 0-1-.2-1.3-.5a2 2 0 0 1-.5-1.4c0-.4 0-.7.2-1l.6-.7c.3-.2.6-.3 1-.3s.8.2 1 .5c.4.3.5.8.5 1.4v.3h-2.5Zm1-1.6c-.3 0-.5 0-.7.3-.2.2-.2.4-.3.8h1.8c0-.4-.1-.6-.3-.8a.7.7 0 0 0-.6-.3Zm2.6-.5h.7v.5a1.6 1.6 0 0 1 1.2-.6c.4 0 .6.1.8.3.2.2.3.5.3.8v2.7h-.8v-2.8l-.2-.3h-.8l-.4.5v2.6h-.8v-3.7Zm7.3 3.5-.5.2-.6.1c-.4 0-.7-.1-1-.3-.2-.2-.3-.5-.3-.9v-2h-.8v-.6h.8v-.8l.8-.1v1h1.3l-.1.5h-1.2v2l.1.4.5.2c.3 0 .5 0 .7-.2l.3.5Zm.8.7 3-6.2.6.3-3 6.2-.6-.3Zm4.2-.5 1.3-2-1.1-1.7h.9l.7 1.3.8-1.3h.8l-1.1 1.7 1.3 2h-.9l-1-1.5-.8 1.5h-.9Zm4.2 0 1.4-2-1.2-1.7h.9l.7 1.3.8-1.3h.9l-1.2 1.7 1.3 2h-.9l-.9-1.5-.9 1.5h-.9Zm4.2 0 1.4-2-1.2-1.7h.9l.8 1.3.7-1.3h.9l-1.2 1.7 1.3 2h-.9l-.9-1.5-.9 1.5h-.9Zm4.3.5 3-6.2.6.3-3 6.2-.6-.3Zm4.2-.5 1.3-2-1.2-1.7h1l.7 1.3.7-1.3h.9l-1.2 1.7 1.4 2h-1l-.9-1.5-.9 1.5h-.8Zm4.2 0 1.3-2-1.2-1.7h1l.7 1.3.7-1.3h1l-1.2 1.7 1.3 2h-1l-.8-1.5-1 1.5h-.8Zm4.2 0 1.3-2-1.2-1.7h1l.7 1.3.8-1.3h.8l-1.1 1.7 1.3 2h-1l-.8-1.5-1 1.5h-.8Zm5.3-.6c0-.2 0-.3.2-.4.2-.2.3-.2.5-.2s.4 0 .5.2l.2.4c0 .2 0 .4-.2.5l-.5.2c-.2 0-.3 0-.5-.2a.7.7 0 0 1-.2-.5Zm6.5.4-.5.2-.5.1c-.5 0-.8-.1-1-.3-.3-.2-.4-.5-.4-.9v-2h-.8v-.6h.8v-.8l.8-.1v1h1.3l-.1.5h-1.2v2c0 .2 0 .3.2.4 0 .1.2.2.5.2.2 0 .4 0 .7-.2l.2.5Zm2.5-.3.6-.1.2-.4v-.2l-.3-.2-.6-.2-1-.4a.9.9 0 0 1-.2-.7c0-.3.1-.6.4-.8.3-.2.6-.3 1-.3.6 0 1 .2 1.5.4l-.4.5c-.3-.2-.6-.3-1-.3-.5 0-.7.1-.7.4v.2l.3.2.6.2 1 .4.2.8c0 .3-.1.6-.4.8-.4.2-.7.3-1.2.3-.6 0-1.1-.2-1.5-.5l.4-.5.5.3.6.1Zm2.5.5 1.4-2-1.2-1.7h.9l.8 1.3.7-1.3h.9l-1.2 1.7 1.3 2h-.9l-.9-1.5-.9 1.5h-.9Z" style="fill:#df80e0;fill:color(display-p3 .8745 .502 .8784);fill-opacity:1"/><path stroke="#AAA" stroke-width=".7" d="M425.8 312.4v18.2" style="stroke:#aaa;stroke:color(display-p3 .6667 .6667 .6667);stroke-opacity:1"/></g></g><path fill="#666" d="M213.8 56.4h6.5v2.1h-4v18.2h4v2.1h-6.5V56.4Zm23.4 14.8c0 1.7-.6 3-1.9 3.7a8.8 8.8 0 0 1-4.6 1.1H226V59.4h4.5c1.8 0 3.2.4 4.3 1 1.2.7 1.7 1.7 1.7 3.2 0 1-.2 1.8-.8 2.4-.6.6-1.3 1-2.2 1.2 1 .2 2 .6 2.7 1.2.7.6 1 1.6 1 2.8Zm-3.6-7.3c0-.9-.2-1.5-.8-1.8-.4-.4-1.2-.6-2.2-.6h-2v4.8h2.2c1 0 1.7-.2 2.1-.6.5-.4.7-1 .7-1.8Zm.7 7.3c0-1-.3-1.7-.9-2.2a4 4 0 0 0-2.4-.6h-2.4v5.4h2.3c2.2 0 3.4-.8 3.4-2.6Zm15-8.2a6 6 0 0 1 2 .3l-.5 4.7h-2v-2.6c-.8 0-1.6.4-2.2 1-.7.8-1.2 1.7-1.6 3V74h2.6V76h-7.1v-2h1.8v-8.8h-1.8v-1.9h3.9l.5 3c.5-1.1 1-2 1.8-2.5.7-.5 1.6-.8 2.6-.8Zm10.4 0c1.9 0 3.3.6 4.3 1.8 1 1.2 1.4 2.8 1.4 4.8s-.5 3.7-1.5 5a5.2 5.2 0 0 1-4.2 1.7c-1.8 0-3.2-.6-4.2-1.7a7.4 7.4 0 0 1-1.5-5c0-2 .5-3.6 1.5-4.8 1-1.2 2.4-1.8 4.2-1.8Zm0 2c-1 0-1.7.5-2.2 1.2-.5.8-.7 2-.7 3.5s.2 2.7.7 3.4c.5.8 1.2 1.1 2.2 1.1 1 0 1.7-.3 2.2-1 .5-.8.7-2 .7-3.6 0-1.5-.2-2.7-.7-3.4a2.4 2.4 0 0 0-2.2-1.1Zm15.8 11-1.4-9-1.6 9h-3.3l-2.1-12.7h2.6l1.3 11 1.8-9.4h2.7l1.6 9.4 1.3-11h2.5L279 76h-3.4Zm12.3-1.7c.9 0 1.6-.2 2-.5.5-.3.8-.7.8-1.2 0-.4 0-.7-.2-1l-.9-.6-2-.6a8.7 8.7 0 0 1-3-1.4 3 3 0 0 1-1.1-2.4c0-1 .4-2 1.3-2.6 1-.7 2.2-1 3.7-1a8 8 0 0 1 4.9 1.5l-1.2 1.7a6.4 6.4 0 0 0-3.6-1.2c-1.6 0-2.4.5-2.4 1.4 0 .3.1.6.3.8l1 .6 2 .6c1.3.4 2.3.9 3 1.5.7.5 1 1.4 1 2.5 0 1.3-.5 2.3-1.6 3-1 .6-2.4 1-4 1-2 0-3.8-.7-5.2-1.9l1.5-1.6a5.9 5.9 0 0 0 3.8 1.4Zm12-3.8c0 1.3.4 2.2 1 2.8.7.6 1.5 1 2.4 1 .6 0 1.2-.2 1.7-.3l1.7-.9 1.1 1.7-2 1.1c-.9.3-1.7.4-2.6.4-2 0-3.4-.6-4.5-1.8a7 7 0 0 1-1.6-4.8 8 8 0 0 1 .7-3.4c.4-1 1.1-1.9 2-2.4.9-.6 1.9-1 3-1a5 5 0 0 1 4 1.8c1 1.1 1.5 2.7 1.5 4.6v1.2h-8.4Zm3-5.5c-.9 0-1.6.3-2.1 1-.6.5-.9 1.5-1 2.7h6c-.1-1.2-.4-2.1-.8-2.8-.5-.6-1.2-1-2.1-1Zm18-2a6 6 0 0 1 2 .3l-.5 4.7h-2v-2.6c-.8 0-1.6.4-2.3 1-.6.8-1.1 1.7-1.5 3V74h2.5V76h-7v-2h1.8v-8.8H312v-1.9h4l.4 3c.5-1.1 1.1-2 1.8-2.5.8-.5 1.6-.8 2.7-.8Zm13.4 15.8h-6.5v-2.1h4V58.5h-4v-2.1h6.5v22.4Z" style="fill:#666;fill:color(display-p3 .4 .4 .4);fill-opacity:1"/><g filter="url(#h)"><rect width="168" height="168" x="742" y="164" fill="#FAFAFA" rx="14" style="fill:#fafafa;fill:color(display-p3 .9804 .9804 .9804);fill-opacity:1"/></g><path fill="#539E43" d="M826 290c-.5 0-1-.1-1.3-.3l-4.2-2.5c-.6-.3-.3-.5-.1-.5l1.9-.9h.3l3.1 2h.4l12.4-7.2.2-.3V266c0-.2 0-.3-.2-.4l-12.4-7.1h-.4l-12.3 7.1c-.2 0-.2.2-.2.4v14.3s0 .2.2.3l3.3 2c1.9.9 3-.2 3-1.3v-14c0-.3.2-.5.4-.5h1.6c.2 0 .3.2.3.4v14.1c0 2.5-1.3 3.9-3.6 3.9-.7 0-1.3 0-2.9-.8l-3.2-1.8a2.6 2.6 0 0 1-1.3-2.3V266c0-1 .5-1.8 1.3-2.3l12.4-7.1c.7-.5 1.8-.5 2.6 0l12.4 7.1c.8.5 1.3 1.4 1.3 2.3v14.3c0 1-.5 1.8-1.3 2.3l-12.4 7.1c-.4.2-.9.3-1.3.3Zm3.8-9.8c-5.5 0-6.6-2.5-6.6-4.6 0-.2.2-.4.4-.4h1.6c.2 0 .4.1.4.3.2 1.7 1 2.5 4.2 2.5 2.6 0 3.7-.6 3.7-2 0-.8-.3-1.4-4.3-1.8-3.4-.4-5.5-1.1-5.5-3.8 0-2.5 2-4 5.6-4 4 0 6 1.4 6.2 4.3v.3l-.3.1h-1.7a.4.4 0 0 1-.3-.2c-.4-1.7-1.3-2.3-3.9-2.3-2.8 0-3.2 1-3.2 1.7 0 1 .4 1.2 4.3 1.7 3.8.5 5.6 1.2 5.6 3.9s-2.3 4.3-6.2 4.3Z" style="fill:#539e43;fill:color(display-p3 .3255 .6196 .2627);fill-opacity:1"/><path fill="#333" d="M787.5 234c0-.5-.3-1-.8-1.3l-13.2-7.5a2 2 0 0 0-.7-.3h-.1c-.3 0-.5.1-.7.3l-13.2 7.5c-.5.3-.8.8-.8 1.4v20.3c0 .3.2.6.4.7.3.2.6.2.8 0l7.8-4.4c.5-.3.8-.9.8-1.4v-9.5c0-.6.4-1.1.9-1.4l3.3-2 .8-.1c.3 0 .5 0 .8.2l3.3 1.9c.5.3.8.8.8 1.4v9.5c0 .5.3 1 .8 1.4l7.8 4.4a.8.8 0 0 0 .8 0c.3-.1.4-.4.4-.7v-20.3Zm63.3-28a.9.9 0 0 0-.8 0c-.2.2-.4.5-.4.8v20.1c0 .2 0 .4-.2.5h-.6l-3.3-1.9a1.6 1.6 0 0 0-1.6 0l-13.2 7.6c-.5.3-.8.8-.8 1.4v15.2c0 .5.4 1 .8 1.3l13.2 7.6a1.6 1.6 0 0 0 1.6 0l13.2-7.6c.5-.3.8-.8.8-1.3v-37.8c0-.6-.3-1.2-.8-1.4l-7.9-4.4Zm-1.2 38.7c0 .1 0 .2-.2.3l-4.5 2.6a.5.5 0 0 1-.4 0L840 245l-.2-.3v-5.2c0-.2 0-.3.2-.4l4.5-2.6a.5.5 0 0 1 .4 0l4.5 2.6.2.4v5.2Zm45-5.4c.5-.2.8-.8.8-1.3v-3.7c0-.6-.3-1.1-.8-1.4l-13-7.6a1.6 1.6 0 0 0-1.6 0l-13.2 7.6c-.5.3-.8.9-.8 1.4v15.2c0 .5.3 1 .8 1.3l13 7.5c.6.3 1.2.3 1.6 0l8-4.4c.2-.1.4-.4.4-.7 0-.3-.2-.6-.4-.7L876 245a.8.8 0 0 1-.4-.7v-4.7c0-.3.2-.6.4-.7l4.2-2.4a.8.8 0 0 1 .8 0l4.1 2.4c.2.2.4.4.4.7v3.7c0 .3.2.6.4.7a.8.8 0 0 0 .8 0l7.8-4.6Z" style="fill:#333;fill:color(display-p3 .2 .2 .2);fill-opacity:1"/><path fill="#539E43" d="M880.6 238.6H880.9l2.5 1.5s.2.1.2.3v2.9l-.2.3-2.5 1.4a.3.3 0 0 1-.3 0l-2.5-1.4-.2-.3v-3s0-.2.2-.2l2.5-1.5Z" style="fill:#539e43;fill:color(display-p3 .3255 .6196 .2627);fill-opacity:1"/><path fill="url(#i)" d="M809.7 225.4c-.5-.3-1-.3-1.6 0L795 233c-.5.3-.8.8-.8 1.4v15.2c0 .5.3 1 .8 1.3l13.1 7.6c.5.3 1.1.3 1.6 0l13.2-7.6c.5-.3.8-.8.8-1.3v-15.2c0-.6-.3-1.1-.8-1.4l-13.2-7.6Z"/><path fill="url(#j)" d="m823 233-13.3-7.6-.4-.1-14.8 25.3.4.4 13.2 7.5c.4.3.9.3 1.3.2l13.9-25.4-.4-.3Z"/><path fill="url(#k)" d="m823 251 .7-1-14.5-24.8c-.3 0-.7 0-1 .2L795 233l14.1 25.7c.2 0 .4 0 .6-.2L823 251Z"/><path fill="#0082C2" d="M743 101.2h7.3v2.9h-3.8v17h3.8v2.9H743v-22.8Zm24.3 11.4c0 5.6-2.7 8.4-8 8.4h-4.6v-16.6h4.2c2.5 0 4.6.6 6 1.7 1.6 1.2 2.4 3.4 2.4 6.5Zm-4.1 0c0-2-.3-3.5-1-4.2a3.4 3.4 0 0 0-2.7-1.2h-.8v11h.8c1.2 0 2.1-.5 2.7-1.3.7-.8 1-2.3 1-4.3Zm9.5 3.1c.3 2 1.3 3 3.1 3a6 6 0 0 0 3.3-1.1l1.5 2c-.6.6-1.4 1-2.2 1.4-1 .3-1.9.4-2.9.4-1.4 0-2.6-.3-3.6-.8-1-.6-1.8-1.4-2.3-2.4a8 8 0 0 1-.7-3.6 8 8 0 0 1 .7-3.4 5.8 5.8 0 0 1 5.5-3.4c1.2 0 2.3.3 3.2.8a5 5 0 0 1 2 2.3c.5 1 .8 2.1.8 3.5l-.1 1.3h-8.3Zm2.4-5.3a2 2 0 0 0-1.7.7 4 4 0 0 0-.7 2.3h4.7c0-2-.8-3-2.3-3Zm16.4 10.6h-4.4l-4.3-12.7h4l2.5 9.8 2.6-9.8h3.9l-4.3 12.7Zm32.8-4.9c0 1-.3 2-.8 2.8-.6.8-1.4 1.4-2.4 1.9-1 .4-2.2.6-3.6.6a9 9 0 0 1-6.6-2.4l2-2.2a6.5 6.5 0 0 0 4.5 1.7c.9 0 1.5-.2 2-.5.5-.4.8-1 .8-1.6 0-.6-.2-1-.7-1.4-.4-.3-1.2-.7-2.3-1-2-.6-3.4-1.3-4.2-2.1a4.1 4.1 0 0 1-1.2-3.1c0-1 .3-1.9.8-2.6.6-.7 1.3-1.3 2.3-1.7 1-.4 2-.6 3.2-.6 2.4 0 4.4.8 6 2.2l-2 2.1a5.6 5.6 0 0 0-3.8-1.4c-.7 0-1.3.2-1.8.5-.4.2-.6.6-.6 1.2 0 .3 0 .6.3.9l1 .6 2 .8a9 9 0 0 1 3.8 2c.9.8 1.3 1.9 1.3 3.3Zm5.6-.4c.3 2 1.3 3 3 3a6 6 0 0 0 3.4-1.1l1.5 2c-.7.6-1.4 1-2.3 1.4-.8.3-1.8.4-2.8.4-1.4 0-2.7-.3-3.6-.8-1-.6-1.8-1.4-2.3-2.4a8 8 0 0 1-.7-3.6 8 8 0 0 1 .7-3.4 5.8 5.8 0 0 1 5.5-3.4c1.2 0 2.2.3 3.1.8a5 5 0 0 1 2.1 2.3c.5 1 .7 2.1.7 3.5v1.3h-8.3Zm2.4-5.3a2 2 0 0 0-1.7.7 4 4 0 0 0-.7 2.3h4.7c0-2-.8-3-2.3-3Zm18.3-2.5c.8 0 1.5.1 2.2.4l-.7 5.3h-2.4v-2.4c-.7.2-1.4.5-2 1.2-.5.6-.9 1.4-1.2 2.4v3.7h2.5v2.5h-8v-2.5h1.7v-7.7H841v-2.5h4.6l.7 2.8c.5-1 1-1.9 1.8-2.4.7-.6 1.5-.8 2.5-.8ZM863 121h-4.5l-4.3-12.7h4.1l2.5 9.8 2.6-9.8h3.8L863 121Zm9.8-5.3c.2 2 1.3 3 3 3a6 6 0 0 0 3.3-1.1l1.6 2c-.7.6-1.4 1-2.3 1.4-.8.3-1.8.4-2.8.4-1.5 0-2.7-.3-3.7-.8-1-.6-1.7-1.4-2.2-2.4a8 8 0 0 1-.8-3.6 8 8 0 0 1 .8-3.4 5.8 5.8 0 0 1 5.5-3.4c1.2 0 2.2.3 3.1.8a5 5 0 0 1 2 2.3c.6 1 .8 2.1.8 3.5v1.3h-8.3Zm2.4-5.3a2 2 0 0 0-1.7.7 4 4 0 0 0-.7 2.3h4.6c0-2-.8-3-2.2-3Zm18.3-2.5c.8 0 1.5.1 2.1.4l-.7 5.3h-2.4v-2.4c-.7.2-1.3.5-1.8 1.2-.6.6-1 1.4-1.3 2.4v3.7h2.5v2.5h-8v-2.5h1.7v-7.7H884v-2.5h4.6l.7 2.8c.4-1 1-1.9 1.7-2.4.7-.6 1.6-.8 2.6-.8Zm13.6 16h-7.4v-2.8h3.8v-17h-3.8v-2.9h7.4V124ZM772.3 147H769l-.2-6.5a30.2 30.2 0 0 1 .2-5.7l-1.7 9.6h-2.7l-1.9-9.6c.2 1.7.2 3.2.2 4.6v7.6h-3.2l.9-15.2h3.7l1.7 9.8 1.6-9.8h3.7l.9 15.2Zm6.8-17.8c.6 0 1.1.2 1.5.6.4.3.6.8.6 1.4 0 .5-.2 1-.6 1.4a2 2 0 0 1-1.5.5c-.6 0-1-.2-1.5-.5a2 2 0 0 1-.5-1.4c0-.6.1-1 .5-1.4a2 2 0 0 1 1.5-.6Zm2.1 15.4h3v2.4h-9.8v-2.4h3.3v-7h-3.2v-2.3h6.7v9.3Zm16.1-14V147h-3l-.3-1.3a4 4 0 0 1-1.3 1.2 4 4 0 0 1-1.9.5c-1.4 0-2.5-.6-3.2-1.7-.7-1.1-1-2.6-1-4.6 0-1.2.1-2.2.5-3.2a5 5 0 0 1 1.6-2.2 4 4 0 0 1 2.5-.8c1 0 2 .4 2.6 1.1v-5.7l3.5.4Zm-5.2 6.9c-.6 0-1.1.3-1.5.9-.3.6-.5 1.5-.5 2.7 0 1.4.2 2.4.5 3 .3.5.7.7 1.3.7.7 0 1.4-.4 2-1.3v-5l-.9-.8-.9-.2Zm18.3-6.8V147h-3l-.2-1.3a4 4 0 0 1-1.4 1.2 4 4 0 0 1-1.9.5c-1.4 0-2.5-.6-3.2-1.7-.7-1.1-1-2.6-1-4.6 0-1.2.1-2.2.5-3.2a5 5 0 0 1 1.6-2.2 4 4 0 0 1 2.5-.8c1 0 2 .4 2.6 1.1v-5.7l3.5.4Zm-5.2 6.8c-.6 0-1.1.3-1.5.9-.3.6-.5 1.5-.5 2.7 0 1.4.2 2.4.5 3 .3.5.7.7 1.3.7.8 0 1.4-.4 2-1.3v-5l-.9-.8-.9-.2Zm14.3 5.8c0 .9.5 1.3 1.5 1.3.5 0 1 0 1.7-.3l.8 2.3a7 7 0 0 1-3.4.8c-1.4 0-2.4-.4-3-1.2a5 5 0 0 1-1-3.3V133h-3.5v-2.4h6.9v12.6Zm10-1.1c.2 1.8 1.2 2.6 2.8 2.6 1 0 2-.3 3-1l1.4 2c-.6.5-1.3.9-2 1.2-.8.2-1.7.4-2.7.4-1.3 0-2.4-.3-3.3-.8-.9-.5-1.6-1.3-2-2.2-.5-1-.7-2-.7-3.2 0-1.2.2-2.3.6-3.2a5.3 5.3 0 0 1 5-3c1.2 0 2.1.2 3 .6.8.5 1.4 1.2 1.9 2.1.4 1 .6 2 .6 3.2v1.3h-7.6Zm2.2-5c-.7 0-1.2.3-1.6.8-.3.4-.6 1.1-.6 2h4.3c0-1.8-.8-2.7-2.1-2.7Zm14 9.8-1-7.9-1 7.9h-3.8l-1.8-11.7h3.2l.8 9.5 1.2-8h3l1 8 .8-9.5h3l-1.6 11.7h-3.8Zm16.8-3.4.2 1c.1.2.3.3.6.4l-.7 2.3c-.7 0-1.3-.2-1.8-.4-.4-.3-.8-.6-1-1.1-.5.5-1 .9-1.8 1.2-.6.2-1.3.4-2.1.4a4 4 0 0 1-2.9-1c-.7-.7-1-1.6-1-2.7 0-1.3.4-2.2 1.4-3 1-.6 2.4-1 4.2-1h1.6v-.4c0-1.2-.8-1.8-2.3-1.8-.4 0-1 0-1.5.2-.6 0-1.2.2-1.7.4l-.8-2.3a13.7 13.7 0 0 1 4.5-.9c3.4 0 5.1 1.4 5.1 4.2v4.5Zm-5.4 1.3a2.4 2.4 0 0 0 2-1.3v-1.9h-.8c-1.8 0-2.8.6-2.8 1.8 0 .4.2.8.4 1 .3.3.7.4 1.2.4Zm17.6-10c.7 0 1.4.2 2 .4l-.7 4.9h-2.2V138a3 3 0 0 0-1.7 1.1c-.5.6-.9 1.3-1.2 2.2v3.4h2.3v2.3H866v-2.3h1.6v-7h-1.6v-2.4h4.2l.6 2.6c.5-1 1-1.7 1.6-2.2.7-.5 1.5-.7 2.4-.7Zm7.2 7.3c.2 1.8 1.2 2.6 2.8 2.6 1 0 2-.3 3-1l1.4 2c-.6.5-1.2.9-2 1.2-.8.2-1.7.4-2.6.4-1.4 0-2.5-.3-3.4-.8-.9-.5-1.6-1.3-2-2.2-.5-1-.7-2-.7-3.2 0-1.2.2-2.3.6-3.2a5.3 5.3 0 0 1 5-3c1.2 0 2.2.2 3 .6.8.5 1.4 1.2 1.9 2.1.4 1 .7 2 .7 3.2l-.1 1.3h-7.6Zm2.2-5c-.7 0-1.2.3-1.5.8-.4.4-.6 1.1-.7 2h4.3c0-1.8-.8-2.7-2.1-2.7ZM564.6 216a8 8 0 0 1 3.1.6l-.7 1.5c-.6-.3-1.4-.4-2.2-.4-.7 0-1.2.1-1.6.4-.3.2-.5.7-.5 1.2v1.9h3.6l-.3 1.7h-3.3v8.1h-2.2v-8.1h-2.4v-1.7h2.4v-1.9c0-.7.2-1.3.5-1.8s.8-.9 1.4-1.1a5 5 0 0 1 2.2-.5Zm7.3 10.4c0 1 .4 1.8.9 2.4.5.5 1.2.7 2 .7.5 0 1 0 1.4-.2l1.4-.7 1 1.4-1.8 1-2.1.3c-1.6 0-2.9-.5-3.8-1.5-.9-1-1.3-2.4-1.3-4 0-1.1.2-2 .6-3 .4-.8 1-1.4 1.6-2 .8-.4 1.6-.6 2.6-.6 1.4 0 2.5.4 3.3 1.4.9 1 1.3 2.2 1.3 3.8v1h-7Zm2.5-4.6c-.7 0-1.3.3-1.7.8-.5.5-.7 1.3-.8 2.3h4.9a4 4 0 0 0-.7-2.3 2 2 0 0 0-1.7-.8Zm16.4 8.6a6.3 6.3 0 0 1-3 .8 4 4 0 0 1-2.9-.9c-.6-.6-1-1.4-1-2.5v-5.7h-2.3v-1.7h2.3v-2.3l2.3-.3v2.6h3.6l-.3 1.7h-3.3v5.7c0 .6.1 1 .4 1.3.3.2.8.4 1.4.4a4 4 0 0 0 2-.5l.8 1.4Zm8.2-1c.8 0 1.7-.3 2.6-.9l1 1.5-1.7 1c-.6.1-1.3.3-2 .3-1.6 0-2.9-.5-3.8-1.5-.9-1-1.3-2.4-1.3-4 0-1.1.2-2 .6-2.9.4-.9 1-1.5 1.8-2 .7-.5 1.7-.7 2.7-.7 1.4 0 2.7.4 3.7 1.2l-1 1.4c-.9-.5-1.8-.8-2.6-.8-1 0-1.6.3-2.1 1-.5.5-.8 1.5-.8 2.8 0 1.2.3 2.2.8 2.7.5.6 1.2 1 2 1Zm9-7.7c.5-.5 1-.9 1.5-1.1.6-.3 1.2-.4 1.8-.4 1 0 1.7.2 2.2.8.5.5.7 1.3.7 2.3v7.7H612v-7.4c0-.6-.1-1-.4-1.3-.2-.3-.6-.4-1.1-.4-.5 0-1 .1-1.4.4-.4.3-.8.7-1 1.1v7.6h-2.3v-14.8l2.2-.2v5.7Zm23.3 6-1 3.3H628l4.4-13.8h2.9l4.4 13.8h-2.5l-1-3.3h-4.9Zm4.5-1.8-2-6.9-2 6.9h4Zm15.2-4.4c0 1.6-.5 2.7-1.4 3.5-1 .7-2.3 1-4 1H644v5h-2.3v-13.8h3.8c1.8 0 3.1.4 4 1.1 1 .7 1.5 1.8 1.5 3.2Zm-2.4 0c0-1.7-1-2.6-3-2.6H644v5.4h1.7c.9 0 1.6-.2 2.1-.6.5-.4.8-1.2.8-2.2Zm13.2-2.5h-3v10.2h3v1.8h-8.3v-1.8h3V219h-3v-1.8h8.3v1.8ZM959.3 229.4c.9 0 1.7-.3 2.6-.9l1 1.5c-.4.4-1 .7-1.6 1l-2 .3c-1.7 0-3-.5-3.8-1.5-1-1-1.4-2.4-1.4-4 0-1.1.2-2 .6-2.9.4-.9 1-1.5 1.8-2s1.7-.7 2.8-.7c1.4 0 2.6.4 3.6 1.2l-1 1.4c-.9-.5-1.7-.8-2.6-.8-.9 0-1.5.3-2 1-.6.5-.8 1.5-.8 2.8 0 1.2.2 2.2.7 2.7.5.6 1.2 1 2.1 1Zm15-1 .1 1 .6.3-.5 1.6c-1.1-.2-1.8-.7-2.2-1.5-.4.5-.9.8-1.4 1.1-.6.2-1.3.4-2 .4-1 0-1.9-.3-2.5-1-.6-.5-1-1.3-1-2.3 0-1.1.5-2 1.4-2.6.9-.6 2.1-.9 3.7-.9h1.5v-.7c0-.6-.2-1.1-.6-1.4-.4-.3-1-.5-1.7-.5-.4 0-.9 0-1.3.2-.5 0-1 .2-1.5.4l-.6-1.6c1.3-.5 2.5-.7 3.7-.7 1.4 0 2.4.3 3.2.9.7.6 1 1.5 1 2.6v4.7Zm-4.7 1.2c.5 0 1-.1 1.4-.3l1-1v-2.4h-1.2c-1 0-1.8.2-2.3.5-.4.4-.7.9-.7 1.5s.2 1 .5 1.3c.3.3.7.4 1.3.4Zm13-1.5c0 1 .6 1.4 1.7 1.4.5 0 1-.2 1.7-.4l.5 1.6c-.7.4-1.6.6-2.7.6-1 0-1.9-.3-2.5-1-.6-.5-.9-1.3-.9-2.4v-10h-3.1v-1.7h5.4v12Zm12 0c0 1 .5 1.4 1.6 1.4.5 0 1-.2 1.7-.4l.5 1.6c-.7.4-1.6.6-2.7.6-1 0-1.9-.3-2.5-1-.5-.5-.8-1.3-.8-2.4v-10h-3.2v-1.7h5.4v12Zm22-5h5v1.8h-5v4.3h6v1.8h-8.3v-13.8h8.3l-.3 1.8h-5.7v4.1Zm17.5-6.9V231h-2l-.1-1.3c-.3.5-.8.9-1.3 1.2-.5.2-1 .4-1.7.4-1.3 0-2.3-.5-3-1.5-.6-1-1-2.4-1-4 0-1.2.2-2.1.6-3 .3-.8.8-1.5 1.4-2 .6-.4 1.4-.6 2.2-.6 1.1 0 2 .3 2.7 1.1V216l2.2.3Zm-4.3 5.7a2 2 0 0 0-1.8 1c-.4.6-.6 1.5-.6 2.8 0 2.6.8 3.9 2.2 3.9 1 0 1.7-.5 2.3-1.6v-5c-.6-.7-1.2-1.1-2-1.1Zm12-6.6c.5 0 .8.1 1 .4.4.2.5.6.5 1s-.1.7-.4 1c-.3.2-.7.4-1 .4-.5 0-.9-.2-1.1-.4-.3-.3-.4-.6-.4-1s.1-.8.4-1c.3-.3.6-.4 1-.4Zm1.6 14h2.8v1.7h-8.2v-1.6h3.1V222h-3v-1.7h5.3v9Zm15 1.1-1.5.6c-.5.2-1 .3-1.6.3-1.2 0-2.2-.3-2.8-1-.7-.6-1-1.4-1-2.5v-5.7h-2.3v-1.7h2.3v-2.3l2.2-.3v2.6h3.6l-.2 1.7h-3.4v5.7c0 .6.2 1 .5 1.3.3.2.7.4 1.4.4a4 4 0 0 0 2-.5l.7 1.4Zm7.3-10.2c1.5 0 2.7.5 3.5 1.5a6 6 0 0 1 1.2 4c0 1.7-.4 3-1.2 4-.9 1-2 1.6-3.5 1.6-1.6 0-2.8-.5-3.6-1.5-.8-1-1.2-2.3-1.2-4 0-1.8.4-3.1 1.2-4.1.9-1 2-1.5 3.6-1.5Zm0 1.7a2 2 0 0 0-1.9 1c-.4.6-.6 1.5-.6 2.8 0 1.3.2 2.3.6 3 .4.5 1 .8 1.9.8a2 2 0 0 0 1.8-.9c.4-.6.6-1.6.6-2.9 0-1.3-.2-2.2-.6-2.9a2 2 0 0 0-1.8-.9Zm15.1-1.7c.6 0 1.1 0 1.6.2l-.4 4h-1.6v-2.2c-.7 0-1.3.3-1.9.9-.5.5-1 1.3-1.3 2.4v3.9h2.2v1.6h-6v-1.6h1.6V222h-1.6v-1.6h3.3l.4 2.5c.4-1 1-1.6 1.5-2 .6-.5 1.3-.7 2.2-.7Z" style="fill:#0082c2;fill:color(display-p3 0 .5083 .7625);fill-opacity:1"/><path fill="#666" d="M1182 90.4h6.6v2.1h-4v18.2h4v2.1h-6.6V90.4Zm22.4 5.2h-3.6v12.3h3.6v2.1h-10v-2.1h3.6V95.6h-3.6v-2.2h10v2.2Zm15.5 6c0 3.2-.7 5.3-2.1 6.6a8.3 8.3 0 0 1-5.6 1.8h-4V93.4h3.8a9 9 0 0 1 5.8 1.8c1.4 1.1 2.1 3.3 2.1 6.4Zm-2.9 0c0-2.3-.4-4-1.2-4.8-.8-.8-2-1.2-3.3-1.2h-1.5v12.3h1.5c3 0 4.5-2.1 4.5-6.3Zm9.3-1h6v2h-6v5.3h7.3v2.1h-10.1V93.4h10l-.4 2.2h-6.8v5Zm24.1 11 10.2-21 2.1.9-10.2 21-2-1Zm33-11h6v2h-6v5.3h7.4v2.1h-10.1V93.4h10l-.4 2.2h-6.8v5Zm21.1-8.4V110h-2.4l-.2-1.6c-.4.6-.9 1.1-1.5 1.4-.6.4-1.3.5-2 .5a4 4 0 0 1-3.6-1.8 8.6 8.6 0 0 1-1.2-4.8c0-1.3.2-2.5.6-3.5.4-1 1-1.8 1.8-2.3.7-.6 1.6-1 2.6-1a4 4 0 0 1 3.2 1.5v-6.5l2.7.3Zm-5.2 6.9c-.9 0-1.6.3-2.1 1.1s-.7 2-.7 3.5c0 3 .8 4.6 2.6 4.6 1 0 2-.6 2.7-1.9v-6c-.6-.9-1.5-1.3-2.5-1.3Zm14.4-8c.5 0 1 .2 1.3.5.3.3.5.7.5 1.2s-.2.9-.5 1.2c-.3.3-.8.5-1.3.5s-1-.2-1.2-.5c-.3-.3-.5-.7-.5-1.2s.2-.9.5-1.2c.3-.3.7-.5 1.2-.5Zm1.9 17h3.5v1.9h-10v-2h3.8v-8.7h-3.7v-2h6.4V108Zm18 1.2c-.5.3-1 .6-1.7.7-.7.2-1.3.3-2 .3-1.5 0-2.6-.4-3.4-1a4 4 0 0 1-1.2-3.1v-6.9h-2.8v-2h2.8v-2.8l2.7-.3v3.1h4.3l-.3 2h-4v6.8c0 .7.2 1.2.6 1.6.3.3.9.5 1.6.5.9 0 1.7-.2 2.4-.6l1 1.7Zm8.8-12.3c1.8 0 3.2.6 4.2 1.8 1 1.2 1.5 2.8 1.5 4.8s-.5 3.7-1.5 5a5.2 5.2 0 0 1-4.3 1.7c-1.8 0-3.2-.6-4.2-1.7a7.4 7.4 0 0 1-1.5-5c0-2 .5-3.6 1.5-4.8 1-1.2 2.5-1.8 4.3-1.8Zm0 2c-1 0-1.8.5-2.3 1.2-.4.8-.7 2-.7 3.5s.3 2.7.8 3.4c.4.8 1.1 1.1 2.1 1.1s1.7-.3 2.2-1c.5-.8.7-2 .7-3.6 0-1.5-.2-2.7-.7-3.4a2.4 2.4 0 0 0-2.2-1.1Zm18.1-2a6 6 0 0 1 2 .3l-.5 4.7h-2v-2.6c-.8 0-1.6.4-2.2 1-.7.8-1.2 1.7-1.6 3v4.7h2.6v1.9h-7.1v-2h1.8v-8.8h-1.8v-1.9h3.9l.5 3c.5-1.1 1-2 1.8-2.5.7-.5 1.6-.8 2.6-.8Zm13.5 15.8h-6.6v-2.1h4V92.5h-4v-2.1h6.6v22.4Z" style="fill:#666;fill:color(display-p3 .4 .4 .4);fill-opacity:1"/><g filter="url(#l)"><g clip-path="url(#m)"><rect width="276.2" height="247" x="1141" y="120" fill="#23272E" rx="9" style="fill:#23272e;fill:color(display-p3 .1373 .1529 .1804);fill-opacity:1"/><path fill="#1E2227" d="M1141 146.2h60.6V367H1141z" style="fill:#1e2227;fill:color(display-p3 .1176 .1333 .1529);fill-opacity:1"/><path stroke="#fff" stroke-opacity=".4" stroke-width=".7" d="M1140.6 145.8h61.4v221.6h-61.4z" style="stroke:#fff;stroke-opacity:.4"/><path fill="#23272E" stroke="#777" stroke-width=".7" d="M1140.6 119.6h276.9v26.9h-276.9z" style="fill:#23272e;fill:color(display-p3 .1373 .1529 .1804);fill-opacity:1;stroke:#777;stroke:color(display-p3 .4667 .4667 .4667);stroke-opacity:1"/><g filter="url(#n)"><path fill="#EE6A5F" fill-rule="evenodd" d="M1157.5 138a4.5 4.5 0 1 0 0-9 4.5 4.5 0 0 0 0 9Z" clip-rule="evenodd" style="fill:#ee6a5f;fill:color(display-p3 .9333 .4157 .3725);fill-opacity:1"/></g><path stroke="#CE5347" stroke-width=".4" d="M1161.8 133.5a4.3 4.3 0 1 1-8.6 0 4.3 4.3 0 0 1 8.6 0Z" style="stroke:#ce5347;stroke:color(display-p3 .8078 .3255 .2784);stroke-opacity:1"/><g filter="url(#o)"><path fill="#F5BD4F" fill-rule="evenodd" d="M1172.4 138a4.5 4.5 0 1 0 0-9 4.5 4.5 0 0 0 0 9Z" clip-rule="evenodd" style="fill:#f5bd4f;fill:color(display-p3 .9608 .7412 .3098);fill-opacity:1"/></g><path stroke="#D6A243" stroke-width=".4" d="M1176.7 133.5a4.3 4.3 0 1 1-8.6 0 4.3 4.3 0 0 1 8.6 0Z" style="stroke:#d6a243;stroke:color(display-p3 .8392 .6353 .2627);stroke-opacity:1"/><g filter="url(#p)"><path fill="#61C454" fill-rule="evenodd" d="M1187.4 138a4.5 4.5 0 1 0 0-9 4.5 4.5 0 0 0 0 9Z" clip-rule="evenodd" style="fill:#61c454;fill:color(display-p3 .3804 .7686 .3294);fill-opacity:1"/></g><path stroke="#58A942" stroke-width=".4" d="M1191.7 133.5a4.3 4.3 0 1 1-8.6 0 4.3 4.3 0 0 1 8.6 0Z" style="stroke:#58a942;stroke:color(display-p3 .3451 .6627 .2588);stroke-opacity:1"/><rect width="12.7" height="6" x="1244.3" y="167.2" fill="#FF6490" rx="3" style="fill:#ff6490;fill:color(display-p3 1 .3922 .5647);fill-opacity:1"/><rect width="18.7" height="6" x="1244.3" y="182.1" fill="#FF6490" rx="3" style="fill:#ff6490;fill:color(display-p3 1 .3922 .5647);fill-opacity:1"/><rect width="26.2" height="6" x="1266.8" y="182.1" fill="#7DFF86" rx="3" style="fill:#7dff86;fill:color(display-p3 .4902 1 .5255);fill-opacity:1"/><rect width="6" height="6" x="1298.2" y="182.1" fill="#fff" rx="3" style="fill:#fff;fill-opacity:1"/><rect width="6" height="6" x="1295.9" y="197.1" fill="#FFEB5C" rx="3" style="fill:#ffeb5c;fill:color(display-p3 1 .9216 .3608);fill-opacity:1"/><rect width="6" height="6" x="1272.7" y="227" fill="#fff" rx="3" style="fill:#fff;fill-opacity:1"/><rect width="6" height="6" x="1245" y="257" fill="#fff" rx="3" style="fill:#fff;fill-opacity:1"/><rect width="6" height="6" x="1278.7" y="257" fill="#7DFF86" rx="3" style="fill:#7dff86;fill:color(display-p3 .4902 1 .5255);fill-opacity:1"/><rect width="6" height="6" x="1267.5" y="286.9" fill="#fff" rx="3" style="fill:#fff;fill-opacity:1"/><rect width="6" height="6" x="1267.5" y="301.9" fill="#FF6490" rx="3" style="fill:#ff6490;fill:color(display-p3 1 .3922 .5647);fill-opacity:1"/><rect width="6" height="6" x="1278.7" y="286.9" fill="#FF6490" rx="3" style="fill:#ff6490;fill:color(display-p3 1 .3922 .5647);fill-opacity:1"/><rect width="6" height="6" x="1329.6" y="286.9" fill="#FF6490" rx="3" style="fill:#ff6490;fill:color(display-p3 1 .3922 .5647);fill-opacity:1"/><rect width="6" height="6" x="1355.1" y="197.1" fill="#fff" rx="3" style="fill:#fff;fill-opacity:1"/><rect width="6" height="6" x="1382.8" y="197.1" fill="#fff" rx="3" style="fill:#fff;fill-opacity:1"/><rect width="71.1" height="6" x="1309.4" y="182.1" fill="#FFEB5C" rx="3" style="fill:#ffeb5c;fill:color(display-p3 1 .9216 .3608);fill-opacity:1"/><rect width="9.7" height="6" x="1385.8" y="182.1" fill="#fff" rx="3" style="fill:#fff;fill-opacity:1"/><rect width="12.7" height="6" x="1244.3" y="197.1" fill="#FF6490" rx="3" style="fill:#ff6490;fill:color(display-p3 1 .3922 .5647);fill-opacity:1"/><rect width="12.7" height="6" x="1244.3" y="212.1" fill="#FF6490" rx="3" style="fill:#ff6490;fill:color(display-p3 1 .3922 .5647);fill-opacity:1"/><rect width="18" height="6" x="1255.5" y="257" fill="#FF6490" rx="3" style="fill:#ff6490;fill:color(display-p3 1 .3922 .5647);fill-opacity:1"/><rect width="12" height="6" x="1261.5" y="271.9" fill="#fff" rx="3" style="fill:#fff;fill-opacity:1"/><rect width="25.4" height="6" x="1290" y="257" fill="#FFEB5C" rx="3" style="fill:#ffeb5c;fill:color(display-p3 1 .9216 .3608);fill-opacity:1"/><rect width="34.4" height="6" x="1290" y="286.9" fill="#fff" rx="3" style="fill:#fff;fill-opacity:1"/><rect width="23.2" height="6" x="1278.7" y="301.9" fill="#76D8FF" rx="3" style="fill:#76d8ff;fill:color(display-p3 .4627 .8471 1);fill-opacity:1"/><rect width="11.2" height="6" x="1307.2" y="301.9" fill="#fff" rx="3" style="fill:#fff;fill-opacity:1"/><rect width="14.2" height="6" x="1321.4" y="257" fill="#7DFF86" rx="3" style="fill:#7dff86;fill:color(display-p3 .4902 1 .5255);fill-opacity:1"/><rect width="34.4" height="6" x="1340.8" y="257" fill="#FFEB5C" rx="3" style="fill:#ffeb5c;fill:color(display-p3 1 .9216 .3608);fill-opacity:1"/><rect width="34.4" height="6" x="1340.8" y="286.9" fill="#fff" rx="3" style="fill:#fff;fill-opacity:1"/><rect width="24" height="6" x="1244.3" y="227" fill="#fff" rx="3" style="fill:#fff;fill-opacity:1"/><rect width="24" height="6" x="1244.3" y="242" fill="#FF6490" rx="3" style="fill:#ff6490;fill:color(display-p3 1 .3922 .5647);fill-opacity:1"/><rect width="34.4" height="6" x="1272.7" y="242" fill="#fff" rx="3" style="fill:#fff;fill-opacity:1"/><rect width="29.2" height="6" x="1261.5" y="197.1" fill="#fff" rx="3" style="fill:#fff;fill-opacity:1"/><rect width="23.2" height="6" x="1306.4" y="197.1" fill="#C8D1DD" rx="3" style="fill:#c8d1dd;fill:color(display-p3 .7843 .8196 .8667);fill-opacity:1"/><rect width="15.7" height="6" x="1334.1" y="197.1" fill="#FFEB5C" rx="3" style="fill:#ffeb5c;fill:color(display-p3 1 .9216 .3608);fill-opacity:1"/><rect width="12.7" height="6" x="1261.5" y="167.2" fill="#fff" rx="3" style="fill:#fff;fill-opacity:1"/><rect width="23.2" height="6" x="1278.7" y="167.2" fill="#fff" rx="3" style="fill:#fff;fill-opacity:1"/><rect width="15" height="6" x="1306.4" y="167.2" fill="#fff" rx="3" style="fill:#fff;fill-opacity:1"/><rect width="11.2" height="6" x="1366.3" y="197.1" fill="#FF6490" rx="3" style="fill:#ff6490;fill:color(display-p3 1 .3922 .5647);fill-opacity:1"/><rect width="6" height="6" x="1326.6" y="167.2" fill="#fff" rx="3" style="fill:#fff;fill-opacity:1"/><rect width="6" height="6" x="1218.8" y="301.9" fill="#7E8590" rx="2.2" style="fill:#7e8590;fill:color(display-p3 .4941 .5216 .5647);fill-opacity:1"/><rect width="6" height="6" x="1218.8" y="316.9" fill="#7E8590" rx="2.2" style="fill:#7e8590;fill:color(display-p3 .4941 .5216 .5647);fill-opacity:1"/><rect width="6" height="6" x="1218.8" y="182.1" fill="#7E8590" rx="2.2" style="fill:#7e8590;fill:color(display-p3 .4941 .5216 .5647);fill-opacity:1"/><rect width="6" height="6" x="1232.3" y="182.1" fill="#fff" rx="2.2" style="fill:#fff;fill-opacity:1"/><rect width="6" height="6" x="1218.8" y="286.9" fill="#7E8590" rx="2.2" style="fill:#7e8590;fill:color(display-p3 .4941 .5216 .5647);fill-opacity:1"/><rect width="6" height="6" x="1218.8" y="257" fill="#7E8590" rx="2.2" style="fill:#7e8590;fill:color(display-p3 .4941 .5216 .5647);fill-opacity:1"/><rect width="6" height="6" x="1218.8" y="271.9" fill="#7E8590" rx="2.2" style="fill:#7e8590;fill:color(display-p3 .4941 .5216 .5647);fill-opacity:1"/><rect width="6" height="6" x="1218.8" y="227" fill="#7E8590" rx="2.2" style="fill:#7e8590;fill:color(display-p3 .4941 .5216 .5647);fill-opacity:1"/><rect width="6" height="6" x="1232.3" y="227" fill="#fff" rx="2.2" style="fill:#fff;fill-opacity:1"/><rect width="6" height="6" x="1218.8" y="242" fill="#7E8590" rx="2.2" style="fill:#7e8590;fill:color(display-p3 .4941 .5216 .5647);fill-opacity:1"/><rect width="6" height="6" x="1232.3" y="242" fill="#fff" rx="2.2" style="fill:#fff;fill-opacity:1"/><rect width="6" height="6" x="1218.8" y="197.1" fill="#7E8590" rx="2.2" style="fill:#7e8590;fill:color(display-p3 .4941 .5216 .5647);fill-opacity:1"/><rect width="6" height="6" x="1232.3" y="197.1" fill="#fff" rx="2.2" style="fill:#fff;fill-opacity:1"/><rect width="6" height="6" x="1218.8" y="167.2" fill="#7E8590" rx="2.2" style="fill:#7e8590;fill:color(display-p3 .4941 .5216 .5647);fill-opacity:1"/><rect width="6" height="6" x="1232.3" y="167.2" fill="#fff" rx="2.2" style="fill:#fff;fill-opacity:1"/><rect width="6" height="6" x="1218.8" y="212.1" fill="#7E8590" rx="2.2" style="fill:#7e8590;fill:color(display-p3 .4941 .5216 .5647);fill-opacity:1"/><rect width="6" height="6" x="1232.3" y="212.1" fill="#fff" rx="2.2" style="fill:#fff;fill-opacity:1"/><rect width="23.2" height="6" x="1154.5" y="167.2" fill="#81878D" rx="3" style="fill:#81878d;fill:color(display-p3 .5057 .5299 .5542);fill-opacity:1"/><rect width="23.2" height="6" x="1165.7" y="181.4" fill="#81878D" rx="3" style="fill:#81878d;fill:color(display-p3 .5057 .5299 .5542);fill-opacity:1"/><rect width="23.2" height="6" x="1165.7" y="195.6" fill="#81878D" rx="3" style="fill:#81878d;fill:color(display-p3 .5057 .5299 .5542);fill-opacity:1"/><rect width="23.2" height="6" x="1154.5" y="209.8" fill="#81878D" rx="3" style="fill:#81878d;fill:color(display-p3 .5057 .5299 .5542);fill-opacity:1"/><rect width="23.2" height="6" x="1154.5" y="224" fill="#81878D" rx="3" style="fill:#81878d;fill:color(display-p3 .5057 .5299 .5542);fill-opacity:1"/><rect width="23.2" height="6" x="1165.7" y="238.3" fill="#81878D" rx="3" style="fill:#81878d;fill:color(display-p3 .5057 .5299 .5542);fill-opacity:1"/><rect width="23.2" height="6" x="1165.7" y="252.5" fill="#81878D" rx="3" style="fill:#81878d;fill:color(display-p3 .5057 .5299 .5542);fill-opacity:1"/><rect width="23.2" height="6" x="1154.5" y="266.7" fill="#81878D" rx="3" style="fill:#81878d;fill:color(display-p3 .5057 .5299 .5542);fill-opacity:1"/><rect width="23.2" height="6" x="1154.5" y="280.9" fill="#81878D" rx="3" style="fill:#81878d;fill:color(display-p3 .5057 .5299 .5542);fill-opacity:1"/><rect width="23.2" height="6" x="1154.5" y="295.1" fill="#81878D" rx="3" style="fill:#81878d;fill:color(display-p3 .5057 .5299 .5542);fill-opacity:1"/></g></g><path fill="#555" d="m718 243-25-14.4v28.8l25-14.4Zm-22.5-2.5h-168v5h168v-5ZM1124 243l-25-14.4v28.8l25-14.4Zm-22.5-2.5h-168v5h168v-5Z" style="fill:#555;fill:color(display-p3 .3333 .3333 .3333);fill-opacity:1"/><defs><filter id="a" width="532.6" height="387.8" x="7.7" y="56.3" color-interpolation-filters="sRGB" filterUnits="userSpaceOnUse"><feFlood flood-opacity="0" result="BackgroundImageFix"/><feColorMatrix in="SourceAlpha" result="hardAlpha" values="0 0 0 0 0 0 0 0 0 0 0 0 0 0 0 0 0 0 127 0"/><feOffset dy="7.7"/><feGaussianBlur stdDeviation="19.2"/><feColorMatrix values="0 0 0 0 0 0 0 0 0 0 0 0 0 0 0 0 0 0 0.2 0"/><feBlend in2="BackgroundImageFix" result="effect1_dropShadow_247_2103"/><feColorMatrix in="SourceAlpha" result="hardAlpha" values="0 0 0 0 0 0 0 0 0 0 0 0 0 0 0 0 0 0 127 0"/><feOffset dy="15.3"/><feGaussianBlur stdDeviation="11.5"/><feColorMatrix values="0 0 0 0 0 0 0 0 0 0 0 0 0 0 0 0 0 0 0.1 0"/><feBlend in2="effect1_dropShadow_247_2103" result="effect2_dropShadow_247_2103"/><feBlend in="SourceGraphic" in2="effect2_dropShadow_247_2103" result="shape"/></filter><filter id="b" width="456" height="41" x="46" y="87" color-interpolation-filters="sRGB" filterUnits="userSpaceOnUse"><feFlood flood-opacity="0" result="BackgroundImageFix"/><feColorMatrix in="SourceAlpha" result="hardAlpha" values="0 0 0 0 0 0 0 0 0 0 0 0 0 0 0 0 0 0 127 0"/><feOffset dy=".4"/><feColorMatrix values="0 0 0 0 0 0 0 0 0 0 0 0 0 0 0 0 0 0 0.15 0"/><feBlend in2="BackgroundImageFix" result="effect1_dropShadow_247_2103"/><feBlend in="SourceGraphic" in2="effect1_dropShadow_247_2103" result="shape"/><feColorMatrix in="SourceAlpha" result="hardAlpha" values="0 0 0 0 0 0 0 0 0 0 0 0 0 0 0 0 0 0 127 0"/><feOffset dy="-.4"/><feComposite in2="hardAlpha" k2="-1" k3="1" operator="arithmetic"/><feColorMatrix values="0 0 0 0 0 0 0 0 0 0 0 0 0 0 0 0 0 0 0.05 0"/><feBlend in2="shape" result="effect2_innerShadow_247_2103"/></filter><filter id="c" width="9.2" height="9.2" x="62.1" y="102.3" color-interpolation-filters="sRGB" filterUnits="userSpaceOnUse"><feFlood flood-opacity="0" result="BackgroundImageFix"/><feBlend in="SourceGraphic" in2="BackgroundImageFix" result="shape"/><feColorMatrix in="SourceAlpha" result="hardAlpha" values="0 0 0 0 0 0 0 0 0 0 0 0 0 0 0 0 0 0 127 0"/><feOffset/><feGaussianBlur stdDeviation="2.3"/><feComposite in2="hardAlpha" k2="-1" k3="1" operator="arithmetic"/><feColorMatrix values="0 0 0 0 0.92549 0 0 0 0 0.427451 0 0 0 0 0.384314 0 0 0 1 0"/><feBlend in2="shape" result="effect1_innerShadow_247_2103"/></filter><filter id="d" width="9.2" height="9.2" x="77.4" y="102.3" color-interpolation-filters="sRGB" filterUnits="userSpaceOnUse"><feFlood flood-opacity="0" result="BackgroundImageFix"/><feBlend in="SourceGraphic" in2="BackgroundImageFix" result="shape"/><feColorMatrix in="SourceAlpha" result="hardAlpha" values="0 0 0 0 0 0 0 0 0 0 0 0 0 0 0 0 0 0 127 0"/><feOffset/><feGaussianBlur stdDeviation="2.3"/><feComposite in2="hardAlpha" k2="-1" k3="1" operator="arithmetic"/><feColorMatrix values="0 0 0 0 0.960784 0 0 0 0 0.768627 0 0 0 0 0.317647 0 0 0 1 0"/><feBlend in2="shape" result="effect1_innerShadow_247_2103"/></filter><filter id="e" width="9.2" height="9.2" x="92.7" y="102.3" color-interpolation-filters="sRGB" filterUnits="userSpaceOnUse"><feFlood flood-opacity="0" result="BackgroundImageFix"/><feBlend in="SourceGraphic" in2="BackgroundImageFix" result="shape"/><feColorMatrix in="SourceAlpha" result="hardAlpha" values="0 0 0 0 0 0 0 0 0 0 0 0 0 0 0 0 0 0 127 0"/><feOffset/><feGaussianBlur stdDeviation="2.3"/><feComposite in2="hardAlpha" k2="-1" k3="1" operator="arithmetic"/><feColorMatrix values="0 0 0 0 0.407843 0 0 0 0 0.8 0 0 0 0 0.345098 0 0 0 1 0"/><feBlend in2="shape" result="effect1_innerShadow_247_2103"/></filter><filter id="f" width="25.9" height="38.4" x="362.9" y="243" color-interpolation-filters="sRGB" filterUnits="userSpaceOnUse"><feFlood flood-opacity="0" result="BackgroundImageFix"/><feColorMatrix in="SourceAlpha" result="hardAlpha" values="0 0 0 0 0 0 0 0 0 0 0 0 0 0 0 0 0 0 127 0"/><feOffset dy=".8"/><feGaussianBlur stdDeviation=".7"/><feColorMatrix values="0 0 0 0 0 0 0 0 0 0 0 0 0 0 0 0 0 0 0.65 0"/><feBlend in2="BackgroundImageFix" result="effect1_dropShadow_247_2103"/><feBlend in="SourceGraphic" in2="effect1_dropShadow_247_2103" result="shape"/></filter><filter id="h" width="200" height="200" x="726" y="152" color-interpolation-filters="sRGB" filterUnits="userSpaceOnUse"><feFlood flood-opacity="0" result="BackgroundImageFix"/><feColorMatrix in="SourceAlpha" result="hardAlpha" values="0 0 0 0 0 0 0 0 0 0 0 0 0 0 0 0 0 0 127 0"/><feOffset dy="4"/><feGaussianBlur stdDeviation="8"/><feComposite in2="hardAlpha" operator="out"/><feColorMatrix values="0 0 0 0 0 0 0 0 0 0.509804 0 0 0 0 0.760784 0 0 0 0.3 0"/><feBlend in2="BackgroundImageFix" result="effect1_dropShadow_247_2103"/><feColorMatrix in="SourceAlpha" result="hardAlpha" values="0 0 0 0 0 0 0 0 0 0 0 0 0 0 0 0 0 0 127 0"/><feOffset dy="4"/><feGaussianBlur stdDeviation="8"/><feComposite in2="hardAlpha" operator="out"/><feColorMatrix values="0 0 0 0 0 0 0 0 0 0 0 0 0 0 0 0 0 0 0.2 0"/><feBlend in2="effect1_dropShadow_247_2103" result="effect2_dropShadow_247_2103"/><feBlend in="SourceGraphic" in2="effect2_dropShadow_247_2103" result="shape"/></filter><filter id="l" width="308.2" height="279" x="1125" y="112" color-interpolation-filters="sRGB" filterUnits="userSpaceOnUse"><feFlood flood-opacity="0" result="BackgroundImageFix"/><feColorMatrix in="SourceAlpha" result="hardAlpha" values="0 0 0 0 0 0 0 0 0 0 0 0 0 0 0 0 0 0 127 0"/><feOffset dy="8"/><feGaussianBlur stdDeviation="8"/><feColorMatrix values="0 0 0 0 0 0 0 0 0 0 0 0 0 0 0 0 0 0 0.25 0"/><feBlend in2="BackgroundImageFix" result="effect1_dropShadow_247_2103"/><feBlend in="SourceGraphic" in2="effect1_dropShadow_247_2103" result="shape"/></filter><filter id="n" width="9" height="9" x="1153" y="129" color-interpolation-filters="sRGB" filterUnits="userSpaceOnUse"><feFlood flood-opacity="0" result="BackgroundImageFix"/><feBlend in="SourceGraphic" in2="BackgroundImageFix" result="shape"/><feColorMatrix in="SourceAlpha" result="hardAlpha" values="0 0 0 0 0 0 0 0 0 0 0 0 0 0 0 0 0 0 127 0"/><feOffset/><feGaussianBlur stdDeviation="2.2"/><feComposite in2="hardAlpha" k2="-1" k3="1" operator="arithmetic"/><feColorMatrix values="0 0 0 0 0.92549 0 0 0 0 0.427451 0 0 0 0 0.384314 0 0 0 1 0"/><feBlend in2="shape" result="effect1_innerShadow_247_2103"/></filter><filter id="o" width="9" height="9" x="1168" y="129" color-interpolation-filters="sRGB" filterUnits="userSpaceOnUse"><feFlood flood-opacity="0" result="BackgroundImageFix"/><feBlend in="SourceGraphic" in2="BackgroundImageFix" result="shape"/><feColorMatrix in="SourceAlpha" result="hardAlpha" values="0 0 0 0 0 0 0 0 0 0 0 0 0 0 0 0 0 0 127 0"/><feOffset/><feGaussianBlur stdDeviation="2.2"/><feComposite in2="hardAlpha" k2="-1" k3="1" operator="arithmetic"/><feColorMatrix values="0 0 0 0 0.960784 0 0 0 0 0.768627 0 0 0 0 0.317647 0 0 0 1 0"/><feBlend in2="shape" result="effect1_innerShadow_247_2103"/></filter><filter id="p" width="9" height="9" x="1182.9" y="129" color-interpolation-filters="sRGB" filterUnits="userSpaceOnUse"><feFlood flood-opacity="0" result="BackgroundImageFix"/><feBlend in="SourceGraphic" in2="BackgroundImageFix" result="shape"/><feColorMatrix in="SourceAlpha" result="hardAlpha" values="0 0 0 0 0 0 0 0 0 0 0 0 0 0 0 0 0 0 127 0"/><feOffset/><feGaussianBlur stdDeviation="2.2"/><feComposite in2="hardAlpha" k2="-1" k3="1" operator="arithmetic"/><feColorMatrix values="0 0 0 0 0.407843 0 0 0 0 0.8 0 0 0 0 0.345098 0 0 0 1 0"/><feBlend in2="shape" result="effect1_innerShadow_247_2103"/></filter><linearGradient id="i" x1="809.6" x2="791.6" y1="225.2" y2="248.4" gradientUnits="userSpaceOnUse"><stop stop-color="#41873F" style="stop-color:#41873f;stop-color:color(display-p3 .2549 .5294 .2471);stop-opacity:1"/><stop offset=".3" stop-color="#418B3D" style="stop-color:#418b3d;stop-color:color(display-p3 .2549 .5451 .2392);stop-opacity:1"/><stop offset=".6" stop-color="#419637" style="stop-color:#419637;stop-color:color(display-p3 .2549 .5882 .2157);stop-opacity:1"/><stop offset=".9" stop-color="#3FA92D" style="stop-color:#3fa92d;stop-color:color(display-p3 .2471 .6627 .1765);stop-opacity:1"/><stop offset="1" stop-color="#3FAE2A" style="stop-color:#3fae2a;stop-color:color(display-p3 .2471 .6824 .1647);stop-opacity:1"/></linearGradient><linearGradient id="j" x1="794.1" x2="825.3" y1="233.6" y2="221.1" gradientUnits="userSpaceOnUse"><stop offset=".1" stop-color="#41873F" style="stop-color:#41873f;stop-color:color(display-p3 .2549 .5294 .2471);stop-opacity:1"/><stop offset=".4" stop-color="#54A044" style="stop-color:#54a044;stop-color:color(display-p3 .3294 .6275 .2667);stop-opacity:1"/><stop offset=".7" stop-color="#66B848" style="stop-color:#66b848;stop-color:color(display-p3 .4 .7216 .2824);stop-opacity:1"/><stop offset=".9" stop-color="#6CC04A" style="stop-color:#6cc04a;stop-color:color(display-p3 .4235 .7529 .2902);stop-opacity:1"/></linearGradient><linearGradient id="k" x1="794.2" x2="823.6" y1="242" y2="242" gradientUnits="userSpaceOnUse"><stop offset=".1" stop-color="#6CC04A" style="stop-color:#6cc04a;stop-color:color(display-p3 .4235 .7529 .2902);stop-opacity:1"/><stop offset=".3" stop-color="#66B848" style="stop-color:#66b848;stop-color:color(display-p3 .4 .7216 .2824);stop-opacity:1"/><stop offset=".6" stop-color="#54A044" style="stop-color:#54a044;stop-color:color(display-p3 .3294 .6275 .2667);stop-opacity:1"/><stop offset=".9" stop-color="#41873F" style="stop-color:#41873f;stop-color:color(display-p3 .2549 .5294 .2471);stop-opacity:1"/></linearGradient><clipPath id="g"><path fill="#fff" d="M0 0h176.3v25.3H0z" style="fill:#fff;fill-opacity:1" transform="translate(292 308.5)"/></clipPath><clipPath id="m"><rect width="276.2" height="247" x="1141" y="120" fill="#fff" rx="9" style="fill:#fff;fill-opacity:1"/></clipPath></defs></svg>